<svg width="52" height="56" viewBox="0 0 52 56" fill="none" xmlns="http://www.w3.org/2000/svg">
<path d="M25.2985 29.6451C24.7659 30.7865 23.9073 31.5148 23.3965 31.2757C22.8857 31.0365 22.8965 29.9169 23.44 28.7755C23.9725 27.6341 24.8203 26.9058 25.342 27.145C25.8528 27.3841 25.8419 28.5037 25.3094 29.6451H25.2985ZM28.3091 32.4497C26.3962 31.6779 25.1355 30.3626 25.4724 29.5038C25.7332 28.8516 26.8418 28.656 28.1895 28.9277C21.3097 21.6772 12.7671 6.25207 18.5165 0.882094C21.8532 -2.23771 34.7107 6.26293 35.6454 10.2198C36.3301 13.1439 35.2215 15.9485 33.6238 18.3182C36.1888 16.7529 38.6016 11.4698 41.7969 12.1003C45.4814 13.133 48.242 15.7528 49.894 19.2096C52.4373 24.5361 51.9047 28.9168 47.9377 29.8517C43.2316 30.9496 37.656 33.1128 32.6348 30.7539C32.0805 30.5365 31.537 30.33 31.0153 30.1234C32.0044 30.8083 32.5804 31.6018 32.4174 32.2105C35.3519 32.6453 44.4706 35.7108 43.0794 37.4936C41.6665 39.2981 33.6999 34.5368 31.8848 32.7976C31.1349 33.1563 29.7437 33.0476 28.2982 32.4715L28.3091 32.4497ZM19.8534 6.99128C18.4296 7.50219 20.9185 14.307 21.3532 14.1548C21.788 13.9918 21.2663 6.48037 19.8534 6.99128ZM23.0161 12.5569C23.4617 12.4156 23.2443 4.92586 21.8097 5.38242C20.3642 5.83897 22.5705 12.6982 23.0161 12.5569ZM22.2227 2.8279C21.7988 2.38222 21.1358 2.30611 20.7446 2.6757C20.3424 3.04529 20.3642 3.70838 20.7881 4.16494C21.2119 4.6215 21.8749 4.68673 22.2662 4.31714C22.6574 3.94755 22.6466 3.28446 22.2227 2.8279ZM23.8204 4.46934C22.3966 4.96938 24.842 11.7851 25.2768 11.6329C25.7115 11.4807 25.2333 3.9693 23.8204 4.46934ZM27.657 10.4481C24.8638 11.459 27.6787 20.3727 28.5265 20.0683C29.3851 19.764 30.4176 9.44798 27.657 10.4481ZM29.0699 6.3499C28.646 5.89334 27.983 5.8281 27.5918 6.1977C27.2005 6.56729 27.2222 7.23038 27.6352 7.68693C28.0591 8.14349 28.7221 8.20873 29.1134 7.83914C29.5155 7.46954 29.4829 6.80645 29.0699 6.3499ZM34.5259 19.6444C32.0153 19.6117 31.8414 26.8732 32.6022 26.8841C33.3738 26.8841 37.0148 19.6878 34.5259 19.6444ZM37.8408 16.3398C37.4169 15.8832 36.7539 15.818 36.3627 16.1876C35.9605 16.5572 35.9823 17.2203 36.4062 17.6768C36.83 18.1334 37.493 18.1986 37.8843 17.829C38.2755 17.4594 38.2538 16.7964 37.8408 16.3507V16.3398ZM40.7427 16.6985C38.3951 15.7854 35.7214 21.8728 36.4388 22.1446C37.1561 22.4164 43.0686 17.5899 40.7427 16.6985ZM38.895 22.4924C39.5798 22.862 46.1878 18.9595 43.9598 17.7638C41.71 16.5572 38.2103 22.1228 38.895 22.4924ZM43.6011 14.8506C43.1773 14.4049 42.5143 14.3288 42.123 14.6983C41.7317 15.0679 41.7535 15.731 42.1665 16.1876C42.5904 16.6441 43.2533 16.7094 43.6446 16.3398C44.0467 15.9702 44.025 15.3071 43.6011 14.8506ZM47.1334 17.6877C46.7095 17.242 46.0465 17.1659 45.6553 17.5355C45.264 17.9051 45.2749 18.5682 45.6988 19.0139C46.1226 19.4705 46.7856 19.5357 47.1769 19.1661C47.579 18.7965 47.5573 18.1334 47.1334 17.6768V17.6877ZM47.9377 22.949C48.3616 23.4056 49.0245 23.4708 49.4158 23.1012C49.8179 22.7316 49.7962 22.0685 49.3723 21.6119C48.9484 21.1553 48.2855 21.0902 47.8942 21.4598C47.5029 21.8294 47.5138 22.4924 47.9377 22.949ZM46.9486 20.1771C44.9706 18.5248 40.1775 22.949 40.7862 23.4599C41.3948 23.9708 48.9158 21.8185 46.9486 20.1771ZM40.4927 25.3731C40.9166 26.0362 49.068 26.7101 47.6877 24.5687C46.2965 22.4055 40.0688 24.71 40.4927 25.3731ZM47.9268 27.7428C48.3507 28.1885 49.0137 28.2646 49.4049 27.895C49.7962 27.5254 49.7745 26.8623 49.3615 26.4058C48.9376 25.9601 48.2746 25.884 47.8833 26.2536C47.4812 26.6123 47.5029 27.2863 47.9268 27.7428ZM47.3616 28.6342C47.6334 26.2753 34.9498 28.1668 35.3302 28.8625C35.6997 29.5473 46.9595 32.1453 47.3616 28.6342ZM32.5913 28.1668C33.4282 28.7429 42.623 24.8622 39.9058 23.0142C37.167 21.1445 31.7544 27.6015 32.5913 28.1668ZM30.6567 25.7644C31.5914 25.7318 34.6672 10.9372 31.6131 11.0459C28.5373 11.1655 29.7111 25.797 30.6567 25.7644ZM30.1459 26.9384C30.798 26.3297 25.2442 12.6982 23.1248 14.6658C20.9837 16.6551 29.4937 27.5472 30.1459 26.9384ZM0.463869 45.6898C0.192156 37.6784 17.4188 32.4606 27.4179 32.1019C27.4179 32.1019 29.559 33.0258 31.6675 33.9281C36.8952 35.7652 39.3407 41.2547 41.8948 45.3746C44.0576 48.8531 41.3296 52.4186 35.7432 54.4948C32.1239 55.8428 28.3091 55.7993 24.9616 53.9513C22.2336 52.1468 24.2768 46.603 23.5595 43.6571C23.0161 46.516 21.8206 49.3314 19.2556 50.9728C15.7885 53.2013 0.616029 50.3097 0.463869 45.679V45.6898ZM5.99597 44.7332C6.70243 46.0703 12.1584 40.7764 11.941 40.3633C11.7237 39.9502 5.28952 43.3744 5.99597 44.7332ZM5.74598 42.1896C6.38723 43.5593 12.0824 38.4611 11.8867 38.0371C11.6911 37.6132 5.10474 40.8091 5.74598 42.1896ZM13.517 38.9067C13.6257 41.8309 27.2331 35.8304 27.2005 34.9281C27.1679 34.0259 13.3974 35.9608 13.517 38.9067ZM25.1463 43.331C26.9397 45.0594 29.4611 37.2435 28.9068 36.7109C28.3526 36.1782 23.3422 41.5808 25.1463 43.331ZM29.8198 35.7652C28.8199 35.5912 28.1026 44.1028 31.3631 44.6789C34.602 45.2442 30.8197 35.9391 29.8198 35.7652ZM40.4927 48.8749C41.1122 48.8422 41.6013 48.3749 41.5796 47.8313C41.5578 47.2878 41.0362 46.8638 40.4166 46.8964C39.7971 46.929 39.3081 47.3965 39.3298 47.94C39.3515 48.4944 39.8732 48.9075 40.4927 48.8749ZM40.6449 45.842C42.8403 43.0157 33.0043 36.95 32.2544 37.1892C31.5044 37.4283 39.1668 47.7444 40.6449 45.842ZM37.993 49.0379C40.4927 48.4509 34.2216 43.1896 33.4499 43.3744C32.6782 43.5592 35.4715 49.6249 37.993 49.0379ZM37.1017 52.3534C37.7212 52.3208 38.1995 51.8533 38.1886 51.3098C38.1669 50.7663 37.6452 50.3424 37.0257 50.375C36.4061 50.4076 35.9171 50.875 35.9388 51.4186C35.9605 51.9621 36.4822 52.386 37.1017 52.3534ZM34.352 51.7012C36.9061 51.8969 33.0912 45.0268 32.2978 44.9615C31.5044 44.9072 31.7762 51.5055 34.352 51.7012ZM32.7217 53.6361C33.3412 53.6035 33.8303 53.136 33.8086 52.5925C33.7868 52.049 33.2651 51.6251 32.6456 51.6577C32.0261 51.6903 31.537 52.1577 31.5588 52.7013C31.5805 53.2448 32.1022 53.6687 32.7217 53.6361ZM30.5154 51.3316C32.9391 52.0381 31.0153 44.5376 30.2654 44.3202C29.5155 44.1028 28.07 50.6141 30.5154 51.3316ZM28.2765 42.8418C27.57 42.5374 25.1572 48.8531 27.4722 49.8423C29.7655 50.8207 28.9829 43.1462 28.2765 42.8418ZM27.0483 52.2664C27.0701 52.8099 27.5918 53.2339 28.2113 53.2012C28.8308 53.1686 29.3199 52.7013 29.2981 52.1577C29.2764 51.6142 28.7547 51.1903 28.1352 51.2229C27.5157 51.2555 27.0266 51.7229 27.0483 52.2664ZM25.0811 46.0812C24.4616 46.1138 23.9725 46.5812 23.9943 47.1247C24.016 47.6683 24.5377 48.0922 25.1572 48.0596C25.7767 48.027 26.2658 47.5596 26.2441 47.0161C26.2223 46.4725 25.7006 46.0485 25.0811 46.0812ZM16.9841 47.5161C19.0708 49.7445 27.3744 36.8196 26.7223 36.1348C26.081 35.45 14.8756 45.2659 16.9841 47.5161ZM21.1793 38.7763C20.7989 37.9501 12.4845 42.4505 13.7452 45.1572C14.9951 47.8422 21.5706 39.6024 21.1793 38.7763ZM11.8432 49.1357C12.4627 49.1031 12.9518 48.6357 12.9301 48.0922C12.9084 47.5487 12.3867 47.1247 11.7672 47.1573C11.1477 47.1899 10.6586 47.6574 10.6803 48.2009C10.702 48.7444 11.2237 49.1683 11.8432 49.1357ZM12.8866 42.6244C12.6801 42.2004 6.11551 45.429 6.77849 46.8095C7.4306 48.1683 13.0931 43.0483 12.8866 42.6244ZM4.47437 46.8639C5.09387 46.8312 5.58296 46.3638 5.56122 45.8203C5.53948 45.2768 5.0178 44.8637 4.39829 44.8854C3.77879 44.9181 3.2897 45.3855 3.31144 45.929C3.33318 46.4725 3.85486 46.8965 4.47437 46.8639Z" fill="#E2617D"/>
</svg>
