<svg width="944" height="1182" viewBox="0 0 944 1182" fill="none" xmlns="http://www.w3.org/2000/svg">
<path d="M119.871 204.539L113.712 184.204L162.236 204.539H119.871Z" fill="#861E15"/>
<path d="M208.011 204.539L214.149 184.204L165.646 204.539H208.011Z" fill="#861E15"/>
<path d="M822.421 204.539L828.58 184.204L780.078 204.539H822.421Z" fill="#861E15"/>
<path d="M734.303 204.539L728.144 184.204L776.646 204.539H734.303Z" fill="#861E15"/>
<path d="M857.287 199.134H59.9756V248.773H857.287V199.134Z" fill="#AB2B1C"/>
<g style="mix-blend-mode:multiply">
<path d="M124.601 248.773H206.89C206.626 232.218 205.724 215.688 205.284 199.134H127.372C125.546 215.567 124.777 232.17 124.623 248.773H124.601Z" fill="#AB2B1C"/>
</g>
<g style="mix-blend-mode:multiply">
<path d="M733.049 248.773H815.295C815.229 232.218 814.811 215.688 814.371 199.134H734.259C733.665 215.664 733.225 232.218 733.027 248.773H733.049Z" fill="#AB2B1C"/>
</g>
<g style="mix-blend-mode:multiply">
<path d="M857.287 199.134H59.9756V235.975H857.287V199.134Z" fill="#AB2B1C"/>
</g>
<path d="M196.397 135.512H186.829H144.463H134.895L119.871 1060H144.463H186.829H211.421L196.397 135.512Z" fill="#AB2B1C"/>
<g style="mix-blend-mode:multiply">
<path d="M196.837 162.73L196.398 135.512H134.895L134.455 162.73H196.837Z" fill="#AB2B1C"/>
</g>
<g style="mix-blend-mode:multiply">
<path d="M196.398 135.512H174.379V1060H211.421L196.398 135.512Z" fill="#AB2B1C"/>
</g>
<path d="M211.421 109.917H119.871V149.06H211.421V109.917Z" fill="#AB2B1C"/>
<g style="mix-blend-mode:multiply">
<path d="M211.421 109.917H119.871V129.5H211.421V109.917Z" fill="#AB2B1C"/>
</g>
<path d="M121.059 628.864L113.712 1060H183.75L172.993 628.864H121.059Z" fill="#E83C2C"/>
<g style="mix-blend-mode:screen">
<path d="M131.42 628.864H121.059L113.712 1060H131.42V628.864Z" fill="#E83C2C"/>
</g>
<path d="M183.75 614.807H113.712V642.922H183.75V614.807Z" fill="#4D4D5F"/>
<path d="M745.917 135.512H755.464H797.829H807.398L822.421 1060H797.829H755.464H730.872L745.917 135.512Z" fill="#AB2B1C"/>
<g style="mix-blend-mode:multiply">
<path d="M745.455 162.73L745.917 135.512H807.398L807.838 162.73H745.455Z" fill="#AB2B1C"/>
</g>
<g style="mix-blend-mode:multiply">
<path d="M745.917 135.512H767.914V1060H730.872L745.917 135.512Z" fill="#AB2B1C"/>
</g>
<path d="M730.893 149.061H822.443V109.917L730.893 109.917V149.061Z" fill="#AB2B1C"/>
<g style="mix-blend-mode:multiply">
<path d="M730.893 129.477H822.443V109.893L730.893 109.893V129.477Z" fill="#AB2B1C"/>
</g>
<path d="M821.233 628.863L828.58 1060H758.543L769.299 628.863H821.233Z" fill="#E83C2C"/>
<g style="mix-blend-mode:screen">
<path d="M810.873 628.863H821.234L828.58 1060H810.873V628.863Z" fill="#E83C2C"/>
</g>
<path d="M758.543 642.922H828.58V614.806H758.543V642.922Z" fill="#4D4D5F"/>
<path d="M604.39 72.2759H329.037H53.7051L67.365 124.968H329.037H604.39H866.062L879.722 72.2759H604.39Z" fill="#E83C2C"/>
<g style="mix-blend-mode:multiply">
<path d="M604.39 72.2759H53.7051L57.5105 86.9638C75.9657 93.3867 109.994 96.8526 168.483 97.9433C222.287 98.937 375.318 98.622 471.157 98.2826C566.996 98.622 720.027 98.9613 773.83 97.9433C823.389 97.0223 855.372 94.3804 875.213 89.7026L879.722 72.2759H604.39Z" fill="#AB2B1C"/>
</g>
<path d="M814.811 34.6353C777.394 38.5617 164.898 38.5617 127.482 34.6353C46.4027 26.1037 25 0 25 0C25 0 31.8409 51.1894 42.7733 63.2354C53.7056 75.2814 87.8663 81.2923 168.484 82.8193C222.288 83.813 375.318 83.4979 471.157 83.1586C566.997 83.4979 720.027 83.8372 773.831 82.8193C854.448 81.3166 888.609 75.2814 899.542 63.2354C910.474 51.1894 917.315 0 917.315 0C917.315 0 895.912 26.1037 814.833 34.6353H814.811Z" fill="#333341"/>
<path d="M814.811 56.1096C875.961 49.6625 903.149 33.2537 912.827 25.5705C915.687 11.9006 917.293 0 917.293 0C917.293 0 895.89 26.1037 814.811 34.6353C777.394 38.5617 164.898 38.5617 127.482 34.6353C46.4027 26.1037 25 0 25 0C25 0 26.5838 11.9006 29.4653 25.5705C39.1438 33.2537 66.3316 49.6867 127.482 56.1096C164.898 60.0361 777.394 60.0361 814.811 56.1096Z" fill="#151521"/>
<path d="M508.948 92.7568H433.345V220.9H508.948V92.7568Z" fill="#1D1D29"/>
<path d="M508.947 98.6216H433.345V226.765H508.947V98.6216Z" fill="#333341"/>
<path d="M502.26 106.742H440.032V218.646H502.26V106.742Z" fill="#4D4D5F"/>
<mask id="path-32-outside-1_153_2" maskUnits="userSpaceOnUse" x="0" y="936" width="494" height="246" fill="black">
<rect fill="white" y="936" width="494" height="246"/>
<path d="M16.048 1123.05C22.8154 1120.22 26.5351 1115.78 28.9229 1112.27C30.5427 1109.88 31.6346 1107.29 32.6785 1104.79C34.6224 1100.16 36.3022 1096.16 40.9579 1094.28C49.5371 1090.83 60.6602 1093.92 68.0155 1095.96C79.8945 1099.26 89.5536 1097.72 95.6011 1091.67C96.513 1092.83 97.461 1093.94 98.4089 1095.04C102.021 1099.26 105.44 1103.25 105.992 1108.52C106.076 1109.31 105.836 1110.11 105.428 1110.38C104.264 1111.18 103.952 1112.78 104.756 1113.94C105.248 1114.68 106.052 1115.06 106.88 1115.06C107.372 1115.06 107.876 1114.92 108.32 1114.62C110.312 1113.26 111.38 1110.71 111.092 1107.98C110.372 1101.11 106.268 1096.32 102.297 1091.69C99.3088 1088.21 96.477 1084.91 95.2171 1080.9C93.4173 1075.17 94.9052 1068.74 99.2848 1063.24C107.624 1052.78 125.071 1046.65 137.729 1054.17C140.501 1055.82 144.305 1058.82 146.285 1061.95C150.688 1071.52 158.56 1076.78 169.083 1077.17C169.995 1077.2 171.003 1077.1 171.975 1076.99C172.994 1076.88 174.866 1076.66 175.406 1076.94C175.394 1076.96 175.43 1077.13 175.43 1077.46C175.406 1079.26 175.262 1081.09 175.13 1082.84C174.686 1088.81 174.218 1094.98 177.794 1101.13C187.357 1117.62 207.779 1124.18 222.37 1124.79C223.078 1124.83 223.786 1124.84 224.506 1124.84C242.312 1124.84 264.331 1115.81 273.642 1097.82C274.29 1096.55 273.81 1095.01 272.55 1094.35C271.302 1093.7 269.754 1094.18 269.094 1095.45C260.383 1112.26 239.109 1120.34 222.574 1119.67C209.279 1119.11 190.729 1113.25 182.21 1098.56C179.438 1093.79 179.81 1088.89 180.23 1083.23C180.374 1081.39 180.506 1079.49 180.542 1077.54C180.566 1075.66 180.002 1074.18 178.862 1073.14C176.822 1071.29 173.822 1071.61 171.411 1071.89C170.595 1071.98 169.815 1072.06 169.275 1072.04C160.936 1071.73 154.9 1067.8 151.264 1060.43C151.204 1060.25 151.144 1060.07 151.048 1059.9C150.952 1059.74 150.856 1059.59 150.76 1059.43C150.748 1059.39 150.724 1059.36 150.712 1059.32C144.173 1044.42 148.865 1022.04 157.408 1011.97C165.279 1002.71 181.886 995.644 194.053 999.901C198.6 1001.49 202.308 998.434 205.284 995.968C206.16 995.235 206.999 994.549 207.767 994.032C213.347 990.34 222.046 989.27 229.918 991.314C235.869 992.866 244.04 996.81 249.284 1006.84C244.148 1016.34 244.976 1028.16 247.736 1036.87C247.7 1037.1 247.676 1037.33 247.7 1037.57C248.804 1048.26 239.793 1060.62 228.418 1064.02C217.031 1067.43 201.192 1063.39 196.68 1052.13C194.941 1047.81 195.025 1043.24 196.908 1038.9C199.392 1033.18 204.768 1028.27 211.295 1025.76C214.583 1024.49 221.146 1023.19 224.806 1025.1C225.97 1025.7 226.654 1026.55 226.966 1027.79C227.242 1028.87 227.098 1029.85 226.522 1030.77C225.466 1032.5 222.982 1034.02 220.198 1034.66C218.819 1034.97 217.955 1036.34 218.267 1037.72C218.578 1039.11 219.958 1039.97 221.326 1039.66C224.566 1038.92 228.766 1036.9 230.877 1033.45C232.173 1031.35 232.533 1028.94 231.921 1026.53C231.249 1023.88 229.606 1021.8 227.158 1020.53C221.578 1017.63 213.131 1019.53 209.447 1020.95C201.672 1023.94 195.229 1029.87 192.205 1036.83C189.757 1042.45 189.661 1048.4 191.929 1054.02C196.284 1064.86 208.367 1070.31 220.006 1070.31C223.414 1070.31 226.774 1069.84 229.894 1068.91C240.513 1065.73 249.152 1056.3 251.948 1046.12C258.943 1057.85 271.47 1067.55 285.833 1071.88C297.244 1075.32 318.398 1075.92 326.641 1062.88C328.285 1060.28 328.573 1057.54 328.837 1055.12C329.017 1053.43 329.185 1051.82 329.809 1050.51C330.517 1049.04 330.997 1048.94 333.421 1048.7C333.925 1048.65 334.453 1048.59 335.005 1048.52C342.636 1047.5 348.743 1042.76 351.767 1035.53C355.223 1027.27 353.987 1017.31 348.635 1010.19C342.984 1002.68 333.265 998.506 322.622 999.059C312.326 999.588 303.399 1004.54 298.732 1012.3C298 1013.51 298.396 1015.09 299.608 1015.82C300.819 1016.56 302.391 1016.16 303.123 1014.95C306.903 1008.64 314.294 1004.61 322.886 1004.18C331.705 1003.74 339.996 1007.21 344.544 1013.27C348.815 1018.97 349.799 1026.92 347.039 1033.55C344.712 1039.14 340.188 1042.65 334.321 1043.43C333.829 1043.49 333.361 1043.54 332.905 1043.59C330.205 1043.86 327.157 1044.17 325.189 1048.28C324.181 1050.39 323.953 1052.51 323.737 1054.57C323.509 1056.7 323.317 1058.54 322.31 1060.13C315.938 1070.19 298 1070.18 287.297 1066.96C271.326 1062.15 257.875 1050.19 253.028 1036.53C250.244 1028.7 249.008 1016.46 254.671 1007.74C258.547 1001.76 266.526 992.084 276.402 994.369C277.769 994.694 279.149 993.828 279.473 992.445C279.641 991.735 279.485 991.026 279.125 990.46C278.945 987.995 280.409 978.507 280.865 976.871C286.637 957.702 307.803 948.117 325.705 945.544C346.056 942.609 367.87 951.725 381.248 968.766C382.94 970.918 384.488 973.203 385.868 975.548C390.308 983.125 392.779 991.398 392.995 999.456C393.199 1007.04 390.872 1012.61 388.172 1019.07C387.608 1020.4 387.044 1021.78 386.48 1023.19C386.18 1023.86 385.904 1024.55 385.688 1025.25C385.268 1026.57 385.976 1027.99 387.296 1028.45C388.604 1028.91 390.044 1028.23 390.536 1026.94C390.752 1026.35 390.98 1025.77 391.208 1025.19C392.815 1021.78 395.875 1019.14 400.327 1017.36C410.478 1013.31 425.057 1014.9 432.304 1018.93C445.071 1026.02 454.994 1040.85 455.882 1054.19C456.23 1059.37 454.322 1062.13 451.67 1065.96C450.615 1067.5 449.511 1069.07 448.467 1070.97C447.783 1072.21 448.227 1073.78 449.463 1074.46C450.363 1074.97 451.442 1074.86 452.222 1074.28C454.25 1074.32 460.454 1076.64 461.762 1077.43C475.716 1085.95 485.915 1102.59 485.999 1117.01C486.059 1127.12 481.284 1135.48 472.189 1141.17C463.861 1146.39 453.986 1149.17 444.423 1149C440.271 1148.93 436.24 1148.05 431.968 1147.13C426.197 1145.88 420.245 1144.61 413.97 1145.43C404.479 1146.68 395.647 1150.32 387.116 1153.84C379.017 1157.19 370.629 1160.64 361.906 1161.9C356.759 1162.65 339.108 1164.33 328.513 1154.81C313.574 1141.37 311.055 1117.36 323.006 1102.34C330.985 1092.31 343.524 1085.41 356.531 1083.87C366.346 1082.7 375.969 1085.14 382.244 1090.37C390.008 1096.84 391.472 1108.03 385.508 1115.29C383.66 1117.55 381.212 1119.25 378.633 1120.08C373.401 1121.75 367.222 1120.08 362.242 1118.73C360.886 1118.36 359.47 1119.17 359.098 1120.53C358.726 1121.9 359.542 1123.31 360.898 1123.68C366.514 1125.2 373.521 1127.1 380.181 1124.96C383.732 1123.82 386.936 1121.6 389.444 1118.55C397.195 1109.11 395.431 1094.69 385.496 1086.42C378.153 1080.29 367.102 1077.43 355.907 1078.75C341.592 1080.45 327.781 1088.06 318.974 1099.13C309.195 1111.42 307.707 1128.37 313.766 1142.72C302.511 1139.64 288.221 1145.13 281.537 1151.91C270.702 1162.92 258.679 1173.71 241.497 1174C241.341 1174 241.173 1174 241.017 1174C229.114 1174 219.406 1166.57 209.999 1159.38C209.099 1158.68 208.187 1157.99 207.288 1157.31C200.952 1152.52 187.261 1145.17 176.114 1148.06C171.111 1149.36 167.295 1152.67 165.087 1157.64C164.511 1158.94 165.087 1160.46 166.383 1161.04C167.679 1161.61 169.191 1161.04 169.767 1159.74C171.363 1156.14 173.858 1153.95 177.398 1153.04C182.21 1151.8 188.545 1153.17 194.461 1155.76C194.461 1155.95 194.461 1156.14 194.497 1156.33C195.085 1159.44 188.077 1164.6 183.062 1166.56C177.314 1168.8 170.091 1169.51 162.711 1168.55C152.848 1167.27 142.001 1161.94 140.297 1150.87C141.197 1150.53 142.073 1150.15 142.949 1149.73C151.192 1145.78 157.432 1139 160.072 1131.16C162.351 1124.38 161.787 1117.35 158.44 1110.8C155.632 1105.32 150.736 1101.82 144.989 1101.21C139.673 1100.64 134.526 1102.57 131.502 1106.26C130.602 1107.35 130.758 1108.96 131.85 1109.87C132.942 1110.77 134.55 1110.61 135.45 1109.52C137.358 1107.18 140.897 1105.92 144.437 1106.31C146.777 1106.56 151.132 1107.79 153.868 1113.15C156.568 1118.43 157.036 1124.09 155.2 1129.53C153.004 1136.06 147.725 1141.75 140.717 1145.1C130.218 1150.14 117.415 1149.7 105.596 1143.89C98.6849 1140.48 93.2973 1134.78 87.5978 1128.73C84.0461 1124.97 80.3744 1121.07 76.3068 1117.83C72.0591 1114.44 65.4957 1109.89 57.5044 1109.6C49.7051 1109.3 43.7416 1113.35 37.9581 1117.25C32.4626 1120.95 27.291 1124.44 20.9316 1123.94C19.2997 1123.8 17.6799 1123.42 16 1122.95L16.048 1123.05Z"/>
</mask>
<path d="M16.048 1123.05C22.8154 1120.22 26.5351 1115.78 28.9229 1112.27C30.5427 1109.88 31.6346 1107.29 32.6785 1104.79C34.6224 1100.16 36.3022 1096.16 40.9579 1094.28C49.5371 1090.83 60.6602 1093.92 68.0155 1095.96C79.8945 1099.26 89.5536 1097.72 95.6011 1091.67C96.513 1092.83 97.461 1093.94 98.4089 1095.04C102.021 1099.26 105.44 1103.25 105.992 1108.52C106.076 1109.31 105.836 1110.11 105.428 1110.38C104.264 1111.18 103.952 1112.78 104.756 1113.94C105.248 1114.68 106.052 1115.06 106.88 1115.06C107.372 1115.06 107.876 1114.92 108.32 1114.62C110.312 1113.26 111.38 1110.71 111.092 1107.98C110.372 1101.11 106.268 1096.32 102.297 1091.69C99.3088 1088.21 96.477 1084.91 95.2171 1080.9C93.4173 1075.17 94.9052 1068.74 99.2848 1063.24C107.624 1052.78 125.071 1046.65 137.729 1054.17C140.501 1055.82 144.305 1058.82 146.285 1061.95C150.688 1071.52 158.56 1076.78 169.083 1077.17C169.995 1077.2 171.003 1077.1 171.975 1076.99C172.994 1076.88 174.866 1076.66 175.406 1076.94C175.394 1076.96 175.43 1077.13 175.43 1077.46C175.406 1079.26 175.262 1081.09 175.13 1082.84C174.686 1088.81 174.218 1094.98 177.794 1101.13C187.357 1117.62 207.779 1124.18 222.37 1124.79C223.078 1124.83 223.786 1124.84 224.506 1124.84C242.312 1124.84 264.331 1115.81 273.642 1097.82C274.29 1096.55 273.81 1095.01 272.55 1094.35C271.302 1093.7 269.754 1094.18 269.094 1095.45C260.383 1112.26 239.109 1120.34 222.574 1119.67C209.279 1119.11 190.729 1113.25 182.21 1098.56C179.438 1093.79 179.81 1088.89 180.23 1083.23C180.374 1081.39 180.506 1079.49 180.542 1077.54C180.566 1075.66 180.002 1074.18 178.862 1073.14C176.822 1071.29 173.822 1071.61 171.411 1071.89C170.595 1071.98 169.815 1072.06 169.275 1072.04C160.936 1071.73 154.9 1067.8 151.264 1060.43C151.204 1060.25 151.144 1060.07 151.048 1059.9C150.952 1059.74 150.856 1059.59 150.76 1059.43C150.748 1059.39 150.724 1059.36 150.712 1059.32C144.173 1044.42 148.865 1022.04 157.408 1011.97C165.279 1002.71 181.886 995.644 194.053 999.901C198.6 1001.49 202.308 998.434 205.284 995.968C206.16 995.235 206.999 994.549 207.767 994.032C213.347 990.34 222.046 989.27 229.918 991.314C235.869 992.866 244.04 996.81 249.284 1006.84C244.148 1016.34 244.976 1028.16 247.736 1036.87C247.7 1037.1 247.676 1037.33 247.7 1037.57C248.804 1048.26 239.793 1060.62 228.418 1064.02C217.031 1067.43 201.192 1063.39 196.68 1052.13C194.941 1047.81 195.025 1043.24 196.908 1038.9C199.392 1033.18 204.768 1028.27 211.295 1025.76C214.583 1024.49 221.146 1023.19 224.806 1025.1C225.97 1025.7 226.654 1026.55 226.966 1027.79C227.242 1028.87 227.098 1029.85 226.522 1030.77C225.466 1032.5 222.982 1034.02 220.198 1034.66C218.819 1034.97 217.955 1036.34 218.267 1037.72C218.578 1039.11 219.958 1039.97 221.326 1039.66C224.566 1038.92 228.766 1036.9 230.877 1033.45C232.173 1031.35 232.533 1028.94 231.921 1026.53C231.249 1023.88 229.606 1021.8 227.158 1020.53C221.578 1017.63 213.131 1019.53 209.447 1020.95C201.672 1023.94 195.229 1029.87 192.205 1036.83C189.757 1042.45 189.661 1048.4 191.929 1054.02C196.284 1064.86 208.367 1070.31 220.006 1070.31C223.414 1070.31 226.774 1069.84 229.894 1068.91C240.513 1065.73 249.152 1056.3 251.948 1046.12C258.943 1057.85 271.47 1067.55 285.833 1071.88C297.244 1075.32 318.398 1075.92 326.641 1062.88C328.285 1060.28 328.573 1057.54 328.837 1055.12C329.017 1053.43 329.185 1051.82 329.809 1050.51C330.517 1049.04 330.997 1048.94 333.421 1048.7C333.925 1048.65 334.453 1048.59 335.005 1048.52C342.636 1047.5 348.743 1042.76 351.767 1035.53C355.223 1027.27 353.987 1017.31 348.635 1010.19C342.984 1002.68 333.265 998.506 322.622 999.059C312.326 999.588 303.399 1004.54 298.732 1012.3C298 1013.51 298.396 1015.09 299.608 1015.82C300.819 1016.56 302.391 1016.16 303.123 1014.95C306.903 1008.64 314.294 1004.61 322.886 1004.18C331.705 1003.74 339.996 1007.21 344.544 1013.27C348.815 1018.97 349.799 1026.92 347.039 1033.55C344.712 1039.14 340.188 1042.65 334.321 1043.43C333.829 1043.49 333.361 1043.54 332.905 1043.59C330.205 1043.86 327.157 1044.17 325.189 1048.28C324.181 1050.39 323.953 1052.51 323.737 1054.57C323.509 1056.7 323.317 1058.54 322.31 1060.13C315.938 1070.19 298 1070.18 287.297 1066.96C271.326 1062.15 257.875 1050.19 253.028 1036.53C250.244 1028.7 249.008 1016.46 254.671 1007.74C258.547 1001.76 266.526 992.084 276.402 994.369C277.769 994.694 279.149 993.828 279.473 992.445C279.641 991.735 279.485 991.026 279.125 990.46C278.945 987.995 280.409 978.507 280.865 976.871C286.637 957.702 307.803 948.117 325.705 945.544C346.056 942.609 367.87 951.725 381.248 968.766C382.94 970.918 384.488 973.203 385.868 975.548C390.308 983.125 392.779 991.398 392.995 999.456C393.199 1007.04 390.872 1012.61 388.172 1019.07C387.608 1020.4 387.044 1021.78 386.48 1023.19C386.18 1023.86 385.904 1024.55 385.688 1025.25C385.268 1026.57 385.976 1027.99 387.296 1028.45C388.604 1028.91 390.044 1028.23 390.536 1026.94C390.752 1026.35 390.98 1025.77 391.208 1025.19C392.815 1021.78 395.875 1019.14 400.327 1017.36C410.478 1013.31 425.057 1014.9 432.304 1018.93C445.071 1026.02 454.994 1040.85 455.882 1054.19C456.23 1059.37 454.322 1062.13 451.67 1065.96C450.615 1067.5 449.511 1069.07 448.467 1070.97C447.783 1072.21 448.227 1073.78 449.463 1074.46C450.363 1074.97 451.442 1074.86 452.222 1074.28C454.25 1074.32 460.454 1076.64 461.762 1077.43C475.716 1085.95 485.915 1102.59 485.999 1117.01C486.059 1127.12 481.284 1135.48 472.189 1141.17C463.861 1146.39 453.986 1149.17 444.423 1149C440.271 1148.93 436.24 1148.05 431.968 1147.13C426.197 1145.88 420.245 1144.61 413.97 1145.43C404.479 1146.68 395.647 1150.32 387.116 1153.84C379.017 1157.19 370.629 1160.64 361.906 1161.9C356.759 1162.65 339.108 1164.33 328.513 1154.81C313.574 1141.37 311.055 1117.36 323.006 1102.34C330.985 1092.31 343.524 1085.41 356.531 1083.87C366.346 1082.7 375.969 1085.14 382.244 1090.37C390.008 1096.84 391.472 1108.03 385.508 1115.29C383.66 1117.55 381.212 1119.25 378.633 1120.08C373.401 1121.75 367.222 1120.08 362.242 1118.73C360.886 1118.36 359.47 1119.17 359.098 1120.53C358.726 1121.9 359.542 1123.31 360.898 1123.68C366.514 1125.2 373.521 1127.1 380.181 1124.96C383.732 1123.82 386.936 1121.6 389.444 1118.55C397.195 1109.11 395.431 1094.69 385.496 1086.42C378.153 1080.29 367.102 1077.43 355.907 1078.75C341.592 1080.45 327.781 1088.06 318.974 1099.13C309.195 1111.42 307.707 1128.37 313.766 1142.72C302.511 1139.64 288.221 1145.13 281.537 1151.91C270.702 1162.92 258.679 1173.71 241.497 1174C241.341 1174 241.173 1174 241.017 1174C229.114 1174 219.406 1166.57 209.999 1159.38C209.099 1158.68 208.187 1157.99 207.288 1157.31C200.952 1152.52 187.261 1145.17 176.114 1148.06C171.111 1149.36 167.295 1152.67 165.087 1157.64C164.511 1158.94 165.087 1160.46 166.383 1161.04C167.679 1161.61 169.191 1161.04 169.767 1159.74C171.363 1156.14 173.858 1153.95 177.398 1153.04C182.21 1151.8 188.545 1153.17 194.461 1155.76C194.461 1155.95 194.461 1156.14 194.497 1156.33C195.085 1159.44 188.077 1164.6 183.062 1166.56C177.314 1168.8 170.091 1169.51 162.711 1168.55C152.848 1167.27 142.001 1161.94 140.297 1150.87C141.197 1150.53 142.073 1150.15 142.949 1149.73C151.192 1145.78 157.432 1139 160.072 1131.16C162.351 1124.38 161.787 1117.35 158.44 1110.8C155.632 1105.32 150.736 1101.82 144.989 1101.21C139.673 1100.64 134.526 1102.57 131.502 1106.26C130.602 1107.35 130.758 1108.96 131.85 1109.87C132.942 1110.77 134.55 1110.61 135.45 1109.52C137.358 1107.18 140.897 1105.92 144.437 1106.31C146.777 1106.56 151.132 1107.79 153.868 1113.15C156.568 1118.43 157.036 1124.09 155.2 1129.53C153.004 1136.06 147.725 1141.75 140.717 1145.1C130.218 1150.14 117.415 1149.7 105.596 1143.89C98.6849 1140.48 93.2973 1134.78 87.5978 1128.73C84.0461 1124.97 80.3744 1121.07 76.3068 1117.83C72.0591 1114.44 65.4957 1109.89 57.5044 1109.6C49.7051 1109.3 43.7416 1113.35 37.9581 1117.25C32.4626 1120.95 27.291 1124.44 20.9316 1123.94C19.2997 1123.8 17.6799 1123.42 16 1122.95L16.048 1123.05Z" fill="white"/>
<path d="M16.048 1123.05C22.8154 1120.22 26.5351 1115.78 28.9229 1112.27C30.5427 1109.88 31.6346 1107.29 32.6785 1104.79C34.6224 1100.16 36.3022 1096.16 40.9579 1094.28C49.5371 1090.83 60.6602 1093.92 68.0155 1095.96C79.8945 1099.26 89.5536 1097.72 95.6011 1091.67C96.513 1092.83 97.461 1093.94 98.4089 1095.04C102.021 1099.26 105.44 1103.25 105.992 1108.52C106.076 1109.31 105.836 1110.11 105.428 1110.38C104.264 1111.18 103.952 1112.78 104.756 1113.94C105.248 1114.68 106.052 1115.06 106.88 1115.06C107.372 1115.06 107.876 1114.92 108.32 1114.62C110.312 1113.26 111.38 1110.71 111.092 1107.98C110.372 1101.11 106.268 1096.32 102.297 1091.69C99.3088 1088.21 96.477 1084.91 95.2171 1080.9C93.4173 1075.17 94.9052 1068.74 99.2848 1063.24C107.624 1052.78 125.071 1046.65 137.729 1054.17C140.501 1055.82 144.305 1058.82 146.285 1061.95C150.688 1071.52 158.56 1076.78 169.083 1077.17C169.995 1077.2 171.003 1077.1 171.975 1076.99C172.994 1076.88 174.866 1076.66 175.406 1076.94C175.394 1076.96 175.43 1077.13 175.43 1077.46C175.406 1079.26 175.262 1081.09 175.13 1082.84C174.686 1088.81 174.218 1094.98 177.794 1101.13C187.357 1117.62 207.779 1124.18 222.37 1124.79C223.078 1124.83 223.786 1124.84 224.506 1124.84C242.312 1124.84 264.331 1115.81 273.642 1097.82C274.29 1096.55 273.81 1095.01 272.55 1094.35C271.302 1093.7 269.754 1094.18 269.094 1095.45C260.383 1112.26 239.109 1120.34 222.574 1119.67C209.279 1119.11 190.729 1113.25 182.21 1098.56C179.438 1093.79 179.81 1088.89 180.23 1083.23C180.374 1081.39 180.506 1079.49 180.542 1077.54C180.566 1075.66 180.002 1074.18 178.862 1073.14C176.822 1071.29 173.822 1071.61 171.411 1071.89C170.595 1071.98 169.815 1072.06 169.275 1072.04C160.936 1071.73 154.9 1067.8 151.264 1060.43C151.204 1060.25 151.144 1060.07 151.048 1059.9C150.952 1059.74 150.856 1059.59 150.76 1059.43C150.748 1059.39 150.724 1059.36 150.712 1059.32C144.173 1044.42 148.865 1022.04 157.408 1011.97C165.279 1002.71 181.886 995.644 194.053 999.901C198.6 1001.49 202.308 998.434 205.284 995.968C206.16 995.235 206.999 994.549 207.767 994.032C213.347 990.34 222.046 989.27 229.918 991.314C235.869 992.866 244.04 996.81 249.284 1006.84C244.148 1016.34 244.976 1028.16 247.736 1036.87C247.7 1037.1 247.676 1037.33 247.7 1037.57C248.804 1048.26 239.793 1060.62 228.418 1064.02C217.031 1067.43 201.192 1063.39 196.68 1052.13C194.941 1047.81 195.025 1043.24 196.908 1038.9C199.392 1033.18 204.768 1028.27 211.295 1025.76C214.583 1024.49 221.146 1023.19 224.806 1025.1C225.97 1025.7 226.654 1026.55 226.966 1027.79C227.242 1028.87 227.098 1029.85 226.522 1030.77C225.466 1032.5 222.982 1034.02 220.198 1034.66C218.819 1034.97 217.955 1036.34 218.267 1037.72C218.578 1039.11 219.958 1039.97 221.326 1039.66C224.566 1038.92 228.766 1036.9 230.877 1033.45C232.173 1031.35 232.533 1028.94 231.921 1026.53C231.249 1023.88 229.606 1021.8 227.158 1020.53C221.578 1017.63 213.131 1019.53 209.447 1020.95C201.672 1023.94 195.229 1029.87 192.205 1036.83C189.757 1042.45 189.661 1048.4 191.929 1054.02C196.284 1064.86 208.367 1070.31 220.006 1070.31C223.414 1070.31 226.774 1069.84 229.894 1068.91C240.513 1065.73 249.152 1056.3 251.948 1046.12C258.943 1057.85 271.47 1067.55 285.833 1071.88C297.244 1075.32 318.398 1075.92 326.641 1062.88C328.285 1060.28 328.573 1057.54 328.837 1055.12C329.017 1053.43 329.185 1051.82 329.809 1050.51C330.517 1049.04 330.997 1048.94 333.421 1048.7C333.925 1048.65 334.453 1048.59 335.005 1048.52C342.636 1047.5 348.743 1042.76 351.767 1035.53C355.223 1027.27 353.987 1017.31 348.635 1010.19C342.984 1002.68 333.265 998.506 322.622 999.059C312.326 999.588 303.399 1004.54 298.732 1012.3C298 1013.51 298.396 1015.09 299.608 1015.82C300.819 1016.56 302.391 1016.16 303.123 1014.95C306.903 1008.64 314.294 1004.61 322.886 1004.18C331.705 1003.74 339.996 1007.21 344.544 1013.27C348.815 1018.97 349.799 1026.92 347.039 1033.55C344.712 1039.14 340.188 1042.65 334.321 1043.43C333.829 1043.49 333.361 1043.54 332.905 1043.59C330.205 1043.86 327.157 1044.17 325.189 1048.28C324.181 1050.39 323.953 1052.51 323.737 1054.57C323.509 1056.7 323.317 1058.54 322.31 1060.13C315.938 1070.19 298 1070.18 287.297 1066.96C271.326 1062.15 257.875 1050.19 253.028 1036.53C250.244 1028.7 249.008 1016.46 254.671 1007.74C258.547 1001.76 266.526 992.084 276.402 994.369C277.769 994.694 279.149 993.828 279.473 992.445C279.641 991.735 279.485 991.026 279.125 990.46C278.945 987.995 280.409 978.507 280.865 976.871C286.637 957.702 307.803 948.117 325.705 945.544C346.056 942.609 367.87 951.725 381.248 968.766C382.94 970.918 384.488 973.203 385.868 975.548C390.308 983.125 392.779 991.398 392.995 999.456C393.199 1007.04 390.872 1012.61 388.172 1019.07C387.608 1020.4 387.044 1021.78 386.48 1023.19C386.18 1023.86 385.904 1024.55 385.688 1025.25C385.268 1026.57 385.976 1027.99 387.296 1028.45C388.604 1028.91 390.044 1028.23 390.536 1026.94C390.752 1026.35 390.98 1025.77 391.208 1025.19C392.815 1021.78 395.875 1019.14 400.327 1017.36C410.478 1013.31 425.057 1014.9 432.304 1018.93C445.071 1026.02 454.994 1040.85 455.882 1054.19C456.23 1059.37 454.322 1062.13 451.67 1065.96C450.615 1067.5 449.511 1069.07 448.467 1070.97C447.783 1072.21 448.227 1073.78 449.463 1074.46C450.363 1074.97 451.442 1074.86 452.222 1074.28C454.25 1074.32 460.454 1076.64 461.762 1077.43C475.716 1085.95 485.915 1102.59 485.999 1117.01C486.059 1127.12 481.284 1135.48 472.189 1141.17C463.861 1146.39 453.986 1149.17 444.423 1149C440.271 1148.93 436.24 1148.05 431.968 1147.13C426.197 1145.88 420.245 1144.61 413.97 1145.43C404.479 1146.68 395.647 1150.32 387.116 1153.84C379.017 1157.19 370.629 1160.64 361.906 1161.9C356.759 1162.65 339.108 1164.33 328.513 1154.81C313.574 1141.37 311.055 1117.36 323.006 1102.34C330.985 1092.31 343.524 1085.41 356.531 1083.87C366.346 1082.7 375.969 1085.14 382.244 1090.37C390.008 1096.84 391.472 1108.03 385.508 1115.29C383.66 1117.55 381.212 1119.25 378.633 1120.08C373.401 1121.75 367.222 1120.08 362.242 1118.73C360.886 1118.36 359.47 1119.17 359.098 1120.53C358.726 1121.9 359.542 1123.31 360.898 1123.68C366.514 1125.2 373.521 1127.1 380.181 1124.96C383.732 1123.82 386.936 1121.6 389.444 1118.55C397.195 1109.11 395.431 1094.69 385.496 1086.42C378.153 1080.29 367.102 1077.43 355.907 1078.75C341.592 1080.45 327.781 1088.06 318.974 1099.13C309.195 1111.42 307.707 1128.37 313.766 1142.72C302.511 1139.64 288.221 1145.13 281.537 1151.91C270.702 1162.92 258.679 1173.71 241.497 1174C241.341 1174 241.173 1174 241.017 1174C229.114 1174 219.406 1166.57 209.999 1159.38C209.099 1158.68 208.187 1157.99 207.288 1157.31C200.952 1152.52 187.261 1145.17 176.114 1148.06C171.111 1149.36 167.295 1152.67 165.087 1157.64C164.511 1158.94 165.087 1160.46 166.383 1161.04C167.679 1161.61 169.191 1161.04 169.767 1159.74C171.363 1156.14 173.858 1153.95 177.398 1153.04C182.21 1151.8 188.545 1153.17 194.461 1155.76C194.461 1155.95 194.461 1156.14 194.497 1156.33C195.085 1159.44 188.077 1164.6 183.062 1166.56C177.314 1168.8 170.091 1169.51 162.711 1168.55C152.848 1167.27 142.001 1161.94 140.297 1150.87C141.197 1150.53 142.073 1150.15 142.949 1149.73C151.192 1145.78 157.432 1139 160.072 1131.16C162.351 1124.38 161.787 1117.35 158.44 1110.8C155.632 1105.32 150.736 1101.82 144.989 1101.21C139.673 1100.64 134.526 1102.57 131.502 1106.26C130.602 1107.35 130.758 1108.96 131.85 1109.87C132.942 1110.77 134.55 1110.61 135.45 1109.52C137.358 1107.18 140.897 1105.92 144.437 1106.31C146.777 1106.56 151.132 1107.79 153.868 1113.15C156.568 1118.43 157.036 1124.09 155.2 1129.53C153.004 1136.06 147.725 1141.75 140.717 1145.1C130.218 1150.14 117.415 1149.7 105.596 1143.89C98.6849 1140.48 93.2973 1134.78 87.5978 1128.73C84.0461 1124.97 80.3744 1121.07 76.3068 1117.83C72.0591 1114.44 65.4957 1109.89 57.5044 1109.6C49.7051 1109.3 43.7416 1113.35 37.9581 1117.25C32.4626 1120.95 27.291 1124.44 20.9316 1123.94C19.2997 1123.8 17.6799 1123.42 16 1122.95L16.048 1123.05Z" stroke="#85D0F9" stroke-width="16" mask="url(#path-32-outside-1_153_2)"/>
<mask id="path-33-outside-2_153_2" maskUnits="userSpaceOnUse" x="450" y="936" width="494" height="246" fill="black">
<rect fill="white" x="450" y="936" width="494" height="246"/>
<path d="M927.952 1123.05C921.185 1120.22 917.465 1115.78 915.077 1112.27C913.457 1109.88 912.365 1107.29 911.321 1104.79C909.378 1100.16 907.698 1096.16 903.042 1094.28C894.463 1090.83 883.34 1093.92 875.984 1095.96C864.106 1099.26 854.446 1097.72 848.399 1091.67C847.487 1092.83 846.539 1093.94 845.591 1095.04C841.979 1099.26 838.56 1103.25 838.008 1108.52C837.924 1109.31 838.164 1110.11 838.572 1110.38C839.736 1111.18 840.048 1112.78 839.244 1113.94C838.752 1114.68 837.948 1115.06 837.12 1115.06C836.628 1115.06 836.124 1114.92 835.68 1114.62C833.688 1113.26 832.62 1110.71 832.908 1107.98C833.628 1101.11 837.732 1096.32 841.703 1091.69C844.691 1088.21 847.523 1084.91 848.783 1080.9C850.583 1075.17 849.095 1068.74 844.715 1063.24C836.376 1052.78 818.929 1046.65 806.271 1054.17C803.499 1055.82 799.695 1058.82 797.715 1061.95C793.312 1071.52 785.44 1076.78 774.917 1077.17C774.005 1077.2 772.997 1077.1 772.025 1076.99C771.006 1076.88 769.134 1076.66 768.594 1076.94C768.606 1076.96 768.57 1077.13 768.57 1077.46C768.594 1079.26 768.738 1081.09 768.87 1082.84C769.314 1088.81 769.782 1094.98 766.206 1101.13C756.643 1117.62 736.221 1124.18 721.63 1124.79C720.922 1124.83 720.214 1124.84 719.494 1124.84C701.688 1124.84 679.669 1115.81 670.358 1097.82C669.71 1096.55 670.19 1095.01 671.45 1094.35C672.698 1093.7 674.246 1094.18 674.906 1095.45C683.617 1112.26 704.891 1120.34 721.426 1119.67C734.721 1119.11 753.271 1113.25 761.79 1098.56C764.562 1093.79 764.19 1088.89 763.77 1083.23C763.626 1081.39 763.494 1079.49 763.458 1077.54C763.434 1075.66 763.998 1074.18 765.138 1073.14C767.178 1071.29 770.178 1071.61 772.589 1071.89C773.405 1071.98 774.185 1072.06 774.725 1072.04C783.064 1071.73 789.1 1067.8 792.736 1060.43C792.796 1060.25 792.856 1060.07 792.952 1059.9C793.048 1059.74 793.144 1059.59 793.24 1059.43C793.252 1059.39 793.276 1059.36 793.288 1059.32C799.827 1044.42 795.135 1022.04 786.592 1011.97C778.721 1002.71 762.114 995.644 749.947 999.901C745.4 1001.49 741.692 998.434 738.716 995.968C737.84 995.235 737.001 994.549 736.233 994.032C730.653 990.34 721.954 989.27 714.082 991.314C708.131 992.866 699.96 996.81 694.716 1006.84C699.852 1016.34 699.024 1028.16 696.264 1036.87C696.3 1037.1 696.324 1037.33 696.3 1037.57C695.196 1048.26 704.207 1060.62 715.582 1064.02C726.969 1067.43 742.808 1063.39 747.32 1052.13C749.059 1047.81 748.975 1043.24 747.092 1038.9C744.608 1033.18 739.232 1028.27 732.705 1025.76C729.417 1024.49 722.854 1023.19 719.194 1025.1C718.03 1025.7 717.346 1026.55 717.034 1027.79C716.758 1028.87 716.902 1029.85 717.478 1030.77C718.534 1032.5 721.018 1034.02 723.802 1034.66C725.181 1034.97 726.045 1036.34 725.733 1037.72C725.422 1039.11 724.042 1039.97 722.674 1039.66C719.434 1038.92 715.234 1036.9 713.123 1033.45C711.827 1031.35 711.467 1028.94 712.079 1026.53C712.751 1023.88 714.394 1021.8 716.842 1020.53C722.422 1017.63 730.869 1019.53 734.553 1020.95C742.328 1023.94 748.771 1029.87 751.795 1036.83C754.243 1042.45 754.339 1048.4 752.071 1054.02C747.716 1064.86 735.633 1070.31 723.994 1070.31C720.586 1070.31 717.226 1069.84 714.106 1068.91C703.487 1065.73 694.848 1056.3 692.052 1046.12C685.057 1057.85 672.53 1067.55 658.167 1071.88C646.756 1075.32 625.602 1075.92 617.359 1062.88C615.715 1060.28 615.427 1057.54 615.163 1055.12C614.983 1053.43 614.815 1051.82 614.191 1050.51C613.483 1049.04 613.003 1048.94 610.579 1048.7C610.075 1048.65 609.547 1048.59 608.995 1048.52C601.364 1047.5 595.257 1042.76 592.233 1035.53C588.777 1027.27 590.013 1017.31 595.365 1010.19C601.016 1002.68 610.735 998.506 621.378 999.059C631.674 999.588 640.601 1004.54 645.268 1012.3C646 1013.51 645.604 1015.09 644.392 1015.82C643.181 1016.56 641.609 1016.16 640.877 1014.95C637.097 1008.64 629.706 1004.61 621.114 1004.18C612.295 1003.74 604.004 1007.21 599.456 1013.27C595.185 1018.97 594.201 1026.92 596.961 1033.55C599.288 1039.14 603.812 1042.65 609.679 1043.43C610.171 1043.49 610.639 1043.54 611.095 1043.59C613.795 1043.86 616.843 1044.17 618.811 1048.28C619.819 1050.39 620.047 1052.51 620.263 1054.57C620.491 1056.7 620.683 1058.54 621.69 1060.13C628.062 1070.19 646 1070.18 656.703 1066.96C672.674 1062.15 686.125 1050.19 690.972 1036.53C693.756 1028.7 694.992 1016.46 689.329 1007.74C685.453 1001.76 677.474 992.084 667.598 994.369C666.231 994.694 664.851 993.828 664.527 992.445C664.359 991.735 664.515 991.026 664.875 990.46C665.055 987.995 663.591 978.507 663.135 976.871C657.363 957.702 636.197 948.117 618.295 945.544C597.944 942.609 576.13 951.725 562.752 968.766C561.06 970.918 559.512 973.203 558.132 975.548C553.692 983.125 551.221 991.398 551.005 999.456C550.801 1007.04 553.128 1012.61 555.828 1019.07C556.392 1020.4 556.956 1021.78 557.52 1023.19C557.82 1023.86 558.096 1024.55 558.312 1025.25C558.732 1026.57 558.024 1027.99 556.704 1028.45C555.396 1028.91 553.956 1028.23 553.464 1026.94C553.248 1026.35 553.02 1025.77 552.792 1025.19C551.185 1021.78 548.125 1019.14 543.673 1017.36C533.522 1013.31 518.943 1014.9 511.696 1018.93C498.929 1026.02 489.006 1040.85 488.118 1054.19C487.77 1059.37 489.678 1062.13 492.33 1065.96C493.385 1067.5 494.489 1069.07 495.533 1070.97C496.217 1072.21 495.773 1073.78 494.537 1074.46C493.637 1074.97 492.558 1074.86 491.778 1074.28C489.75 1074.32 483.546 1076.64 482.238 1077.43C468.284 1085.95 458.085 1102.59 458.001 1117.01C457.941 1127.12 462.716 1135.48 471.811 1141.17C480.139 1146.39 490.014 1149.17 499.577 1149C503.729 1148.93 507.76 1148.05 512.032 1147.13C517.803 1145.88 523.755 1144.61 530.03 1145.43C539.521 1146.68 548.353 1150.32 556.884 1153.84C564.983 1157.19 573.371 1160.64 582.094 1161.9C587.241 1162.65 604.892 1164.33 615.487 1154.81C630.426 1141.37 632.945 1117.36 620.994 1102.34C613.015 1092.31 600.476 1085.41 587.469 1083.87C577.654 1082.7 568.031 1085.14 561.756 1090.37C553.992 1096.84 552.528 1108.03 558.492 1115.29C560.34 1117.55 562.788 1119.25 565.367 1120.08C570.599 1121.75 576.778 1120.08 581.758 1118.73C583.114 1118.36 584.53 1119.17 584.902 1120.53C585.274 1121.9 584.458 1123.31 583.102 1123.68C577.486 1125.2 570.479 1127.1 563.819 1124.96C560.268 1123.82 557.064 1121.6 554.556 1118.55C546.805 1109.11 548.569 1094.69 558.504 1086.42C565.847 1080.29 576.898 1077.43 588.093 1078.75C602.408 1080.45 616.219 1088.06 625.026 1099.13C634.805 1111.42 636.293 1128.37 630.234 1142.72C641.489 1139.64 655.779 1145.13 662.463 1151.91C673.298 1162.92 685.321 1173.71 702.503 1174C702.659 1174 702.827 1174 702.983 1174C714.886 1174 724.594 1166.57 734.001 1159.38C734.901 1158.68 735.813 1157.99 736.712 1157.31C743.048 1152.52 756.739 1145.17 767.886 1148.06C772.889 1149.36 776.705 1152.67 778.913 1157.64C779.489 1158.94 778.913 1160.46 777.617 1161.04C776.321 1161.61 774.809 1161.04 774.233 1159.74C772.637 1156.14 770.142 1153.95 766.602 1153.04C761.79 1151.8 755.455 1153.17 749.539 1155.76C749.539 1155.95 749.539 1156.14 749.503 1156.33C748.915 1159.44 755.923 1164.6 760.938 1166.56C766.686 1168.8 773.909 1169.51 781.289 1168.55C791.152 1167.27 801.999 1161.94 803.703 1150.87C802.803 1150.53 801.927 1150.15 801.051 1149.73C792.808 1145.78 786.568 1139 783.928 1131.16C781.649 1124.38 782.213 1117.35 785.56 1110.8C788.368 1105.32 793.264 1101.82 799.011 1101.21C804.327 1100.64 809.474 1102.57 812.498 1106.26C813.398 1107.35 813.242 1108.96 812.15 1109.87C811.058 1110.77 809.45 1110.61 808.55 1109.52C806.642 1107.18 803.103 1105.92 799.563 1106.31C797.223 1106.56 792.868 1107.79 790.132 1113.15C787.432 1118.43 786.964 1124.09 788.8 1129.53C790.996 1136.06 796.275 1141.75 803.283 1145.1C813.782 1150.14 826.585 1149.7 838.404 1143.89C845.315 1140.48 850.703 1134.78 856.402 1128.73C859.954 1124.97 863.626 1121.07 867.693 1117.83C871.941 1114.44 878.504 1109.89 886.496 1109.6C894.295 1109.3 900.258 1113.35 906.042 1117.25C911.537 1120.95 916.709 1124.44 923.068 1123.94C924.7 1123.8 926.32 1123.42 928 1122.95L927.952 1123.05Z"/>
</mask>
<path d="M927.952 1123.05C921.185 1120.22 917.465 1115.78 915.077 1112.27C913.457 1109.88 912.365 1107.29 911.321 1104.79C909.378 1100.16 907.698 1096.16 903.042 1094.28C894.463 1090.83 883.34 1093.92 875.984 1095.96C864.106 1099.26 854.446 1097.72 848.399 1091.67C847.487 1092.83 846.539 1093.94 845.591 1095.04C841.979 1099.26 838.56 1103.25 838.008 1108.52C837.924 1109.31 838.164 1110.11 838.572 1110.38C839.736 1111.18 840.048 1112.78 839.244 1113.94C838.752 1114.68 837.948 1115.06 837.12 1115.06C836.628 1115.06 836.124 1114.92 835.68 1114.62C833.688 1113.26 832.62 1110.71 832.908 1107.98C833.628 1101.11 837.732 1096.32 841.703 1091.69C844.691 1088.21 847.523 1084.91 848.783 1080.9C850.583 1075.17 849.095 1068.74 844.715 1063.24C836.376 1052.78 818.929 1046.65 806.271 1054.17C803.499 1055.82 799.695 1058.82 797.715 1061.95C793.312 1071.52 785.44 1076.78 774.917 1077.17C774.005 1077.2 772.997 1077.1 772.025 1076.99C771.006 1076.88 769.134 1076.66 768.594 1076.94C768.606 1076.96 768.57 1077.13 768.57 1077.46C768.594 1079.26 768.738 1081.09 768.87 1082.84C769.314 1088.81 769.782 1094.98 766.206 1101.13C756.643 1117.62 736.221 1124.18 721.63 1124.79C720.922 1124.83 720.214 1124.84 719.494 1124.84C701.688 1124.84 679.669 1115.81 670.358 1097.82C669.71 1096.55 670.19 1095.01 671.45 1094.35C672.698 1093.7 674.246 1094.18 674.906 1095.45C683.617 1112.26 704.891 1120.34 721.426 1119.67C734.721 1119.11 753.271 1113.25 761.79 1098.56C764.562 1093.79 764.19 1088.89 763.77 1083.23C763.626 1081.39 763.494 1079.49 763.458 1077.54C763.434 1075.66 763.998 1074.18 765.138 1073.14C767.178 1071.29 770.178 1071.61 772.589 1071.89C773.405 1071.98 774.185 1072.06 774.725 1072.04C783.064 1071.73 789.1 1067.8 792.736 1060.43C792.796 1060.25 792.856 1060.07 792.952 1059.9C793.048 1059.74 793.144 1059.59 793.24 1059.43C793.252 1059.39 793.276 1059.36 793.288 1059.32C799.827 1044.42 795.135 1022.04 786.592 1011.97C778.721 1002.71 762.114 995.644 749.947 999.901C745.4 1001.49 741.692 998.434 738.716 995.968C737.84 995.235 737.001 994.549 736.233 994.032C730.653 990.34 721.954 989.27 714.082 991.314C708.131 992.866 699.96 996.81 694.716 1006.84C699.852 1016.34 699.024 1028.16 696.264 1036.87C696.3 1037.1 696.324 1037.33 696.3 1037.57C695.196 1048.26 704.207 1060.62 715.582 1064.02C726.969 1067.43 742.808 1063.39 747.32 1052.13C749.059 1047.81 748.975 1043.24 747.092 1038.9C744.608 1033.18 739.232 1028.27 732.705 1025.76C729.417 1024.49 722.854 1023.19 719.194 1025.1C718.03 1025.7 717.346 1026.55 717.034 1027.79C716.758 1028.87 716.902 1029.85 717.478 1030.77C718.534 1032.5 721.018 1034.02 723.802 1034.66C725.181 1034.97 726.045 1036.34 725.733 1037.72C725.422 1039.11 724.042 1039.97 722.674 1039.66C719.434 1038.92 715.234 1036.9 713.123 1033.45C711.827 1031.35 711.467 1028.94 712.079 1026.53C712.751 1023.88 714.394 1021.8 716.842 1020.53C722.422 1017.63 730.869 1019.53 734.553 1020.95C742.328 1023.94 748.771 1029.87 751.795 1036.83C754.243 1042.45 754.339 1048.4 752.071 1054.02C747.716 1064.86 735.633 1070.31 723.994 1070.31C720.586 1070.31 717.226 1069.84 714.106 1068.91C703.487 1065.73 694.848 1056.3 692.052 1046.12C685.057 1057.85 672.53 1067.55 658.167 1071.88C646.756 1075.32 625.602 1075.92 617.359 1062.88C615.715 1060.28 615.427 1057.54 615.163 1055.12C614.983 1053.43 614.815 1051.82 614.191 1050.51C613.483 1049.04 613.003 1048.94 610.579 1048.7C610.075 1048.65 609.547 1048.59 608.995 1048.52C601.364 1047.5 595.257 1042.76 592.233 1035.53C588.777 1027.27 590.013 1017.31 595.365 1010.19C601.016 1002.68 610.735 998.506 621.378 999.059C631.674 999.588 640.601 1004.54 645.268 1012.3C646 1013.51 645.604 1015.09 644.392 1015.82C643.181 1016.56 641.609 1016.16 640.877 1014.95C637.097 1008.64 629.706 1004.61 621.114 1004.18C612.295 1003.74 604.004 1007.21 599.456 1013.27C595.185 1018.97 594.201 1026.92 596.961 1033.55C599.288 1039.14 603.812 1042.65 609.679 1043.43C610.171 1043.49 610.639 1043.54 611.095 1043.59C613.795 1043.86 616.843 1044.17 618.811 1048.28C619.819 1050.39 620.047 1052.51 620.263 1054.57C620.491 1056.7 620.683 1058.54 621.69 1060.13C628.062 1070.19 646 1070.18 656.703 1066.96C672.674 1062.15 686.125 1050.19 690.972 1036.53C693.756 1028.7 694.992 1016.46 689.329 1007.74C685.453 1001.76 677.474 992.084 667.598 994.369C666.231 994.694 664.851 993.828 664.527 992.445C664.359 991.735 664.515 991.026 664.875 990.46C665.055 987.995 663.591 978.507 663.135 976.871C657.363 957.702 636.197 948.117 618.295 945.544C597.944 942.609 576.13 951.725 562.752 968.766C561.06 970.918 559.512 973.203 558.132 975.548C553.692 983.125 551.221 991.398 551.005 999.456C550.801 1007.04 553.128 1012.61 555.828 1019.07C556.392 1020.4 556.956 1021.78 557.52 1023.19C557.82 1023.86 558.096 1024.55 558.312 1025.25C558.732 1026.57 558.024 1027.99 556.704 1028.45C555.396 1028.91 553.956 1028.23 553.464 1026.94C553.248 1026.35 553.02 1025.77 552.792 1025.19C551.185 1021.78 548.125 1019.14 543.673 1017.36C533.522 1013.31 518.943 1014.9 511.696 1018.93C498.929 1026.02 489.006 1040.85 488.118 1054.19C487.77 1059.37 489.678 1062.13 492.33 1065.96C493.385 1067.5 494.489 1069.07 495.533 1070.97C496.217 1072.21 495.773 1073.78 494.537 1074.46C493.637 1074.97 492.558 1074.86 491.778 1074.28C489.75 1074.32 483.546 1076.64 482.238 1077.43C468.284 1085.95 458.085 1102.59 458.001 1117.01C457.941 1127.12 462.716 1135.48 471.811 1141.17C480.139 1146.39 490.014 1149.17 499.577 1149C503.729 1148.93 507.76 1148.05 512.032 1147.13C517.803 1145.88 523.755 1144.61 530.03 1145.43C539.521 1146.68 548.353 1150.32 556.884 1153.84C564.983 1157.19 573.371 1160.64 582.094 1161.9C587.241 1162.65 604.892 1164.33 615.487 1154.81C630.426 1141.37 632.945 1117.36 620.994 1102.34C613.015 1092.31 600.476 1085.41 587.469 1083.87C577.654 1082.7 568.031 1085.14 561.756 1090.37C553.992 1096.84 552.528 1108.03 558.492 1115.29C560.34 1117.55 562.788 1119.25 565.367 1120.08C570.599 1121.75 576.778 1120.08 581.758 1118.73C583.114 1118.36 584.53 1119.17 584.902 1120.53C585.274 1121.9 584.458 1123.31 583.102 1123.68C577.486 1125.2 570.479 1127.1 563.819 1124.96C560.268 1123.82 557.064 1121.6 554.556 1118.55C546.805 1109.11 548.569 1094.69 558.504 1086.42C565.847 1080.29 576.898 1077.43 588.093 1078.75C602.408 1080.45 616.219 1088.06 625.026 1099.13C634.805 1111.42 636.293 1128.37 630.234 1142.72C641.489 1139.64 655.779 1145.13 662.463 1151.91C673.298 1162.92 685.321 1173.71 702.503 1174C702.659 1174 702.827 1174 702.983 1174C714.886 1174 724.594 1166.57 734.001 1159.38C734.901 1158.68 735.813 1157.99 736.712 1157.31C743.048 1152.52 756.739 1145.17 767.886 1148.06C772.889 1149.36 776.705 1152.67 778.913 1157.64C779.489 1158.94 778.913 1160.46 777.617 1161.04C776.321 1161.61 774.809 1161.04 774.233 1159.74C772.637 1156.14 770.142 1153.95 766.602 1153.04C761.79 1151.8 755.455 1153.17 749.539 1155.76C749.539 1155.95 749.539 1156.14 749.503 1156.33C748.915 1159.44 755.923 1164.6 760.938 1166.56C766.686 1168.8 773.909 1169.51 781.289 1168.55C791.152 1167.27 801.999 1161.94 803.703 1150.87C802.803 1150.53 801.927 1150.15 801.051 1149.73C792.808 1145.78 786.568 1139 783.928 1131.16C781.649 1124.38 782.213 1117.35 785.56 1110.8C788.368 1105.32 793.264 1101.82 799.011 1101.21C804.327 1100.64 809.474 1102.57 812.498 1106.26C813.398 1107.35 813.242 1108.96 812.15 1109.87C811.058 1110.77 809.45 1110.61 808.55 1109.52C806.642 1107.18 803.103 1105.92 799.563 1106.31C797.223 1106.56 792.868 1107.79 790.132 1113.15C787.432 1118.43 786.964 1124.09 788.8 1129.53C790.996 1136.06 796.275 1141.75 803.283 1145.1C813.782 1150.14 826.585 1149.7 838.404 1143.89C845.315 1140.48 850.703 1134.78 856.402 1128.73C859.954 1124.97 863.626 1121.07 867.693 1117.83C871.941 1114.44 878.504 1109.89 886.496 1109.6C894.295 1109.3 900.258 1113.35 906.042 1117.25C911.537 1120.95 916.709 1124.44 923.068 1123.94C924.7 1123.8 926.32 1123.42 928 1122.95L927.952 1123.05Z" fill="white"/>
<path d="M927.952 1123.05C921.185 1120.22 917.465 1115.78 915.077 1112.27C913.457 1109.88 912.365 1107.29 911.321 1104.79C909.378 1100.16 907.698 1096.16 903.042 1094.28C894.463 1090.83 883.34 1093.92 875.984 1095.96C864.106 1099.26 854.446 1097.72 848.399 1091.67C847.487 1092.83 846.539 1093.94 845.591 1095.04C841.979 1099.26 838.56 1103.25 838.008 1108.52C837.924 1109.31 838.164 1110.11 838.572 1110.38C839.736 1111.18 840.048 1112.78 839.244 1113.94C838.752 1114.68 837.948 1115.06 837.12 1115.06C836.628 1115.06 836.124 1114.92 835.68 1114.62C833.688 1113.26 832.62 1110.71 832.908 1107.98C833.628 1101.11 837.732 1096.32 841.703 1091.69C844.691 1088.21 847.523 1084.91 848.783 1080.9C850.583 1075.17 849.095 1068.74 844.715 1063.24C836.376 1052.78 818.929 1046.65 806.271 1054.17C803.499 1055.82 799.695 1058.82 797.715 1061.95C793.312 1071.52 785.44 1076.78 774.917 1077.17C774.005 1077.2 772.997 1077.1 772.025 1076.99C771.006 1076.88 769.134 1076.66 768.594 1076.94C768.606 1076.96 768.57 1077.13 768.57 1077.46C768.594 1079.26 768.738 1081.09 768.87 1082.84C769.314 1088.81 769.782 1094.98 766.206 1101.13C756.643 1117.62 736.221 1124.18 721.63 1124.79C720.922 1124.83 720.214 1124.84 719.494 1124.84C701.688 1124.84 679.669 1115.81 670.358 1097.82C669.71 1096.55 670.19 1095.01 671.45 1094.35C672.698 1093.7 674.246 1094.18 674.906 1095.45C683.617 1112.26 704.891 1120.34 721.426 1119.67C734.721 1119.11 753.271 1113.25 761.79 1098.56C764.562 1093.79 764.19 1088.89 763.77 1083.23C763.626 1081.39 763.494 1079.49 763.458 1077.54C763.434 1075.66 763.998 1074.18 765.138 1073.14C767.178 1071.29 770.178 1071.61 772.589 1071.89C773.405 1071.98 774.185 1072.06 774.725 1072.04C783.064 1071.73 789.1 1067.8 792.736 1060.43C792.796 1060.25 792.856 1060.07 792.952 1059.9C793.048 1059.74 793.144 1059.59 793.24 1059.43C793.252 1059.39 793.276 1059.36 793.288 1059.32C799.827 1044.42 795.135 1022.04 786.592 1011.97C778.721 1002.71 762.114 995.644 749.947 999.901C745.4 1001.49 741.692 998.434 738.716 995.968C737.84 995.235 737.001 994.549 736.233 994.032C730.653 990.34 721.954 989.27 714.082 991.314C708.131 992.866 699.96 996.81 694.716 1006.84C699.852 1016.34 699.024 1028.16 696.264 1036.87C696.3 1037.1 696.324 1037.33 696.3 1037.57C695.196 1048.26 704.207 1060.62 715.582 1064.02C726.969 1067.43 742.808 1063.39 747.32 1052.13C749.059 1047.81 748.975 1043.24 747.092 1038.9C744.608 1033.18 739.232 1028.27 732.705 1025.76C729.417 1024.49 722.854 1023.19 719.194 1025.1C718.03 1025.7 717.346 1026.55 717.034 1027.79C716.758 1028.87 716.902 1029.85 717.478 1030.77C718.534 1032.5 721.018 1034.02 723.802 1034.66C725.181 1034.97 726.045 1036.34 725.733 1037.72C725.422 1039.11 724.042 1039.97 722.674 1039.66C719.434 1038.92 715.234 1036.9 713.123 1033.45C711.827 1031.35 711.467 1028.94 712.079 1026.53C712.751 1023.88 714.394 1021.8 716.842 1020.53C722.422 1017.63 730.869 1019.53 734.553 1020.95C742.328 1023.94 748.771 1029.87 751.795 1036.83C754.243 1042.45 754.339 1048.4 752.071 1054.02C747.716 1064.86 735.633 1070.31 723.994 1070.31C720.586 1070.31 717.226 1069.84 714.106 1068.91C703.487 1065.73 694.848 1056.3 692.052 1046.12C685.057 1057.85 672.53 1067.55 658.167 1071.88C646.756 1075.32 625.602 1075.92 617.359 1062.88C615.715 1060.28 615.427 1057.54 615.163 1055.12C614.983 1053.43 614.815 1051.82 614.191 1050.51C613.483 1049.04 613.003 1048.94 610.579 1048.7C610.075 1048.65 609.547 1048.59 608.995 1048.52C601.364 1047.5 595.257 1042.76 592.233 1035.53C588.777 1027.27 590.013 1017.31 595.365 1010.19C601.016 1002.68 610.735 998.506 621.378 999.059C631.674 999.588 640.601 1004.54 645.268 1012.3C646 1013.51 645.604 1015.09 644.392 1015.82C643.181 1016.56 641.609 1016.16 640.877 1014.95C637.097 1008.64 629.706 1004.61 621.114 1004.18C612.295 1003.74 604.004 1007.21 599.456 1013.27C595.185 1018.97 594.201 1026.92 596.961 1033.55C599.288 1039.14 603.812 1042.65 609.679 1043.43C610.171 1043.49 610.639 1043.54 611.095 1043.59C613.795 1043.86 616.843 1044.17 618.811 1048.28C619.819 1050.39 620.047 1052.51 620.263 1054.57C620.491 1056.7 620.683 1058.54 621.69 1060.13C628.062 1070.19 646 1070.18 656.703 1066.96C672.674 1062.15 686.125 1050.19 690.972 1036.53C693.756 1028.7 694.992 1016.46 689.329 1007.74C685.453 1001.76 677.474 992.084 667.598 994.369C666.231 994.694 664.851 993.828 664.527 992.445C664.359 991.735 664.515 991.026 664.875 990.46C665.055 987.995 663.591 978.507 663.135 976.871C657.363 957.702 636.197 948.117 618.295 945.544C597.944 942.609 576.13 951.725 562.752 968.766C561.06 970.918 559.512 973.203 558.132 975.548C553.692 983.125 551.221 991.398 551.005 999.456C550.801 1007.04 553.128 1012.61 555.828 1019.07C556.392 1020.4 556.956 1021.78 557.52 1023.19C557.82 1023.86 558.096 1024.55 558.312 1025.25C558.732 1026.57 558.024 1027.99 556.704 1028.45C555.396 1028.91 553.956 1028.23 553.464 1026.94C553.248 1026.35 553.02 1025.77 552.792 1025.19C551.185 1021.78 548.125 1019.14 543.673 1017.36C533.522 1013.31 518.943 1014.9 511.696 1018.93C498.929 1026.02 489.006 1040.85 488.118 1054.19C487.77 1059.37 489.678 1062.13 492.33 1065.96C493.385 1067.5 494.489 1069.07 495.533 1070.97C496.217 1072.21 495.773 1073.78 494.537 1074.46C493.637 1074.97 492.558 1074.86 491.778 1074.28C489.75 1074.32 483.546 1076.64 482.238 1077.43C468.284 1085.95 458.085 1102.59 458.001 1117.01C457.941 1127.12 462.716 1135.48 471.811 1141.17C480.139 1146.39 490.014 1149.17 499.577 1149C503.729 1148.93 507.76 1148.05 512.032 1147.13C517.803 1145.88 523.755 1144.61 530.03 1145.43C539.521 1146.68 548.353 1150.32 556.884 1153.84C564.983 1157.19 573.371 1160.64 582.094 1161.9C587.241 1162.65 604.892 1164.33 615.487 1154.81C630.426 1141.37 632.945 1117.36 620.994 1102.34C613.015 1092.31 600.476 1085.41 587.469 1083.87C577.654 1082.7 568.031 1085.14 561.756 1090.37C553.992 1096.84 552.528 1108.03 558.492 1115.29C560.34 1117.55 562.788 1119.25 565.367 1120.08C570.599 1121.75 576.778 1120.08 581.758 1118.73C583.114 1118.36 584.53 1119.17 584.902 1120.53C585.274 1121.9 584.458 1123.31 583.102 1123.68C577.486 1125.2 570.479 1127.1 563.819 1124.96C560.268 1123.82 557.064 1121.6 554.556 1118.55C546.805 1109.11 548.569 1094.69 558.504 1086.42C565.847 1080.29 576.898 1077.43 588.093 1078.75C602.408 1080.45 616.219 1088.06 625.026 1099.13C634.805 1111.42 636.293 1128.37 630.234 1142.72C641.489 1139.64 655.779 1145.13 662.463 1151.91C673.298 1162.92 685.321 1173.71 702.503 1174C702.659 1174 702.827 1174 702.983 1174C714.886 1174 724.594 1166.57 734.001 1159.38C734.901 1158.68 735.813 1157.99 736.712 1157.31C743.048 1152.52 756.739 1145.17 767.886 1148.06C772.889 1149.36 776.705 1152.67 778.913 1157.64C779.489 1158.94 778.913 1160.46 777.617 1161.04C776.321 1161.61 774.809 1161.04 774.233 1159.74C772.637 1156.14 770.142 1153.95 766.602 1153.04C761.79 1151.8 755.455 1153.17 749.539 1155.76C749.539 1155.95 749.539 1156.14 749.503 1156.33C748.915 1159.44 755.923 1164.6 760.938 1166.56C766.686 1168.8 773.909 1169.51 781.289 1168.55C791.152 1167.27 801.999 1161.94 803.703 1150.87C802.803 1150.53 801.927 1150.15 801.051 1149.73C792.808 1145.78 786.568 1139 783.928 1131.16C781.649 1124.38 782.213 1117.35 785.56 1110.8C788.368 1105.32 793.264 1101.82 799.011 1101.21C804.327 1100.64 809.474 1102.57 812.498 1106.26C813.398 1107.35 813.242 1108.96 812.15 1109.87C811.058 1110.77 809.45 1110.61 808.55 1109.52C806.642 1107.18 803.103 1105.92 799.563 1106.31C797.223 1106.56 792.868 1107.79 790.132 1113.15C787.432 1118.43 786.964 1124.09 788.8 1129.53C790.996 1136.06 796.275 1141.75 803.283 1145.1C813.782 1150.14 826.585 1149.7 838.404 1143.89C845.315 1140.48 850.703 1134.78 856.402 1128.73C859.954 1124.97 863.626 1121.07 867.693 1117.83C871.941 1114.44 878.504 1109.89 886.496 1109.6C894.295 1109.3 900.258 1113.35 906.042 1117.25C911.537 1120.95 916.709 1124.44 923.068 1123.94C924.7 1123.8 926.32 1123.42 928 1122.95L927.952 1123.05Z" stroke="#85D0F9" stroke-width="16" mask="url(#path-33-outside-2_153_2)"/>
</svg>
