<svg width="38" height="36" viewBox="0 0 38 36" fill="none" xmlns="http://www.w3.org/2000/svg">
<path d="M29.9387 6.66393C26.9367 4.72193 23.7377 3.09993 20.4087 1.79793C17.4937 0.657933 14.3247 -0.306068 11.1597 0.0909318C8.25969 0.453932 5.84268 2.05794 4.57568 4.60994C3.73468 5.50694 3.21869 6.67492 2.81069 7.86992C2.79069 7.90692 2.77268 7.94594 2.75668 7.98794C1.57568 11.0879 0.613685 14.3319 0.128685 17.6199C-0.333315 20.7549 0.437682 23.4939 2.61968 25.8269C4.75668 28.1119 7.64767 29.6969 10.3847 31.1459C12.6787 32.3609 15.1087 33.4349 17.6497 34.0239C19.7037 34.9879 22.0327 35.1199 24.2947 35.0529C24.6207 35.0559 24.9457 35.0439 25.2697 35.0139C25.3457 35.0099 25.4227 35.0069 25.4987 35.0029C28.2757 34.8569 30.4177 33.5129 32.2337 31.6029C32.8357 31.0419 33.3747 30.4079 33.8347 29.7279C34.6557 28.5149 35.2077 27.1709 35.6057 25.7719C36.3897 23.7889 37.0567 21.7569 37.5547 19.6889C37.8797 18.3389 38.0497 16.9389 37.5887 15.5979C37.4237 15.1189 37.2037 14.6699 36.9467 14.2419C36.9127 14.1409 36.8787 14.0389 36.8417 13.9389C35.6157 10.6629 32.7767 8.49993 29.9387 6.66393Z" fill="#161616"/>
<path d="M32.8267 11.5129C31.7277 10.5799 30.5746 9.70687 29.3846 8.89287C28.9356 8.58587 28.4777 8.29186 28.0167 8.00286C25.8277 6.41986 23.5247 4.99386 21.1197 3.78286C17.4377 1.92886 13.0977 0.735888 9.11066 2.36889C8.98566 2.41989 8.88267 2.48887 8.79767 2.56887C8.76567 2.58187 8.73366 2.59387 8.70166 2.60787C7.44466 3.16987 6.44266 4.35188 6.43366 5.77788C6.42466 7.25388 7.37467 8.67489 8.21067 9.86889C8.56367 10.5549 8.99365 11.2089 9.46765 11.8139C11.3397 14.2039 13.7877 16.1919 16.3707 17.7669C20.9297 20.5459 27.4657 22.8499 32.6357 20.3539C34.6347 19.3889 36.4997 17.2349 35.6897 14.8839C35.2007 13.4659 33.9317 12.4509 32.8267 11.5129Z" fill="white"/>
<path d="M23.5118 7.15624C22.4578 6.42024 21.2188 5.92825 19.9458 5.74725C18.7768 5.58125 17.1849 5.54425 16.2069 6.34225C15.8959 6.39525 15.6218 6.60824 15.5368 7.01824C15.5178 7.11124 15.5018 7.20324 15.4888 7.29324C14.5528 9.49924 17.8308 12.0602 19.4368 13.0182C20.8108 13.8382 22.3848 14.4193 23.9748 14.6273C24.8508 14.7423 25.4949 14.4612 25.8799 13.9402C26.1259 13.7762 26.3378 13.5583 26.4938 13.2653C27.6528 11.0873 25.1378 8.29024 23.5118 7.15624Z" fill="#DD3131"/>
</svg>
