<svg width="275" height="335" viewBox="0 0 275 335" fill="none" xmlns="http://www.w3.org/2000/svg">
<path d="M227.168 236.75H47.0864V329.681H227.168V236.75Z" fill="#FE2D24"/>
<path d="M221.112 251.364H53.1421V329.507H221.112V251.364Z" fill="#F7E0D1" stroke="#F5D6C1" stroke-width="2.8347" stroke-miterlimit="10"/>
<path d="M222.003 236.75H52.252V250.723H222.003V236.75Z" fill="#C4231C"/>
<path opacity="0.2" d="M188.761 334.981L188.761 257.518H85.4926L85.4926 334.981H188.761Z" fill="#FE2D24"/>
<path d="M185.744 260.697H88.5098V331.802H185.744V260.697Z" fill="#FE2D24"/>
<path d="M184.093 262.932H90.1611V329.765H184.093V262.932Z" fill="#E6E6E6"/>
<path d="M99.4736 272.191H98.3184V312.531H99.4736V272.191Z" fill="#FE2D24"/>
<path d="M108.976 272.191H107.821V312.531H108.976V272.191Z" fill="#FE2D24"/>
<path d="M118.479 272.191H117.324V312.531H118.479V272.191Z" fill="#FE2D24"/>
<path d="M127.981 272.191H126.826V312.531H127.981V272.191Z" fill="#FE2D24"/>
<path d="M147.695 272.191H146.54V312.531H147.695V272.191Z" fill="#FE2D24"/>
<path d="M157.198 272.191H156.042V312.531H157.198V272.191Z" fill="#FE2D24"/>
<path d="M166.701 272.191H165.545V312.531H166.701V272.191Z" fill="#FE2D24"/>
<path d="M176.203 272.191H175.048V312.531H176.203V272.191Z" fill="#FE2D24"/>
<path d="M138.323 262.932H135.931V329.765H138.323V262.932Z" fill="#C4231C"/>
<path d="M184.093 310.709H90.1611V328.16H184.093V310.709Z" fill="#FE2D24"/>
<path d="M184.093 271.51H89.355V272.874H184.093V271.51Z" fill="#FE2D24"/>
<path d="M208.483 127H65.771V220.801H208.483V127Z" fill="#FE2D24"/>
<path d="M202.66 141.887H71.5938V221.671H202.66V141.887Z" fill="#FAEBE0" stroke="#F5D6C1" stroke-width="2.8347" stroke-miterlimit="10"/>
<path d="M202.66 127H71.5938V140.973H202.66V127Z" fill="#C4231C"/>
<path opacity="0.2" d="M188.761 226.1L188.761 147.767L85.4926 147.767L85.4926 226.1H188.761Z" fill="#FE2D24"/>
<path d="M185.745 150.946H88.5103V222.921H185.745V150.946Z" fill="#FE2D24"/>
<path d="M184.094 153.181H90.1616V220.884H184.094V153.181Z" fill="white"/>
<path d="M99.4741 162.44H98.3188V209.822H99.4741V162.44Z" fill="#FE2D24"/>
<path d="M108.977 162.44H107.821V209.822H108.977V162.44Z" fill="#FE2D24"/>
<path d="M118.479 162.44H117.324V209.822H118.479V162.44Z" fill="#FE2D24"/>
<path d="M127.982 162.44H126.827V209.822H127.982V162.44Z" fill="#FE2D24"/>
<path d="M147.695 162.44H146.54V209.822H147.695V162.44Z" fill="#FE2D24"/>
<path d="M157.198 162.44H156.043V209.822H157.198V162.44Z" fill="#FE2D24"/>
<path d="M166.701 162.44H165.545V209.822H166.701V162.44Z" fill="#FE2D24"/>
<path d="M176.204 162.44H175.048V209.822H176.204V162.44Z" fill="#FE2D24"/>
<path d="M138.323 153.181H135.932V220.884H138.323V153.181Z" fill="#C4231C"/>
<path d="M184.094 209.378H90.1616V219.279H184.094V209.378Z" fill="#FE2D24"/>
<path d="M184.093 161.759H89.355V163.123H184.093V161.759Z" fill="#FE2D24"/>
<path d="M27.6616 248.213L56.7857 241.562H61.0077L34.6297 248.447L27.6616 248.213Z" fill="#5A3B2E"/>
<path d="M34.6297 248.447L35.4973 253.003H28.7529L27.6616 248.214L34.6297 248.447Z" fill="#815434"/>
<path d="M35.4975 253.002L61.0079 243.842V241.562L34.6299 248.447L35.4975 253.002Z" fill="#683E30"/>
<path d="M243.103 248.213L213.979 241.562H209.757L236.135 248.447L243.103 248.213Z" fill="#5A3B2E"/>
<path d="M236.135 248.447L235.267 253.003H242.012L243.103 248.214L236.135 248.447Z" fill="#815434"/>
<path d="M235.267 253.002L209.757 243.842V241.562L236.135 248.447L235.267 253.002Z" fill="#683E30"/>
<path d="M57.6211 248.213L82.7225 241.562H86.9445L65.5952 248.447L57.6211 248.213Z" fill="#5A3B2E"/>
<path d="M65.5952 248.447L66.4628 253.003H58.7124L57.6211 248.214L65.5952 248.447Z" fill="#815434"/>
<path d="M87.772 248.369L103.865 241.562H108.086L95.7456 248.447L87.772 248.369Z" fill="#5A3B2E"/>
<path d="M95.7456 248.446L96.2473 253.002H88.3685L87.772 248.368L95.7456 248.446Z" fill="#815434"/>
<path d="M117.795 248.369L123.727 241.562H129.229L125.896 248.447L117.795 248.369Z" fill="#5A3B2E"/>
<path d="M125.896 248.446L126.16 253.08L118.281 253.002L117.795 248.368L125.896 248.446Z" fill="#815434"/>
<path d="M66.4629 253.002L86.9445 242.888V241.562L65.5952 248.447L66.4629 253.002Z" fill="#683E30"/>
<path d="M96.2473 253.002L108.086 243.037V241.562L95.7456 248.447L96.2473 253.002Z" fill="#683E30"/>
<path d="M126.16 253.08L129.229 243.558V241.562L125.896 248.447L126.16 253.08Z" fill="#683E30"/>
<path d="M215.156 248.213L190.055 241.562H185.833L207.183 248.447L215.156 248.213Z" fill="#5A3B2E"/>
<path d="M207.183 248.447L206.314 253.003H214.065L215.156 248.214L207.183 248.447Z" fill="#815434"/>
<path d="M185.006 248.369L168.913 241.562H164.691L177.031 248.447L185.006 248.369Z" fill="#5A3B2E"/>
<path d="M177.031 248.446L176.53 253.002H184.409L185.006 248.368L177.031 248.446Z" fill="#815434"/>
<path d="M154.983 248.369L149.051 241.562H143.549L146.881 248.447L154.983 248.369Z" fill="#5A3B2E"/>
<path d="M146.881 248.446L146.618 253.08L154.496 253.002L154.983 248.368L146.881 248.446Z" fill="#815434"/>
<path d="M206.315 253.002L185.833 242.888V241.562L207.183 248.447L206.315 253.002Z" fill="#683E30"/>
<path d="M176.53 253.002L164.691 243.037V241.562L177.031 248.447L176.53 253.002Z" fill="#683E30"/>
<path d="M146.618 253.08L143.549 243.558V241.562L146.881 248.447L146.618 253.08Z" fill="#683E30"/>
<path d="M249.383 238.834H21.2759V246.292H249.383V238.834Z" fill="#683E30"/>
<path d="M271.263 237.133C182.235 237.133 93.209 237.133 4.18115 237.133C43.3009 236.169 51.3776 217.512 53.5463 216.548C109.664 216.548 165.781 216.548 221.898 216.548C224.066 217.512 232.143 236.169 271.263 237.133Z" fill="#FE2D24"/>
<path d="M61.3427 216.548C59.3751 217.512 52.0472 236.169 16.5503 237.133" stroke="#B01F19" stroke-width="2.8347" stroke-miterlimit="10"/>
<path d="M68.9807 216.548C67.2097 217.512 60.6142 236.169 28.667 237.133" stroke="#B01F19" stroke-width="2.8347" stroke-miterlimit="10"/>
<path d="M76.6193 216.548C75.045 217.512 69.1817 236.169 40.7852 237.133" stroke="#B01F19" stroke-width="2.8347" stroke-miterlimit="10"/>
<path d="M84.2564 216.548C82.8801 217.512 77.7496 236.169 52.9023 237.133" stroke="#B01F19" stroke-width="2.8347" stroke-miterlimit="10"/>
<path d="M91.8944 216.548C90.713 217.512 86.3166 236.169 65.019 237.133" stroke="#B01F19" stroke-width="2.8347" stroke-miterlimit="10"/>
<path d="M99.532 216.548C98.5486 217.512 94.8844 236.169 77.1357 237.133" stroke="#B01F19" stroke-width="2.8347" stroke-miterlimit="10"/>
<path d="M107.17 216.548C106.384 217.512 103.452 236.169 89.2534 237.133" stroke="#B01F19" stroke-width="2.8347" stroke-miterlimit="10"/>
<path d="M114.809 216.548C114.218 217.512 112.02 236.169 101.371 237.133" stroke="#B01F19" stroke-width="2.8347" stroke-miterlimit="10"/>
<path d="M122.446 216.548C122.053 217.512 120.587 236.169 113.487 237.133" stroke="#B01F19" stroke-width="2.8347" stroke-miterlimit="10"/>
<path d="M130.084 216.548C129.887 217.512 129.154 236.169 125.605 237.133" stroke="#B01F19" stroke-width="2.8347" stroke-miterlimit="10"/>
<path d="M137.722 216.548C137.722 217.512 137.722 236.169 137.722 237.133" stroke="#B01F19" stroke-width="2.8347" stroke-miterlimit="10"/>
<path d="M145.36 216.548C145.557 217.512 146.289 236.169 149.839 237.133" stroke="#B01F19" stroke-width="2.8347" stroke-miterlimit="10"/>
<path d="M152.998 216.548C153.392 217.512 154.857 236.169 161.956 237.133" stroke="#B01F19" stroke-width="2.8347" stroke-miterlimit="10"/>
<path d="M160.636 216.548C161.226 217.512 163.424 236.169 174.074 237.133" stroke="#B01F19" stroke-width="2.8347" stroke-miterlimit="10"/>
<path d="M168.274 216.548C169.061 217.512 171.992 236.169 186.191 237.133" stroke="#B01F19" stroke-width="2.8347" stroke-miterlimit="10"/>
<path d="M175.912 216.548C176.895 217.512 180.559 236.169 198.308 237.133" stroke="#B01F19" stroke-width="2.8347" stroke-miterlimit="10"/>
<path d="M183.549 216.548C184.731 217.512 189.127 236.169 210.425 237.133" stroke="#B01F19" stroke-width="2.8347" stroke-miterlimit="10"/>
<path d="M191.188 216.548C192.564 217.512 197.694 236.169 222.542 237.133" stroke="#B01F19" stroke-width="2.8347" stroke-miterlimit="10"/>
<path d="M198.825 216.548C200.399 217.512 206.262 236.169 234.659 237.133" stroke="#B01F19" stroke-width="2.8347" stroke-miterlimit="10"/>
<path d="M206.463 216.548C208.234 217.512 214.83 236.169 246.777 237.133" stroke="#B01F19" stroke-width="2.8347" stroke-miterlimit="10"/>
<path d="M214.101 216.548C216.068 217.512 223.397 236.169 258.894 237.133" stroke="#B01F19" stroke-width="2.8347" stroke-miterlimit="10"/>
<path d="M274.255 236.981H0V240.263H274.255V236.981Z" fill="#815434"/>
<path d="M56.7736 184.921C56.7736 186.416 55.6958 187.627 54.366 187.627C53.0363 187.627 51.9585 186.416 51.9585 184.921C51.9585 183.426 53.0363 182.215 54.366 182.215C55.6958 182.215 56.7736 183.426 56.7736 184.921Z" fill="#815434"/>
<path d="M222.296 184.921C222.296 186.416 221.218 187.627 219.888 187.627C218.558 187.627 217.48 186.416 217.48 184.921C217.48 183.426 218.558 182.215 219.888 182.215C221.218 182.215 222.296 183.426 222.296 184.921Z" fill="#815434"/>
<path d="M56.3872 189.18H52.4268V214.825H56.3872V189.18Z" fill="#815434"/>
<path d="M221.828 189.18H217.867V214.825H221.828V189.18Z" fill="#815434"/>
<path d="M78.7737 189.18H77.3086V214.825H78.7737V189.18Z" fill="#815434"/>
<path d="M102.408 189.18H100.943V214.825H102.408V189.18Z" fill="#815434"/>
<path d="M126.043 189.18H124.578V214.825H126.043V189.18Z" fill="#815434"/>
<path d="M149.677 189.18H148.212V214.825H149.677V189.18Z" fill="#815434"/>
<path d="M173.311 189.18H171.846V214.825H173.311V189.18Z" fill="#815434"/>
<path d="M196.946 189.18H195.48V214.825H196.946V189.18Z" fill="#815434"/>
<path d="M223.092 187.24H51.0806V189.951H223.092V187.24Z" fill="#683E30"/>
<path d="M223.092 199.88H51.0806V203.706H223.092V199.88Z" fill="#683E30"/>
<path d="M223.092 212.813H51.0806V217.168H223.092V212.813Z" fill="#683E30"/>
<path d="M38.665 144.697L69.654 136.486H74.8664L48.5091 144.985L38.665 144.697Z" fill="#5A3B2E"/>
<path d="M48.5091 144.985L49.5808 150.61H40.0118L38.665 144.697L48.5091 144.985Z" fill="#815434"/>
<path d="M75.8882 144.889L95.7557 136.486H100.968L85.7322 144.985L75.8882 144.889Z" fill="#5A3B2E"/>
<path d="M85.7322 144.985L86.3516 150.61H76.6252L75.8882 144.889L85.7322 144.985Z" fill="#815434"/>
<path d="M112.954 144.889L120.278 136.486H127.069L122.956 144.985L112.954 144.889Z" fill="#5A3B2E"/>
<path d="M122.956 144.985L123.281 150.705L113.554 150.61L112.954 144.889L122.956 144.985Z" fill="#815434"/>
<path d="M49.581 150.61L74.8666 138.122V136.486L48.5093 144.985L49.581 150.61Z" fill="#683E30"/>
<path d="M86.3518 150.61L100.968 138.306V136.486L85.7324 144.985L86.3518 150.61Z" fill="#683E30"/>
<path d="M123.281 150.705L127.069 138.949V136.486L122.955 144.985L123.281 150.705Z" fill="#683E30"/>
<path d="M233.154 144.697L202.165 136.486H196.953L223.31 144.985L233.154 144.697Z" fill="#5A3B2E"/>
<path d="M223.309 144.985L222.238 150.61H231.807L233.154 144.697L223.309 144.985Z" fill="#815434"/>
<path d="M195.93 144.889L176.063 136.486H170.851L186.086 144.985L195.93 144.889Z" fill="#5A3B2E"/>
<path d="M186.087 144.985L185.467 150.61H195.194L195.931 144.889L186.087 144.985Z" fill="#815434"/>
<path d="M158.865 144.889L151.541 136.486H144.749L148.863 144.985L158.865 144.889Z" fill="#5A3B2E"/>
<path d="M148.863 144.985L148.538 150.705L158.265 150.61L158.866 144.889L148.863 144.985Z" fill="#815434"/>
<path d="M222.238 150.61L196.953 138.122V136.486L223.31 144.985L222.238 150.61Z" fill="#683E30"/>
<path d="M185.467 150.61L170.851 138.306V136.486L186.086 144.985L185.467 150.61Z" fill="#683E30"/>
<path d="M148.538 150.705L144.749 138.949V136.486L148.863 144.985L148.538 150.705Z" fill="#683E30"/>
<path d="M137.757 0H135.379V90.4825H137.757V0Z" fill="#5A3B2E"/>
<path d="M149.883 81.2178H123.252V90.4817H149.883V81.2178Z" fill="#633C2E"/>
<path d="M242.539 128.564H29.2803V142.594H242.539V128.564Z" fill="#683E30"/>
<path d="M153.053 88.3916C137.836 88.3916 136.568 88.3916 136.568 88.3916C136.568 88.3916 135.3 88.3916 120.082 88.3916C97.2557 118.456 38.9226 122.384 5 123.72C31.9477 141.424 93.1344 139.086 136.567 139.086C180.001 139.086 241.187 141.424 268.135 123.72C234.213 122.384 175.88 118.456 153.053 88.3916Z" fill="#FE2D24"/>
<mask id="mask0_857_2658" style="mask-type:luminance" maskUnits="userSpaceOnUse" x="5" y="88" width="264" height="52">
<path d="M153.054 88.3896C137.836 88.3896 136.568 88.3896 136.568 88.3896C136.568 88.3896 135.3 88.3896 120.083 88.3896C97.2562 118.454 38.9231 122.382 5.00049 123.718C31.9482 141.422 93.1349 139.084 136.568 139.084C180.001 139.084 241.188 141.422 268.135 123.718C234.214 122.382 175.88 118.454 153.054 88.3896Z" fill="white"/>
</mask>
<g mask="url(#mask0_857_2658)">
<path d="M150.413 88.3896C137.633 88.3896 136.569 88.3896 136.569 88.3896C136.569 88.3896 135.504 88.3896 122.725 88.3896C101.714 119.7 46.4192 126.728 14.7866 128.325C36.2904 150.296 95.1323 147.306 136.569 147.306C178.005 147.306 236.847 150.297 258.351 128.325C226.718 126.728 171.423 119.7 150.413 88.3896Z" stroke="#B01F19" stroke-width="2.8347" stroke-miterlimit="10"/>
</g>
<mask id="mask1_857_2658" style="mask-type:luminance" maskUnits="userSpaceOnUse" x="5" y="88" width="264" height="52">
<path d="M153.054 88.3896C137.836 88.3896 136.568 88.3896 136.568 88.3896C136.568 88.3896 135.3 88.3896 120.083 88.3896C97.2562 118.454 38.9231 122.382 5.00049 123.718C31.9482 141.422 93.1349 139.084 136.568 139.084C180.001 139.084 241.188 141.422 268.135 123.718C234.214 122.382 175.88 118.454 153.054 88.3896Z" fill="white"/>
</mask>
<g mask="url(#mask1_857_2658)">
<path d="M148.047 88.3896C137.451 88.3896 136.569 88.3896 136.569 88.3896C136.569 88.3896 135.685 88.3896 125.089 88.3896C107.668 121.884 61.8188 130.62 35.5898 132.329C53.4203 155.833 102.21 152.634 136.568 152.634C170.926 152.634 219.716 155.833 237.546 132.329C211.318 130.62 165.468 121.885 148.047 88.3896Z" stroke="#B01F19" stroke-width="2.8347" stroke-miterlimit="10"/>
</g>
<mask id="mask2_857_2658" style="mask-type:luminance" maskUnits="userSpaceOnUse" x="5" y="88" width="264" height="52">
<path d="M153.054 88.3896C137.836 88.3896 136.568 88.3896 136.568 88.3896C136.568 88.3896 135.3 88.3896 120.083 88.3896C97.2562 118.454 38.9231 122.382 5.00049 123.718C31.9482 141.422 93.1349 139.084 136.568 139.084C180.001 139.084 241.188 141.422 268.135 123.718C234.214 122.382 175.88 118.454 153.054 88.3896Z" fill="white"/>
</mask>
<g mask="url(#mask2_857_2658)">
<path d="M145.993 88.3896C137.294 88.3896 136.568 88.3896 136.568 88.3896C136.568 88.3896 135.843 88.3896 127.144 88.3896C112.841 124.209 75.1984 134.761 53.6646 136.589C68.3036 161.724 108.36 158.302 136.568 158.302C164.776 158.302 204.833 161.723 219.472 136.589C197.938 134.762 160.296 124.209 145.993 88.3896Z" stroke="#B01F19" stroke-width="2.8347" stroke-miterlimit="10"/>
</g>
<mask id="mask3_857_2658" style="mask-type:luminance" maskUnits="userSpaceOnUse" x="5" y="88" width="264" height="52">
<path d="M153.054 88.3896C137.836 88.3896 136.568 88.3896 136.568 88.3896C136.568 88.3896 135.3 88.3896 120.083 88.3896C97.2562 118.454 38.9231 122.382 5.00049 123.718C31.9482 141.422 93.1349 139.084 136.568 139.084C180.001 139.084 241.188 141.422 268.135 123.718C234.214 122.382 175.88 118.454 153.054 88.3896Z" fill="white"/>
</mask>
<g mask="url(#mask3_857_2658)">
<path d="M143.083 88.3896C137.069 88.3896 136.568 88.3896 136.568 88.3896C136.568 88.3896 136.067 88.3896 130.053 88.3896C120.166 124.209 94.1435 134.761 79.2568 136.589C89.377 161.724 117.068 158.302 136.568 158.302C156.068 158.302 183.76 161.723 193.88 136.589C178.993 134.762 152.971 124.209 143.083 88.3896Z" stroke="#B01F19" stroke-width="2.8347" stroke-miterlimit="10"/>
</g>
<mask id="mask4_857_2658" style="mask-type:luminance" maskUnits="userSpaceOnUse" x="5" y="88" width="264" height="52">
<path d="M153.054 88.3896C137.836 88.3896 136.568 88.3896 136.568 88.3896C136.568 88.3896 135.3 88.3896 120.083 88.3896C97.2562 118.454 38.9231 122.382 5.00049 123.718C31.9482 141.422 93.1349 139.084 136.568 139.084C180.001 139.084 241.188 141.422 268.135 123.718C234.214 122.382 175.88 118.454 153.054 88.3896Z" fill="white"/>
</mask>
<g mask="url(#mask4_857_2658)">
<path d="M140.81 88.3896C136.894 88.3896 136.568 88.3896 136.568 88.3896C136.568 88.3896 136.242 88.3896 132.326 88.3896C125.888 124.209 108.944 134.761 99.2505 136.589C105.84 161.724 123.871 158.302 136.569 158.302C149.266 158.302 167.297 161.723 173.886 136.589C164.193 134.762 147.249 124.209 140.81 88.3896Z" stroke="#B01F19" stroke-width="2.8347" stroke-miterlimit="10"/>
</g>
<mask id="mask5_857_2658" style="mask-type:luminance" maskUnits="userSpaceOnUse" x="5" y="88" width="264" height="52">
<path d="M153.054 88.3896C137.836 88.3896 136.568 88.3896 136.568 88.3896C136.568 88.3896 135.3 88.3896 120.083 88.3896C97.2562 118.454 38.9231 122.382 5.00049 123.718C31.9482 141.422 93.1349 139.084 136.568 139.084C180.001 139.084 241.188 141.422 268.135 123.718C234.214 122.382 175.88 118.454 153.054 88.3896Z" fill="white"/>
</mask>
<g mask="url(#mask5_857_2658)">
<path d="M138.983 88.3896C136.754 88.3896 136.568 88.3896 136.568 88.3896C136.568 88.3896 136.382 88.3896 134.154 88.3896C130.489 124.209 120.845 134.761 115.327 136.589C119.078 161.724 129.341 158.302 136.568 158.302C143.796 158.302 154.059 161.723 157.809 136.589C152.292 134.762 142.647 124.209 138.983 88.3896Z" stroke="#B01F19" stroke-width="2.8347" stroke-miterlimit="10"/>
</g>
<mask id="mask6_857_2658" style="mask-type:luminance" maskUnits="userSpaceOnUse" x="5" y="88" width="264" height="52">
<path d="M153.054 88.3896C137.836 88.3896 136.568 88.3896 136.568 88.3896C136.568 88.3896 135.3 88.3896 120.083 88.3896C97.2562 118.454 38.9231 122.382 5.00049 123.718C31.9482 141.422 93.1349 139.084 136.568 139.084C180.001 139.084 241.188 141.422 268.135 123.718C234.214 122.382 175.88 118.454 153.054 88.3896Z" fill="white"/>
</mask>
<g mask="url(#mask6_857_2658)">
<path d="M137.361 88.3896C136.629 88.3896 136.568 88.3896 136.568 88.3896C136.568 88.3896 136.507 88.3896 135.775 88.3896C134.572 124.209 131.405 134.761 129.593 136.589C130.825 161.724 134.195 158.302 136.568 158.302C138.941 158.302 142.311 161.723 143.543 136.589C141.731 134.762 138.564 124.209 137.361 88.3896Z" stroke="#B01F19" stroke-width="2.8347" stroke-miterlimit="10"/>
</g>
<path d="M136.82 135.477C96.2189 135.477 40.1103 137.516 10.9531 123.32C8.99286 123.507 7.08099 123.649 5.25293 123.721C32.2006 141.425 93.3873 139.086 136.82 139.086C180.253 139.086 241.441 141.425 268.388 123.721C266.56 123.649 264.648 123.507 262.688 123.32C233.531 137.516 177.422 135.477 136.82 135.477Z" fill="#815434"/>
<path d="M154.544 85.3857H118.591V89.9701H154.544V85.3857Z" fill="#815434"/>
<path d="M146.554 81.218H126.582V80.5277C126.582 79.1568 127.693 78.0459 129.063 78.0459H144.072C145.443 78.0459 146.554 79.1574 146.554 80.5277V81.218H146.554Z" fill="#5A3B2E"/>
<path d="M143.45 76.1421H129.686L129.798 73.1666C129.841 72.0514 130.982 71.165 132.376 71.165H140.761C142.154 71.165 143.296 72.0514 143.338 73.1666L143.45 76.1421Z" fill="#5A3B2E"/>
<path d="M142.981 66.1936H130.155L130.243 63.8649C130.285 62.7496 131.426 61.8633 132.82 61.8633H140.316C141.71 61.8633 142.851 62.7496 142.894 63.8649L142.981 66.1936Z" fill="#5A3B2E"/>
<path d="M142.572 56.8925H130.564L130.632 55.0924C130.675 53.9772 131.816 53.0908 133.21 53.0908H139.927C141.321 53.0908 142.462 53.9772 142.505 55.0924L142.572 56.8925Z" fill="#5A3B2E"/>
<path d="M142.212 48.1213H130.924L130.975 46.7584C131.017 45.6432 132.159 44.7568 133.553 44.7568H139.584C140.977 44.7568 142.119 45.6432 142.161 46.7584L142.212 48.1213Z" fill="#5A3B2E"/>
<path d="M141.893 39.7871H131.243L131.28 38.7906C131.322 37.6754 132.464 36.7891 133.858 36.7891H139.277C140.671 36.7891 141.812 37.6754 141.855 38.7906L141.893 39.7871Z" fill="#5A3B2E"/>
<path d="M141.608 31.8185H131.528L131.554 31.1315C131.596 30.0163 132.738 29.1299 134.132 29.1299H139.005C140.398 29.1299 141.54 30.0163 141.582 31.1315L141.608 31.8185Z" fill="#5A3B2E"/>
<path d="M141.352 24.1583H131.784L131.8 23.735C131.842 22.6198 132.984 21.7334 134.378 21.7334H138.759C140.152 21.7334 141.294 22.6198 141.336 23.735L141.352 24.1583Z" fill="#5A3B2E"/>
<path d="M141.12 16.7626H132.015L132.023 16.566C132.065 15.4508 133.206 14.5645 134.6 14.5645H138.536C139.929 14.5645 141.071 15.4508 141.113 16.566L141.12 16.7626Z" fill="#5A3B2E"/>
<path d="M140.91 9.59435H132.226C132.267 8.47914 133.409 7.59277 134.803 7.59277H138.333C139.727 7.59277 140.868 8.47914 140.91 9.59435Z" fill="#5A3B2E"/>
</svg>
