<svg width="207" height="474" viewBox="0 0 207 474" fill="none" xmlns="http://www.w3.org/2000/svg">
<path d="M131.431 441.55C131.202 439.032 131.444 435.245 131.215 432.725C129.613 413.723 130.858 395.417 118.838 378.704C113.001 370.577 103.957 365.999 94.2268 367.142C85.4131 368.173 79.0017 375.385 75.9111 383.282C72.477 392.212 70.8738 401.598 69.959 411.213C68.3558 429.644 67.441 447.845 68.1268 466.16C68.2077 467.299 68.2326 469.13 68.3222 470.236C86.7487 473.086 109.026 474.109 131.164 471.784C131.193 470.829 131.239 469.872 131.316 468.909C131.889 459.751 132.347 450.708 131.431 441.55Z" fill="#161616"/>
<path d="M39.8537 451.508C39.9682 450.478 40.1972 449.448 40.3117 448.418C40.4262 444.869 40.4262 441.435 40.6552 437.886C41.4568 424.15 40.5407 410.414 40.9988 396.79C41.6859 379.162 41.1133 361.419 41.2278 343.79C41.2278 343.332 41.6859 342.874 41.5714 342.416C41.5128 341.945 41.4643 341.474 41.4245 341.002C35.8383 339.732 30.1948 338.246 24.519 336.519V461.668C24.519 461.668 30.2484 463.299 39.8089 465.672C39.7977 461.59 39.8026 455.591 39.8537 451.508Z" fill="#DD3131"/>
<path d="M147.686 464.787C147.686 462.269 147.915 459.864 148.03 457.461C148.373 447.845 148.488 438.343 147.915 428.728C147.572 422.547 147.572 416.479 147.801 410.412C147.915 408.123 147.915 406.062 147.801 404.002C147.343 392.555 147.343 381.222 147.915 369.774C148.03 365.882 147.915 362.105 148.144 358.327C148.259 357.525 148.488 356.838 148.602 356.038C148.717 352.833 148.946 349.742 148.488 346.537C148.307 345.548 148.269 344.628 148.205 343.668C124.876 347.432 90.7801 350.035 53.2974 343.399C53.2065 343.692 53.1318 343.982 53.1318 344.248C53.1318 345.736 53.0173 347.224 52.6738 348.828C52.5593 349.629 52.6738 350.316 52.6738 351.117C52.5593 351.689 52.3303 352.376 52.2158 352.947C52.1013 360.732 52.3303 368.402 52.2158 376.186C52.1013 376.758 51.8722 377.446 51.7577 378.017C51.6432 386.374 51.8722 394.729 51.7577 403.086C51.6432 403.888 51.4142 404.575 51.2997 405.375C51.1851 409.611 51.4142 413.961 51.2997 418.196C51.1851 419.112 50.9561 420.027 50.8416 420.943C50.6126 425.064 50.9561 429.07 50.4981 433.306C49.9255 439.144 50.6126 444.754 50.04 450.591C49.9255 451.965 50.3836 453.338 50.269 454.712C49.9305 458.511 49.9927 464.009 50.0052 467.808C55.4793 468.979 61.6481 469.543 68.3221 470.575C68.2325 469.47 68.2088 467.299 68.1267 466.16C67.4396 447.844 68.3557 429.643 69.9589 411.213C70.875 401.598 72.4769 392.21 75.911 383.282C79.0016 375.383 85.4118 368.171 94.2267 367.142C103.956 365.997 113 370.576 118.838 378.704C130.858 395.416 129.613 413.722 131.215 432.725C131.444 435.243 131.202 439.031 131.431 441.55C132.347 450.707 131.889 459.751 131.316 468.908C131.24 469.872 131.193 470.829 131.164 471.783C136.55 471.217 141.927 470.408 147.239 469.313C147.233 469.025 147.227 468.738 147.227 468.45C147.343 467.192 147.572 466.047 147.686 464.787Z" fill="#DD3131"/>
<path d="M160.507 359.588C160.415 353.523 160.176 347.532 160.085 341.495C156.531 342.225 152.556 342.968 148.204 343.67C148.268 344.629 148.307 345.549 148.487 346.539C148.945 349.744 148.716 352.834 148.601 356.039C148.487 356.841 148.258 357.527 148.143 358.328C147.914 362.106 148.029 365.884 147.914 369.776C147.342 381.223 147.342 392.556 147.8 404.004C147.914 406.064 147.914 408.125 147.8 410.414C147.571 416.48 147.571 422.548 147.914 428.729C148.487 438.345 148.372 447.847 148.029 457.462C147.914 459.866 147.685 462.27 147.685 464.788C147.571 466.048 147.342 467.192 147.227 468.451C147.227 468.739 147.233 469.026 147.24 469.314C151.135 468.511 154.995 467.554 158.798 466.428C159.187 457.44 159.505 448.434 159.82 439.375C160.85 412.703 160.85 386.145 160.507 359.588Z" fill="#161616"/>
<path d="M179.829 336.52C179.829 336.52 172.557 338.933 160.085 341.495C160.176 347.53 160.415 353.522 160.507 359.587C160.85 386.144 160.85 412.702 159.82 439.375C159.505 448.434 159.187 457.439 158.798 466.427C166.073 464.27 172.611 463.3 179.829 460.588V336.52Z" fill="#DD3131"/>
<path d="M50.2708 454.713C50.3853 453.339 49.9273 451.966 50.0418 450.592C50.6143 444.754 49.9273 439.144 50.4998 433.307C50.9579 429.071 50.6143 425.064 50.8434 420.943C50.9579 420.027 51.1869 419.112 51.3014 418.196C51.4159 413.96 51.1869 409.61 51.3014 405.376C51.4159 404.574 51.6449 403.887 51.7595 403.087C51.874 394.73 51.6449 386.374 51.7595 378.017C51.874 377.445 52.103 376.758 52.2175 376.186C52.332 368.402 52.103 360.732 52.2175 352.948C52.332 352.375 52.561 351.688 52.6755 351.117C52.6755 350.315 52.561 349.628 52.6755 348.828C53.0191 347.225 53.1336 345.738 53.1336 344.249C53.1336 343.982 53.2083 343.692 53.2991 343.4C49.3759 342.705 45.414 341.91 41.4248 341.004C41.4658 341.476 41.5131 341.946 41.5716 342.418C41.6862 342.876 41.2281 343.334 41.2281 343.792C41.1136 361.421 41.6861 379.164 40.9991 396.792C40.541 410.414 41.4571 424.151 40.6555 437.888C40.4265 441.437 40.4265 444.871 40.312 448.42C40.1975 449.45 39.9685 450.48 39.854 451.51C39.8029 455.593 39.7979 461.592 39.8079 465.675C42.8425 466.428 46.2616 467.009 50.0069 467.811C49.9945 464.01 49.931 458.512 50.2708 454.713Z" fill="#161616"/>
<path d="M98.8377 391.751C98.6983 384.28 98.5178 376.81 98.2987 369.34C98.2776 368.606 97.1325 368.602 97.1536 369.34C97.5432 382.602 97.8083 395.867 97.9452 409.134C98.0822 422.402 98.0921 435.669 97.9751 448.936C97.9091 456.408 97.8021 463.88 97.6565 471.35C97.6415 472.087 98.7867 472.087 98.8016 471.35C99.0617 458.086 99.1949 444.819 99.2011 431.551C99.2061 418.284 99.0854 405.016 98.8377 391.751Z" fill="white"/>
<path d="M107.162 432.052C106.855 418.991 106.452 405.932 105.954 392.877C105.674 385.531 105.363 378.186 105.023 370.844C104.99 370.111 103.845 370.106 103.878 370.844C104.486 383.933 104.997 397.026 105.412 410.121C105.825 423.179 106.144 436.24 106.366 449.303C106.492 456.653 106.585 464.004 106.651 471.355C106.658 472.091 107.803 472.093 107.796 471.355C107.681 458.252 107.47 445.151 107.162 432.052Z" fill="white"/>
<path d="M116.203 433.355C115.684 420.878 115.166 408.401 114.647 395.924C114.355 388.887 114.062 381.85 113.77 374.813C113.739 374.079 112.595 374.075 112.625 374.813C113.145 387.328 113.665 399.842 114.185 412.357L115.741 449.787L116.619 470.898C116.65 471.633 117.794 471.636 117.764 470.898C117.244 458.384 116.723 445.869 116.203 433.355Z" fill="white"/>
<path d="M125.103 437.872C124.665 426.916 124.153 415.963 123.571 405.015C123.243 398.856 122.892 392.698 122.519 386.542C122.474 385.81 121.329 385.805 121.374 386.542C122.037 397.487 122.63 408.435 123.149 419.388C123.668 430.34 124.116 441.296 124.492 452.254C124.702 458.418 124.891 464.583 125.057 470.748C125.077 471.484 126.222 471.486 126.202 470.748C125.907 459.786 125.542 448.828 125.103 437.872Z" fill="white"/>
<path d="M91.9719 431.328C91.7615 418.289 91.5736 405.248 91.4105 392.208C91.3184 384.886 91.235 377.565 91.1578 370.245C91.1504 369.509 90.0053 369.507 90.0127 370.245C90.1496 383.286 90.3102 396.326 90.4944 409.366C90.6786 422.405 90.8865 435.446 91.118 448.485C91.2487 455.805 91.3856 463.125 91.5313 470.445C91.5462 471.181 92.6913 471.184 92.6764 470.445C92.4175 457.407 92.1822 444.368 91.9719 431.328Z" fill="white"/>
<path d="M84.7337 432.656C84.4387 420.314 84.2121 407.969 84.0541 395.624C83.9657 388.688 83.8972 381.754 83.8512 374.819C83.8462 374.082 82.7011 374.081 82.7061 374.819C82.7882 387.165 82.9376 399.511 83.1554 411.855C83.3732 424.199 83.6607 436.542 84.0155 448.884C84.2146 455.817 84.4362 462.749 84.6789 469.679C84.7038 470.414 85.8489 470.417 85.824 469.679C85.3921 457.339 85.0287 444.998 84.7337 432.656Z" fill="white"/>
<path d="M76.898 469.686C76.252 459.252 75.8251 448.805 75.6247 438.353C75.4243 427.939 75.4467 417.522 75.6906 407.109C75.8288 401.219 76.0391 395.33 76.3192 389.444C76.3541 388.707 75.2089 388.71 75.1741 389.444C74.6787 399.886 74.4024 410.338 74.3526 420.792C74.3028 431.208 74.4758 441.624 74.8704 452.032C75.0932 457.92 75.3894 463.805 75.7529 469.686C75.7989 470.417 76.9441 470.423 76.898 469.686Z" fill="white"/>
<path d="M24.5181 252.887V308.312C24.5181 308.312 118.01 339.409 179.83 306.789V252.887C179.83 252.887 105.524 277.554 24.5181 252.887Z" fill="#DD3131"/>
<path d="M87.3315 319.057C87.3315 319.057 87.3315 296.968 87.3315 292.857C87.3315 288.745 93.0596 276.641 102.175 276.641C111.288 276.641 118.847 286.463 118.847 292.629C118.847 298.795 118.847 318.764 118.847 318.764C118.847 318.764 106.105 320.707 87.3315 319.057Z" fill="white"/>
<path d="M127.422 317.968C127.422 317.968 127.422 294.685 127.422 290.802C127.422 286.918 129.886 275.043 139.251 274.357C148.615 273.672 149.529 285.777 149.301 294.227C149.073 302.677 149.301 314.658 149.301 314.658C149.301 314.658 129.076 317.798 127.422 317.968Z" fill="white"/>
<path d="M155.666 313.531C155.666 313.531 155.666 285.471 155.666 283.416C155.666 281.361 157.8 270.957 164.88 269.587C171.961 268.216 176.405 277.935 173.207 308.77L155.666 313.531Z" fill="white"/>
<path d="M79.2476 317.968C79.2476 317.968 79.2476 294.685 79.2476 290.802C79.2476 286.918 76.7831 275.043 67.418 274.357C58.0542 273.672 57.1406 285.777 57.3684 294.227C57.5961 302.677 57.3684 314.658 57.3684 314.658C57.3684 314.658 77.5934 317.798 79.2476 317.968Z" fill="white"/>
<path d="M51.0039 313.531C51.0039 313.531 51.0039 285.471 51.0039 283.416C51.0039 281.361 48.8692 270.957 41.7894 269.587C34.7096 268.216 30.2648 277.935 33.4636 308.77L51.0039 313.531Z" fill="white"/>
<path d="M24.5179 306.79C24.5179 306.79 17.2091 310.749 0.76416 316.535C0.76416 316.535 27.2587 340.592 104.023 340.592C175.262 340.592 206.629 316.839 206.629 316.839L179.83 305.267C179.83 305.267 113.138 332.675 24.5179 306.79Z" fill="#161616"/>
<path d="M0.76416 316.534V329.477C0.76416 329.477 39.2875 351.555 102.173 351.555C165.059 351.555 206.628 329.02 206.628 329.02V316.838C206.628 316.838 156.988 337.886 102.173 337.886C47.3581 337.887 0.76416 316.534 0.76416 316.534Z" fill="#F25C5C"/>
<path d="M194.276 313.479C194.005 312.805 192.897 313.1 193.172 313.784C193.678 315.041 193.417 316.372 192.676 317.481C191.858 318.703 190.512 319.394 189.083 319.618C186.409 320.04 182.692 319.09 181.298 316.567C181.34 316.536 181.384 316.506 181.426 316.474C182.666 315.507 183.25 313.977 183.405 312.45C183.583 310.696 183.095 308.893 182.094 307.448C181.678 306.846 180.686 307.418 181.106 308.025C182.923 310.645 182.848 315.36 179.198 316.305C175.704 317.21 172.805 314.473 170.516 312.245C170.485 312.215 170.453 312.19 170.421 312.167C170.2 311.545 169.18 311.853 169.338 312.545C169.706 314.16 169.898 316.012 169.509 317.644C169.145 319.175 167.687 320.014 166.203 320.197C164.721 320.38 163.28 319.904 162.164 318.924C160.914 317.823 159.812 316.52 158.663 315.315C158.551 315.197 158.423 315.145 158.298 315.141C157.951 314.9 157.294 315.209 157.389 315.776C157.681 317.523 158.01 319.469 157.206 321.137C156.552 322.491 155.208 323.198 153.738 323.244C150.393 323.349 148.142 320.518 146.486 317.979C146.403 317.851 146.293 317.775 146.175 317.739C145.849 317.53 145.278 317.684 145.253 318.199C145.111 321.143 144.378 324.926 140.84 325.389C139.318 325.588 137.806 324.94 136.649 323.982C135.357 322.913 134.639 321.423 133.539 320.191C133.52 320.17 133.502 320.152 133.482 320.135C133.309 319.624 132.399 319.698 132.365 320.35C132.21 323.295 131.682 327.175 128.055 327.572C124.592 327.951 122.16 324.995 121.231 321.987C121.168 321.783 121.031 321.664 120.872 321.615C120.834 320.984 119.793 321.021 119.725 321.714C119.408 325.001 117.959 329.277 114.079 329.642C112.248 329.813 110.681 328.652 109.449 327.425C108.17 326.15 107.158 324.618 106.487 322.939C106.388 322.694 106.181 322.577 105.969 322.559C105.675 322.261 105.106 322.258 105.034 322.77C104.611 325.772 102.963 328.851 100.008 330.005C98.5693 330.568 96.9387 330.666 95.4713 330.152C94.056 329.655 92.9943 328.558 92.2711 327.273C91.4322 325.782 91.0003 324.1 90.5983 322.45C90.4962 322.03 90.0742 321.961 89.778 322.12C89.9137 321.435 88.8482 321.155 88.6665 321.855C87.8736 324.898 85.8012 328.341 82.2551 328.398C78.6816 328.456 76.5494 325.033 75.6806 321.997C75.5723 321.62 75.2089 321.529 74.9226 321.635C74.6463 321.374 74.0936 321.389 73.9505 321.867C73.5609 323.176 72.5378 324.341 71.5806 325.285C70.5637 326.287 69.2904 326.836 67.849 326.608C66.5085 326.396 65.3621 325.564 64.6476 324.425C63.8597 323.169 63.744 321.788 63.7253 320.339C63.7203 319.964 63.4229 319.78 63.1316 319.786C62.8018 319.491 62.1421 319.621 62.1695 320.185C62.2018 320.855 61.7985 321.361 61.3542 321.821C60.8824 322.31 60.3771 322.795 59.8319 323.202C58.7938 323.978 57.5716 324.299 56.3094 323.919C53.7479 323.146 53.3408 320.167 53.1753 317.889C53.1417 317.429 52.6749 317.257 52.3463 317.376C52.1011 317.134 51.6692 317.085 51.4701 317.479C50.1868 320.019 47.5953 321.902 44.7363 322.177C41.861 322.454 39.1924 320.971 37.7784 318.471C37.0042 317.103 36.6744 315.498 36.9893 313.947C37.0914 313.442 36.4267 312.911 36.0321 313.391C34.1564 315.675 30.9787 318.025 27.8296 317.424C26.2787 317.128 25.2394 315.997 24.861 314.49C24.3955 312.643 24.9842 310.737 25.5456 308.981C25.7696 308.278 24.6656 307.977 24.4415 308.677C23.798 310.694 23.208 312.861 23.803 314.964C24.2361 316.498 25.2892 317.759 26.7716 318.314C24.5573 319.896 21.631 320.477 19.0172 319.612C17.643 319.158 16.6249 318.173 16.5377 316.672C16.4469 315.112 17.2136 313.697 17.948 312.377C18.3064 311.732 17.3182 311.154 16.9597 311.799C16.1158 313.316 15.2619 314.974 15.3988 316.765C15.5295 318.468 16.5153 319.786 18.0699 320.468C21.0921 321.793 24.8349 321.155 27.45 319.231C27.4661 319.22 27.4798 319.207 27.4935 319.195C27.3367 322.108 28.8851 325.883 32.2259 325.972C35.0924 326.05 37.6751 323.982 38.7767 321.437C38.9783 321.608 39.1887 321.773 39.4065 321.926C39.5571 322.033 39.7102 322.131 39.8658 322.225C39.6542 322.233 39.4625 322.359 39.4152 322.638C38.8949 325.695 41.0868 328.339 43.9123 329.215C46.678 330.072 49.954 329.54 52.3277 327.889C53.2413 327.254 54.0018 326.468 54.5656 325.54C54.649 326.935 54.8158 328.37 55.4917 329.607C56.3169 331.119 57.8628 331.877 59.5195 332.109C62.4483 332.519 65.3945 331.222 66.8483 328.719C67.2914 331.46 69.6476 333.678 72.4145 334.087C75.6109 334.56 79.5777 332.839 80.6917 329.637C80.7241 329.543 80.7316 329.459 80.7216 329.382C81.0365 329.456 81.3639 329.504 81.6999 329.527C81.5655 329.614 81.4796 329.766 81.507 329.986C81.6937 331.498 82.2439 332.93 83.267 334.077C84.381 335.325 85.9618 335.919 87.6073 336.005C90.7551 336.168 94.3485 334.518 94.6833 331.067C95.2808 331.323 95.8969 331.488 96.518 331.57C96.5243 331.648 96.5491 331.73 96.5989 331.814C98.3403 334.785 101.706 336.644 105.154 336.509C108.363 336.383 111.26 334.706 113.104 332.156C113.828 333.402 115.313 334.268 116.558 334.801C118.264 335.533 120.147 335.788 121.982 335.476C124.975 334.965 127.475 332.748 128.39 329.908C129.139 331.138 130.252 332.12 131.459 332.9C132.976 333.882 134.799 334.643 136.641 334.445C140.035 334.08 141.796 330.996 142.3 327.918C142.966 328.711 143.846 329.313 144.8 329.789C146.405 330.588 148.099 331.163 149.91 330.899C152.711 330.491 154.817 328.453 155.656 325.899C156.86 327.485 158.949 328.452 160.876 328.769C163.578 329.215 167.137 328.51 168.558 325.881C168.974 325.114 169.141 324.222 169.151 323.312C169.425 323.536 169.717 323.744 170.022 323.939C171.352 324.784 172.925 325.513 174.496 325.718C177.395 326.098 180.281 324.383 181.34 321.667C181.686 320.781 181.827 319.817 181.766 318.869C183.854 320.584 187.077 321.158 189.57 320.684C191.258 320.363 192.769 319.436 193.709 317.985C194.566 316.666 194.875 314.967 194.276 313.479ZM37.7909 320.85C36.9656 323 34.7874 324.791 32.4275 324.831C29.5348 324.88 28.4557 321.343 28.6536 318.986C28.6648 318.853 28.6361 318.744 28.5814 318.66C31.2201 318.757 33.8352 317.242 35.7471 315.391C35.8193 317.327 36.637 319.181 37.9402 320.625C37.878 320.684 37.827 320.758 37.7909 320.85ZM54.0702 323.98C53.0209 326.83 49.8632 328.368 46.9705 328.46C45.3225 328.513 43.5737 328.156 42.2631 327.101C41.0482 326.124 40.2529 324.519 40.5205 322.945C40.5466 322.792 40.5168 322.658 40.4533 322.547C43.0223 323.802 46.1166 323.517 48.6085 322.088C50.0337 321.271 51.251 320.101 52.1036 318.7C52.3077 320.603 52.7969 322.63 54.0976 323.917C54.0877 323.937 54.0789 323.958 54.0702 323.98ZM59.6328 330.98C58.2649 330.774 57.0401 330.164 56.4053 328.887C55.824 327.717 55.7481 326.345 55.6846 325.062C55.6821 325.009 55.6721 324.959 55.6585 324.913C55.8725 324.993 56.0991 325.06 56.3393 325.112C57.935 325.46 59.4199 324.98 60.6808 323.986C61.3417 323.464 62.1408 322.817 62.686 322.055C62.8279 323.204 63.149 324.303 63.8548 325.298C64.4784 326.175 65.3023 326.876 66.2608 327.312C65.2874 329.991 62.3898 331.394 59.6328 330.98ZM79.5877 329.335C78.6679 331.983 75.1454 333.373 72.5427 332.958C70.0185 332.556 67.9187 330.364 67.9199 327.766C69.4907 327.94 70.9445 327.409 72.1233 326.352C73.1476 325.435 74.1857 324.23 74.772 322.928C75.6308 325.482 77.2987 328.042 79.7645 329.073C79.6898 329.136 79.6275 329.223 79.5877 329.335ZM93.5544 330.92C93.354 333.836 90.1128 334.99 87.6085 334.863C86.2829 334.796 85.0432 334.318 84.1346 333.333C83.2969 332.426 82.804 331.209 82.6534 329.99C82.6273 329.781 82.5127 329.633 82.3659 329.543C86.0813 329.416 88.4785 326.224 89.544 322.946C90.2336 325.751 91.2132 328.92 93.7162 330.55C93.6266 330.641 93.5644 330.764 93.5544 330.92ZM105.154 335.367C102.251 335.479 99.4331 334.035 97.8312 331.627C100.167 331.514 102.433 330.306 103.91 328.432C104.854 327.234 105.51 325.842 105.884 324.37C107.109 326.874 109.084 329.306 111.64 330.377C111.988 330.524 112.341 330.628 112.692 330.695C111.111 333.382 108.33 335.245 105.154 335.367ZM121.856 334.344C120.293 334.645 118.637 334.424 117.168 333.829C115.904 333.317 114.224 332.395 113.852 330.971C113.877 330.926 113.901 330.881 113.925 330.837C113.935 330.818 113.943 330.801 113.95 330.782C116.207 330.661 118.295 329.109 119.415 327.081C120.018 325.992 120.381 324.807 120.612 323.594C121.61 325.875 123.346 327.897 125.833 328.536C126.386 328.678 126.957 328.749 127.526 328.744C127.055 331.57 124.628 333.81 121.856 334.344ZM141.296 326.651C141.14 329.553 139.66 333.208 136.261 333.335C134.679 333.394 133.176 332.678 131.889 331.819C130.649 330.992 129.583 329.933 128.972 328.561C129.3 328.479 129.619 328.368 129.929 328.229C131.213 327.646 132.127 326.532 132.66 325.25C133.106 324.176 133.301 323.025 133.408 321.867C133.768 322.373 134.102 322.898 134.485 323.387C135.03 324.082 135.664 324.693 136.378 325.212C137.806 326.249 139.577 326.795 141.333 326.465C141.312 326.52 141.298 326.582 141.296 326.651ZM149.788 329.774C148.291 330.013 146.867 329.525 145.534 328.882C144.326 328.3 143.065 327.502 142.553 326.198C142.539 326.162 142.522 326.129 142.503 326.099C143.718 325.559 144.716 324.581 145.318 323.382C145.893 322.236 146.154 320.979 146.287 319.71C148.182 322.323 150.748 324.744 154.207 324.358C154.416 324.334 154.622 324.299 154.824 324.255C154.833 324.285 154.841 324.316 154.851 324.346C154.493 327.023 152.56 329.332 149.788 329.774ZM167.204 325.849C166.228 327 164.669 327.618 163.194 327.742C161.68 327.87 160.122 327.58 158.756 326.912C157.636 326.363 156.469 325.482 156.009 324.281C156.026 324.131 156.039 323.982 156.047 323.831C156.959 323.386 157.722 322.68 158.194 321.717C158.918 320.237 158.92 318.632 158.728 317.043C159.185 317.522 159.641 318.001 160.098 318.481C160.719 319.133 161.34 319.787 162.08 320.308C163.458 321.276 165.235 321.58 166.873 321.241C167.041 321.206 167.208 321.163 167.372 321.113C167.529 321.437 167.712 321.74 167.919 322.024C168.128 323.378 168.056 324.843 167.204 325.849ZM176.61 324.466C174.905 324.904 173.27 324.353 171.744 323.594C170.744 323.097 169.725 322.465 169.005 321.592C168.938 321.21 168.853 320.837 168.756 320.481C169.605 319.937 170.277 319.151 170.566 318.144C170.932 316.866 170.938 315.437 170.769 314.067C172.701 315.86 174.888 317.513 177.612 317.611C178.492 317.642 179.391 317.503 180.209 317.171C181.43 320.196 179.818 323.642 176.61 324.466Z" fill="white"/>
<path d="M24.5181 169.254V224.679C24.5181 224.679 118.01 255.776 179.83 223.157V169.254C179.83 169.254 105.524 193.921 24.5181 169.254Z" fill="#DD3131"/>
<path d="M87.3315 235.425C87.3315 235.425 87.3315 213.336 87.3315 209.225C87.3315 205.113 93.0596 193.009 102.175 193.009C111.288 193.009 118.847 202.829 118.847 208.997C118.847 215.163 118.847 235.132 118.847 235.132C118.847 235.132 106.105 237.075 87.3315 235.425Z" fill="white"/>
<path d="M127.422 234.336C127.422 234.336 127.422 211.053 127.422 207.169C127.422 203.286 129.886 191.41 139.251 190.724C148.615 190.038 149.529 202.144 149.301 210.594C149.073 219.046 149.301 231.024 149.301 231.024C149.301 231.024 129.076 234.165 127.422 234.336Z" fill="white"/>
<path d="M155.666 229.898C155.666 229.898 155.666 201.839 155.666 199.784C155.666 197.727 157.8 187.324 164.88 185.954C171.961 184.583 176.405 194.302 173.207 225.137L155.666 229.898Z" fill="white"/>
<path d="M79.2476 234.336C79.2476 234.336 79.2476 211.053 79.2476 207.169C79.2476 203.286 76.7831 191.41 67.418 190.724C58.0542 190.038 57.1406 202.144 57.3684 210.594C57.5974 219.046 57.3684 231.024 57.3684 231.024C57.3684 231.024 77.5934 234.165 79.2476 234.336Z" fill="white"/>
<path d="M51.0039 229.898C51.0039 229.898 51.0039 201.839 51.0039 199.784C51.0039 197.727 48.8692 187.324 41.7894 185.954C34.7096 184.583 30.2648 194.302 33.4636 225.137L51.0039 229.898Z" fill="white"/>
<path d="M24.5179 223.156C24.5179 223.156 17.2091 227.116 0.76416 232.901C0.76416 232.901 27.2587 256.958 104.023 256.958C175.262 256.958 206.629 233.205 206.629 233.205L179.83 221.633C179.83 221.633 113.138 249.042 24.5179 223.156Z" fill="#161616"/>
<path d="M0.76416 232.902V245.845C0.76416 245.845 39.2875 267.923 102.173 267.923C165.059 267.923 206.628 245.388 206.628 245.388V233.206C206.628 233.206 156.988 254.254 102.173 254.254C47.3581 254.254 0.76416 232.902 0.76416 232.902Z" fill="#F25C5C"/>
<path d="M194.276 229.845C194.005 229.171 192.897 229.466 193.172 230.15C193.678 231.407 193.417 232.738 192.676 233.847C191.858 235.069 190.512 235.76 189.083 235.984C186.409 236.406 182.692 235.456 181.298 232.933C181.34 232.902 181.384 232.872 181.426 232.84C182.666 231.873 183.25 230.343 183.405 228.816C183.583 227.062 183.095 225.259 182.094 223.815C181.678 223.214 180.686 223.785 181.106 224.392C182.923 227.012 182.848 231.727 179.198 232.672C175.704 233.577 172.805 230.84 170.516 228.612C170.485 228.582 170.453 228.556 170.421 228.535C170.2 227.912 169.18 228.22 169.338 228.912C169.706 230.527 169.898 232.379 169.509 234.011C169.145 235.542 167.687 236.381 166.203 236.564C164.721 236.747 163.28 236.272 162.164 235.291C160.914 234.191 159.812 232.887 158.663 231.682C158.551 231.564 158.423 231.512 158.298 231.508C157.951 231.267 157.294 231.577 157.389 232.143C157.681 233.891 158.01 235.836 157.206 237.504C156.552 238.858 155.208 239.565 153.738 239.611C150.393 239.716 148.142 236.887 146.486 234.346C146.403 234.218 146.293 234.142 146.175 234.106C145.849 233.897 145.278 234.051 145.253 234.566C145.111 237.51 144.378 241.293 140.84 241.756C139.318 241.955 137.806 241.308 136.649 240.349C135.357 239.28 134.639 237.79 133.539 236.558C133.52 236.537 133.502 236.519 133.482 236.502C133.309 235.992 132.399 236.065 132.365 236.717C132.21 239.662 131.682 243.542 128.055 243.939C124.592 244.319 122.16 241.362 121.231 238.354C121.168 238.15 121.031 238.032 120.872 237.982C120.834 237.351 119.793 237.387 119.725 238.08C119.408 241.367 117.959 245.644 114.079 246.008C112.248 246.179 110.681 245.018 109.449 243.792C108.17 242.516 107.158 240.985 106.487 239.306C106.388 239.061 106.181 238.944 105.969 238.927C105.675 238.628 105.106 238.625 105.034 239.137C104.611 242.139 102.963 245.219 100.008 246.372C98.5693 246.935 96.9387 247.033 95.4713 246.519C94.056 246.023 92.9943 244.925 92.2711 243.64C91.4322 242.15 91.0003 240.468 90.5983 238.817C90.4962 238.398 90.0742 238.328 89.778 238.487C89.9137 237.803 88.8482 237.523 88.6665 238.222C87.8736 241.265 85.8012 244.708 82.2551 244.765C78.6816 244.823 76.5494 241.4 75.6806 238.364C75.5723 237.987 75.2089 237.897 74.9226 238.002C74.6463 237.742 74.0936 237.757 73.9505 238.235C73.5609 239.543 72.5378 240.709 71.5806 241.652C70.5637 242.654 69.2904 243.203 67.849 242.976C66.5085 242.763 65.3621 241.931 64.6476 240.792C63.8597 239.535 63.744 238.155 63.7253 236.706C63.7203 236.331 63.4229 236.147 63.1316 236.153C62.8018 235.858 62.1421 235.988 62.1695 236.552C62.2018 237.223 61.7985 237.728 61.3542 238.188C60.8824 238.678 60.3771 239.162 59.8319 239.569C58.7938 240.346 57.5716 240.667 56.3094 240.286C53.7479 239.513 53.3408 236.534 53.1753 234.256C53.1417 233.796 52.6749 233.624 52.3463 233.744C52.1011 233.501 51.6692 233.451 51.4701 233.844C50.1868 236.385 47.5953 238.268 44.7363 238.543C41.861 238.82 39.1924 237.337 37.7784 234.837C37.0042 233.469 36.6744 231.864 36.9893 230.313C37.0914 229.808 36.4267 229.276 36.0321 229.757C34.1564 232.041 30.9787 234.391 27.8296 233.79C26.2787 233.493 25.2394 232.363 24.861 230.856C24.3955 229.009 24.9842 227.103 25.5456 225.347C25.7696 224.644 24.6656 224.343 24.4415 225.042C23.798 227.058 23.208 229.225 23.803 231.329C24.2361 232.862 25.2892 234.123 26.7716 234.678C24.5573 236.26 21.631 236.842 19.0172 235.977C17.643 235.522 16.6249 234.538 16.5377 233.037C16.4469 231.477 17.2136 230.062 17.948 228.741C18.3064 228.097 17.3182 227.519 16.9597 228.164C16.1158 229.681 15.2619 231.339 15.3988 233.13C15.5295 234.833 16.5153 236.151 18.0699 236.833C21.0921 238.157 24.8349 237.52 27.45 235.596C27.4661 235.585 27.4798 235.572 27.4935 235.561C27.3367 238.472 28.8851 242.249 32.2259 242.34C35.0924 242.417 37.6751 240.349 38.7767 237.804C38.9783 237.976 39.1887 238.14 39.4065 238.293C39.5571 238.399 39.7102 238.498 39.8658 238.592C39.6542 238.6 39.4625 238.726 39.4152 239.005C38.8949 242.062 41.0868 244.706 43.9123 245.582C46.678 246.44 49.954 245.907 52.3277 244.256C53.2413 243.622 54.0018 242.835 54.5656 241.908C54.649 243.302 54.8158 244.737 55.4917 245.974C56.3169 247.486 57.8628 248.244 59.5195 248.476C62.4483 248.887 65.3945 247.59 66.8483 245.087C67.2914 247.827 69.6476 250.045 72.4145 250.455C75.6109 250.928 79.5777 249.208 80.6917 246.005C80.7241 245.912 80.7316 245.827 80.7216 245.749C81.0365 245.823 81.3639 245.871 81.6999 245.894C81.5655 245.982 81.4796 246.133 81.507 246.354C81.6937 247.865 82.2439 249.299 83.267 250.444C84.381 251.692 85.9618 252.286 87.6073 252.372C90.7551 252.535 94.3485 250.886 94.6833 247.434C95.2808 247.69 95.8969 247.855 96.518 247.937C96.5243 248.015 96.5491 248.097 96.5989 248.181C98.3403 251.152 101.706 253.012 105.154 252.876C108.363 252.75 111.26 251.074 113.104 248.523C113.828 249.769 115.313 250.635 116.558 251.168C118.264 251.9 120.147 252.155 121.982 251.843C124.975 251.332 127.475 249.116 128.39 246.275C129.139 247.505 130.252 248.487 131.459 249.268C132.976 250.25 134.799 251.01 136.641 250.812C140.035 250.447 141.796 247.363 142.3 244.285C142.966 245.078 143.846 245.68 144.8 246.156C146.405 246.955 148.099 247.53 149.91 247.266C152.711 246.858 154.817 244.82 155.656 242.266C156.86 243.852 158.949 244.819 160.876 245.136C163.578 245.582 167.137 244.877 168.558 242.249C168.974 241.481 169.141 240.589 169.151 239.68C169.425 239.904 169.717 240.112 170.022 240.306C171.352 241.151 172.925 241.88 174.496 242.086C177.395 242.465 180.281 240.75 181.34 238.034C181.686 237.148 181.827 236.185 181.766 235.236C183.854 236.951 187.077 237.525 189.57 237.05C191.258 236.728 192.769 235.802 193.709 234.351C194.566 233.033 194.875 231.333 194.276 229.845ZM37.7909 237.218C36.9656 239.367 34.7874 241.158 32.4275 241.198C29.5348 241.247 28.4557 237.711 28.6536 235.353C28.6648 235.22 28.6361 235.112 28.5814 235.027C31.2201 235.124 33.8352 233.609 35.7471 231.758C35.8193 233.694 36.637 235.548 37.9402 236.992C37.878 237.051 37.827 237.124 37.7909 237.218ZM54.0702 240.347C53.0209 243.197 49.8632 244.736 46.9705 244.828C45.3225 244.88 43.5737 244.524 42.2631 243.468C41.0482 242.491 40.2529 240.886 40.5205 239.312C40.5466 239.159 40.5168 239.025 40.4533 238.914C43.0223 240.169 46.1166 239.884 48.6085 238.455C50.0337 237.638 51.251 236.468 52.1036 235.067C52.3077 236.97 52.7969 238.998 54.0976 240.285C54.0877 240.304 54.0789 240.324 54.0702 240.347ZM59.6328 247.347C58.2649 247.142 57.0401 246.532 56.4053 245.255C55.824 244.085 55.7481 242.71 55.6846 241.43C55.6821 241.376 55.6721 241.326 55.6585 241.28C55.8725 241.36 56.0991 241.427 56.3393 241.479C57.935 241.827 59.4199 241.348 60.6808 240.353C61.3417 239.831 62.1408 239.185 62.686 238.422C62.8279 239.571 63.149 240.67 63.8548 241.665C64.4784 242.542 65.3023 243.243 66.2608 243.679C65.2874 246.357 62.3898 247.761 59.6328 247.347ZM79.5877 245.703C78.6679 248.35 75.1454 249.74 72.5427 249.326C70.0185 248.924 67.9187 246.732 67.9199 244.134C69.4907 244.307 70.9445 243.777 72.1233 242.72C73.1476 241.803 74.1857 240.598 74.772 239.296C75.6308 241.849 77.2987 244.411 79.7645 245.441C79.6898 245.504 79.6275 245.589 79.5877 245.703ZM93.5544 247.287C93.354 250.204 90.1128 251.357 87.6085 251.229C86.2829 251.162 85.0432 250.684 84.1346 249.698C83.2969 248.791 82.804 247.573 82.6534 246.355C82.6273 246.146 82.5127 245.998 82.3659 245.908C86.0813 245.781 88.4785 242.588 89.544 239.311C90.2336 242.115 91.2132 245.284 93.7162 246.916C93.6266 247.007 93.5644 247.13 93.5544 247.287ZM105.154 251.734C102.251 251.847 99.4331 250.403 97.8312 247.994C100.167 247.881 102.433 246.674 103.91 244.799C104.854 243.602 105.51 242.209 105.884 240.739C107.109 243.242 109.084 245.674 111.64 246.746C111.988 246.893 112.341 246.995 112.692 247.062C111.111 249.748 108.33 251.613 105.154 251.734ZM121.856 250.71C120.293 251.011 118.637 250.79 117.168 250.195C115.904 249.683 114.224 248.761 113.852 247.337C113.877 247.292 113.901 247.247 113.925 247.203C113.935 247.184 113.943 247.166 113.95 247.148C116.207 247.027 118.295 245.475 119.415 243.447C120.018 242.357 120.381 241.173 120.612 239.958C121.61 242.24 123.346 244.261 125.833 244.901C126.386 245.043 126.957 245.114 127.526 245.109C127.055 247.936 124.628 250.177 121.856 250.71ZM141.296 243.017C141.14 245.919 139.66 249.574 136.261 249.702C134.679 249.762 133.176 249.045 131.889 248.186C130.649 247.358 129.583 246.3 128.972 244.929C129.3 244.846 129.619 244.736 129.929 244.596C131.213 244.014 132.127 242.9 132.66 241.618C133.106 240.545 133.301 239.392 133.408 238.235C133.768 238.74 134.102 239.265 134.485 239.754C135.03 240.449 135.664 241.06 136.378 241.58C137.806 242.617 139.577 243.164 141.333 242.834C141.312 242.887 141.298 242.949 141.296 243.017ZM149.788 246.14C148.291 246.379 146.867 245.891 145.534 245.248C144.326 244.666 143.065 243.868 142.553 242.562C142.539 242.526 142.522 242.494 142.503 242.464C143.718 241.924 144.716 240.945 145.318 239.747C145.893 238.6 146.154 237.343 146.287 236.075C148.182 238.688 150.748 241.109 154.207 240.723C154.416 240.699 154.622 240.664 154.824 240.619C154.833 240.649 154.841 240.68 154.851 240.71C154.493 243.39 152.56 245.698 149.788 246.14ZM167.204 242.215C166.228 243.366 164.669 243.984 163.194 244.108C161.68 244.236 160.122 243.946 158.756 243.278C157.636 242.729 156.469 241.848 156.009 240.647C156.026 240.497 156.039 240.348 156.047 240.197C156.959 239.752 157.722 239.046 158.194 238.083C158.918 236.603 158.92 234.998 158.728 233.409C159.185 233.888 159.641 234.367 160.098 234.846C160.719 235.499 161.34 236.153 162.08 236.674C163.458 237.642 165.235 237.946 166.873 237.607C167.041 237.572 167.208 237.529 167.372 237.479C167.529 237.803 167.712 238.106 167.919 238.39C168.128 239.744 168.056 241.211 167.204 242.215ZM176.61 240.833C174.905 241.272 173.27 240.72 171.744 239.961C170.744 239.464 169.725 238.832 169.005 237.961C168.938 237.579 168.853 237.205 168.756 236.849C169.605 236.305 170.277 235.52 170.566 234.513C170.932 233.235 170.938 231.806 170.769 230.434C172.701 232.228 174.888 233.881 177.612 233.978C178.492 234.009 179.391 233.871 180.209 233.538C181.43 236.562 179.818 240.008 176.61 240.833Z" fill="white"/>
<path d="M183.845 139.281C169.994 133.3 155.772 122.967 145.723 113.221C135.673 103.476 122.577 79.7226 120.689 74.8497C118.8 69.9767 110.093 66.0186 103.09 66.0186C96.0878 66.0186 94.8668 67.5408 90.6024 69.673C86.3394 71.8051 75.6798 96.1675 60.9601 112.003C46.2416 127.838 19.8503 141.308 19.8453 141.31C16.0179 143.033 9.75708 145.65 0.76416 148.814C0.76416 148.814 27.2587 172.873 104.023 172.873C175.262 172.873 206.629 149.119 206.629 149.119L183.845 139.281Z" fill="#161616"/>
<path d="M0.76416 148.813V161.756C0.76416 161.756 39.2875 183.834 102.173 183.834C165.059 183.834 206.628 161.299 206.628 161.299V149.117C206.628 149.117 156.988 170.165 102.173 170.165C47.3581 170.166 0.76416 148.813 0.76416 148.813Z" fill="#F25C5C"/>
<path d="M194.276 145.759C194.005 145.084 192.897 145.379 193.172 146.062C193.678 147.319 193.418 148.65 192.676 149.759C191.858 150.981 190.512 151.672 189.084 151.896C186.409 152.317 182.692 151.368 181.298 148.845C181.34 148.814 181.384 148.784 181.426 148.752C182.666 147.785 183.25 146.255 183.405 144.728C183.583 142.974 183.095 141.171 182.095 139.727C181.678 139.126 180.686 139.697 181.106 140.304C182.924 142.924 182.848 147.639 179.198 148.584C175.704 149.489 172.805 146.752 170.516 144.524C170.485 144.494 170.453 144.469 170.421 144.447C170.2 143.824 169.18 144.132 169.338 144.824C169.706 146.439 169.898 148.292 169.509 149.923C169.145 151.454 167.687 152.293 166.204 152.476C164.721 152.659 163.28 152.184 162.165 151.203C160.914 150.103 159.812 148.799 158.663 147.595C158.625 147.555 158.585 147.525 158.544 147.499C161.077 146.429 162.189 143.712 162.06 141.054C162.981 142.144 164.15 142.998 165.488 143.539C167.296 144.271 169.429 144.475 171.091 143.297C173.891 141.31 174.756 137.302 173.163 134.295C172.818 133.644 171.83 134.222 172.174 134.873C173.465 137.308 172.779 140.675 170.514 142.308C169.104 143.325 167.293 143.074 165.772 142.427C164.385 141.837 163.196 140.836 162.379 139.572C162.232 139.346 162.005 139.28 161.796 139.319C161.795 139.316 161.795 139.314 161.795 139.311C161.748 139.129 161.639 139.014 161.509 138.954C162.543 138.262 163.173 137.072 163.414 135.785C163.789 133.785 163.428 131.725 162.446 129.948C162.089 129.304 161.1 129.88 161.458 130.526C162.777 132.91 163.215 138.273 159.359 138.453C155.761 138.622 153.488 135.277 152.144 132.401C152.09 132.286 152.015 132.209 151.932 132.162C151.923 132.125 151.916 132.091 151.906 132.056C151.725 131.341 150.621 131.644 150.802 132.359C151.259 134.167 151.378 136.061 151.097 137.908C150.864 139.434 150.474 141.569 148.667 141.9C146.961 142.214 145.397 140.935 144.297 139.788C143.134 138.574 142.266 137.109 141.735 135.516C141.658 135.286 141.485 135.164 141.297 135.13C141.298 135.119 141.3 135.108 141.301 135.097C141.316 134.985 141.301 134.889 141.265 134.812C141.372 134.769 141.479 134.722 141.587 134.666C143.096 133.879 143.887 132.123 144.17 130.524C144.352 129.494 144.363 128.457 144.286 127.423C144.827 127.921 145.45 128.348 146.061 128.757C146.897 129.32 147.729 129.892 148.572 130.444C149.304 130.922 150.123 131.354 151.027 131.242C152.542 131.053 153.459 129.6 153.865 128.256C154.423 126.411 154.357 124.407 153.74 122.587C153.505 121.894 152.399 122.192 152.636 122.891C153.136 124.362 153.254 125.936 152.895 127.454C152.649 128.496 152.02 130.151 150.702 130.117C149.965 130.097 149.304 129.559 148.719 129.167C148.056 128.721 147.393 128.276 146.729 127.83C145.637 127.097 144.365 126.315 143.98 124.976C143.97 124.941 143.957 124.91 143.943 124.88C145.345 124.73 146.572 123.929 147.415 122.78C148.49 121.314 148.779 119.451 148.768 117.673C148.763 116.936 147.619 116.935 147.623 117.673C147.631 119.174 147.43 120.722 146.574 121.994C145.792 123.156 144.538 123.856 143.124 123.749C141.64 123.635 140.254 122.811 138.993 122.085C137.874 121.44 136.638 120.681 136.165 119.411C135.888 118.75 134.8 119.013 135.061 119.716C135.097 119.813 135.136 119.908 135.178 120C135.802 121.537 136.318 123.261 135.865 124.904C135.46 126.374 134.319 127.59 132.719 127.579C131.116 127.569 129.522 126.606 128.272 125.678C127.082 124.795 125.955 123.581 125.798 122.042C125.771 121.776 125.599 121.607 125.396 121.536C125.162 120.895 124.93 120.254 124.696 119.614C124.445 118.927 123.339 119.224 123.591 119.918C123.85 120.629 124.11 121.341 124.371 122.053C124.351 122.106 124.337 122.164 124.332 122.228C124.22 123.761 124.097 125.388 123.323 126.755C122.697 127.861 121.626 128.786 120.298 128.786C117.118 128.786 115.813 125.178 114.996 122.704C114.782 122.058 113.95 122.233 113.872 122.856C113.636 124.726 112.972 126.533 111.942 128.111C110.908 129.697 109.48 130.835 107.499 130.314C104.388 129.497 102.052 126.481 101.765 123.323C101.697 122.59 100.68 122.584 100.619 123.323C100.501 124.783 100.016 126.188 99.2241 127.421C98.4847 128.572 97.3185 129.893 95.9505 130.265C94.5976 130.633 93.272 129.693 92.6185 128.562C91.797 127.14 91.8505 125.388 91.9675 123.806C91.9825 123.606 91.9078 123.461 91.7908 123.37C91.924 122.688 90.8622 122.411 90.678 123.109C90.3357 124.405 89.8715 125.736 88.9404 126.736C88.1052 127.633 86.8257 128.271 85.581 127.976C82.7157 127.297 82.656 123.563 82.6821 121.261C82.6896 120.567 81.7884 120.546 81.5581 121.109C80.8922 122.733 80.194 124.452 78.9293 125.713C77.8129 126.826 76.1512 127.589 74.5779 127.063C73.1179 126.577 72.1196 125.214 71.4898 123.876C70.7156 122.23 70.4729 120.388 70.6845 118.591C70.6932 118.512 70.6857 118.443 70.6658 118.379C72.798 118.787 75.1168 118.011 76.5955 116.37C77.1171 115.79 77.5328 115.14 77.844 114.445C78.5796 117.146 80.0857 119.639 83.0057 120.388C84.655 120.811 86.3291 120.425 87.5999 119.289C88.4077 118.567 88.9827 117.641 89.4557 116.666C90.2897 118.973 92.4841 120.765 94.9971 120.873C97.5201 120.982 99.8128 119.33 100.819 117.098C101.507 119.096 102.832 120.888 104.718 121.883C107.51 123.355 111.065 122.541 112.932 119.99C113.466 119.26 113.822 118.431 114.007 117.564C115.077 119.072 116.742 120.173 118.565 120.507C121.388 121.027 124.123 119.589 125.564 117.149C125.928 116.534 126.19 115.881 126.351 115.206C127.637 117.473 129.703 119.61 132.307 119.674C135.369 119.747 137.846 117.4 138.756 114.628C139.357 112.797 139.377 110.816 139.141 108.921C139.052 108.199 137.905 108.19 137.996 108.921C138.416 112.3 137.919 116.47 134.444 118.069C132.933 118.764 131.285 118.663 129.949 117.646C128.449 116.505 127.293 114.881 126.61 113.134C126.584 113.067 126.548 113.008 126.507 112.96C126.497 112.854 126.485 112.747 126.47 112.641C126.371 111.914 125.267 112.224 125.366 112.946C125.771 115.881 123.516 118.944 120.591 119.422C117.619 119.908 114.616 117.678 114.017 114.784C113.868 114.062 112.769 114.369 112.913 115.088C113.631 118.65 110.497 122.067 106.849 121.424C103.791 120.883 101.77 117.798 101.467 114.869C101.399 114.203 100.428 114.142 100.328 114.705C100.255 114.791 100.206 114.904 100.196 115.042C100.017 117.627 97.596 119.84 94.9946 119.728C92.4417 119.618 90.2797 117.264 90.2411 114.746C90.2312 114.06 89.3499 114.021 89.1172 114.594C88.5932 115.885 88.0181 117.25 87.0236 118.256C85.9818 119.309 84.5666 119.651 83.1489 119.24C79.9774 118.321 78.8597 114.875 78.5074 111.933C78.4962 111.837 78.4688 111.755 78.4302 111.684C80.8773 112.095 83.5347 110.274 85.001 108.402C85.3719 107.927 85.703 107.427 85.9918 106.903C86.0378 107.425 86.1112 107.945 86.217 108.459C86.5232 109.949 87.2912 111.343 88.7823 111.895C91.6464 112.958 94.7556 110.755 96.3252 108.514C96.6936 107.987 97.0023 107.425 97.2513 106.837C97.8027 109.219 99.0498 111.426 101.496 112.301C104.67 113.436 108.196 111.79 109.784 108.931C110.129 108.311 110.392 107.65 110.576 106.966C111.631 108.992 113.221 110.805 115.263 111.605C118.363 112.822 121.554 110.541 122.75 107.737C123.259 106.542 123.494 105.267 123.572 103.978C124.748 106.2 126.94 107.963 129.481 108.18C131.072 108.316 132.537 107.539 133.222 106.08C133.976 104.475 133.642 102.688 133.015 101.101C132.747 100.424 131.64 100.719 131.911 101.406C132.418 102.688 132.818 104.175 132.232 105.503C131.668 106.784 130.399 107.238 129.078 106.975C126.712 106.505 124.791 104.532 124.089 102.271C124.006 102.004 123.794 101.882 123.575 101.873C123.494 101.19 122.403 101.201 122.435 101.922C122.589 105.343 121.751 109.987 117.703 110.729C115.828 111.073 114.259 109.887 113.083 108.557C112.115 107.463 111.382 106.19 110.888 104.824C110.902 104.385 110.886 103.944 110.838 103.507C110.772 102.894 109.94 102.794 109.736 103.224C109.502 103.326 109.327 103.562 109.406 103.881C109.494 104.237 109.6 104.599 109.723 104.963C109.518 108.107 107.58 111.142 104.179 111.476C102.401 111.65 100.688 110.976 99.6149 109.526C98.5246 108.053 98.1537 106.155 98.0541 104.363C98.0479 104.243 98.0105 104.142 97.9545 104.061C97.9669 103.931 97.9781 103.801 97.9856 103.671C98.0279 102.935 96.8828 102.937 96.8405 103.671C96.6625 106.784 94.4967 110.04 91.3726 110.845C89.7383 111.266 88.1886 110.744 87.5775 109.085C86.9078 107.268 86.9626 105.066 87.2365 103.179C87.2414 103.145 87.2427 103.112 87.2427 103.081C89.5628 103.495 91.9402 102.661 93.6641 100.84C94.2777 100.192 94.798 99.456 95.2112 98.6656C95.3543 99.4211 95.607 100.148 96.0576 100.795C97.0334 102.197 98.5793 102.747 100.239 102.36C103.019 101.711 104.586 99.2768 105.408 96.7027C106.036 99.2668 107.143 102.034 109.922 102.758C112.941 103.545 115.557 100.976 116.62 98.408C116.856 97.8354 117.032 97.2454 117.15 96.6467C118.232 98.9282 120.024 100.797 122.774 100.955C124.541 101.057 126.077 100.134 127.083 98.7266C128.269 97.0674 128.534 94.99 128.783 93.0197C128.875 92.2903 127.73 92.2978 127.638 93.0197C127.428 94.6789 127.202 96.4202 126.289 97.8603C125.473 99.1436 124.155 99.9539 122.608 99.797C119.241 99.456 117.775 95.9646 117.19 93.0757C117.043 92.3463 115.968 92.6649 116.086 93.3794C116.591 96.4301 115.272 100.617 111.998 101.599C110.465 102.06 109.017 101.35 108.056 100.144C106.959 98.7677 106.609 96.9554 106.258 95.2763C106.208 95.0361 106.051 94.9104 105.871 94.8755C105.881 94.822 105.892 94.7685 105.902 94.7162C105.906 94.695 105.908 94.6739 105.911 94.654C106.211 94.5992 106.508 94.5133 106.801 94.3876C108.066 93.8437 109.068 92.7346 109.638 91.4949C110.08 90.5353 110.303 89.5146 110.423 88.4778C111.412 90.2303 112.958 91.6505 114.931 92.2442C117.704 93.0782 120.914 92.1198 122.321 89.4798C123.039 88.1318 123.237 86.5186 122.706 85.0723C122.455 84.3865 121.349 84.6827 121.602 85.376C122.107 86.7526 121.84 88.255 121 89.4449C120.105 90.712 118.611 91.3717 117.083 91.3978C113.753 91.4526 111.305 88.7765 110.556 85.7183C110.535 85.6324 110.499 85.5627 110.454 85.5055C112.179 85.2229 113.766 84.1674 114.752 82.5966C115.297 81.7291 115.64 80.7545 115.812 79.7475C116.715 81.0432 117.995 82.0464 119.514 82.619C120.205 82.8791 120.502 81.7726 119.818 81.515C117.978 80.8217 116.528 79.2944 115.907 77.4336C115.713 76.8511 114.743 76.9084 114.783 77.5855C114.881 79.2758 114.538 81.0246 113.504 82.4012C112.557 83.6633 111.016 84.5085 109.423 84.4711C107.729 84.4313 106.257 83.2887 105.114 82.1348C103.908 80.9163 102.968 79.45 102.359 77.8481C102.275 77.624 102.106 77.5021 101.923 77.4647C103.986 77.1424 105.67 75.5093 106.03 73.5153C106.295 73.7667 106.584 73.9983 106.891 74.2148C107.946 74.9592 109.118 75.6213 110.324 76.0806C112.393 76.8698 115.123 76.6619 116.311 74.5347C116.671 73.8912 115.683 73.3124 115.323 73.9572C114.336 75.7259 112.027 75.5678 110.414 74.8907C109.487 74.5011 108.594 73.9746 107.755 73.4207C106.995 72.9179 106.244 72.3017 105.912 71.4255C105.655 70.7509 104.594 71.0097 104.808 71.7292C105.143 72.8544 104.875 74.0742 104.148 74.994C103.343 76.0122 102.086 76.4665 100.809 76.3657C98.0055 76.1441 96.3924 73.4232 96.6439 70.8019C96.7148 70.0688 95.5697 70.0737 95.4987 70.8019C95.1788 74.1389 97.5077 77.3764 100.979 77.5207C101.168 77.5282 101.356 77.5245 101.54 77.5108C101.326 77.6104 101.177 77.8369 101.254 78.153C101.748 80.1682 101.544 82.441 100.449 84.2359C99.3884 85.9722 97.5475 86.4377 95.7103 85.6648C94.0039 84.9478 92.5886 83.5326 91.6551 81.9556C90.7278 80.3885 90.1913 78.4244 91.1062 76.7316C91.456 76.0831 90.4689 75.5043 90.1179 76.1541C88.3853 79.3592 90.5125 83.2488 93.0517 85.3399C94.3387 86.3991 95.9742 87.2804 97.6906 87.197C97.8201 87.1908 97.9458 87.1771 98.0703 87.1597C98.0391 87.2331 98.023 87.319 98.0317 87.4198C98.0727 87.8778 98.1524 88.3322 98.2682 88.7753C98.3005 89.8942 97.8823 91.0082 97.133 91.8746C96.009 93.174 94.2951 93.6868 92.6173 93.4155C88.8234 92.8031 86.8805 89.0466 87.0609 85.4731C87.0983 84.7375 85.9532 84.7387 85.9158 85.4731C85.7503 88.7379 87.1643 92.2355 90.1789 93.7951C93.0156 95.2626 96.6127 94.7685 98.4536 92.0152C98.71 91.6306 98.9192 91.2149 99.0772 90.7817C99.8427 92.1434 100.984 93.2885 102.398 94.0104C103.135 94.3863 103.932 94.6452 104.738 94.71C104.225 97.2753 103.113 100.165 100.44 101.11C99.0909 101.587 97.7541 101.318 96.9513 100.082C96.1509 98.8498 96.1684 97.3076 96.1646 95.8924C96.1634 95.2651 95.1726 95.0921 95.0407 95.7406C94.5067 98.3445 92.7567 100.975 90.1291 101.821C87.1418 102.783 84.1508 100.909 82.7294 98.3146C81.8432 96.6965 81.4934 94.8469 81.4436 93.0184C81.4237 92.2828 80.2786 92.2803 80.2985 93.0184C80.3944 96.5982 81.705 100.342 84.9462 102.232C85.3383 102.461 85.7403 102.645 86.1473 102.791C86.1399 102.818 86.1324 102.845 86.1287 102.876C85.8685 104.732 85.1242 106.506 83.9069 107.94C82.7742 109.274 81.1835 110.478 79.37 110.571C77.3946 110.673 76.318 109.153 75.6321 107.504C74.8169 105.544 74.019 103.312 74.5966 101.184C74.7895 100.472 73.6855 100.168 73.4925 100.88C72.966 102.817 73.4104 104.787 74.0763 106.632C74.6277 108.16 75.2451 109.842 76.5769 110.867C76.9167 111.129 77.2689 111.325 77.6299 111.465C77.4892 111.552 77.3822 111.706 77.3598 111.933C77.0486 114.992 74.497 117.675 71.2857 117.314C69.8294 117.149 68.525 116.346 67.8441 115.036C67.1882 113.774 67.1919 112.223 67.9424 111.008C68.3308 110.379 67.3412 109.804 66.9541 110.43C65.4854 112.803 66.3343 116.073 68.6444 117.571C69.0042 117.804 69.3826 117.989 69.7734 118.133C69.6713 118.199 69.5904 118.299 69.5556 118.438C69.1759 119.947 68.2275 121.177 67.1458 122.261C66.0978 123.312 64.8071 124.398 63.2948 124.651C61.7949 124.901 60.5676 123.996 59.9801 122.658C59.2881 121.083 59.5632 119.265 59.781 117.619C59.8768 116.89 58.7317 116.898 58.6359 117.619C58.3794 119.553 58.1691 121.58 59.064 123.391C59.481 124.237 60.132 124.934 60.9236 125.366C60.9025 125.42 60.8887 125.48 60.8838 125.547C60.8713 125.715 60.8539 125.882 60.8302 126.05C60.7469 126.14 60.6921 126.263 60.6884 126.419C60.6859 126.543 60.6859 126.667 60.6871 126.792C60.1195 129.133 58.4579 131.288 56.149 132.067C55.442 132.306 54.5931 132.501 53.8637 132.252C53.0609 131.979 52.563 131.163 52.1622 130.465C51.2971 128.963 50.8777 127.259 50.8951 125.53C50.9026 124.793 49.7575 124.793 49.75 125.53C49.7288 127.584 50.2777 129.635 51.3743 131.377C51.688 131.877 52.0465 132.371 52.4945 132.755C51.9705 134.152 50.9773 135.309 49.9691 136.391C48.9148 137.522 47.6228 138.696 45.9748 138.665C44.3941 138.635 43.5639 137.249 43.1282 135.902C42.6029 134.278 42.2856 132.486 42.7386 130.81C42.9316 130.098 41.8275 129.794 41.6346 130.506C41.1043 132.467 41.4491 134.645 42.135 136.529C42.6702 138.004 43.6211 139.34 45.1757 139.708C44.7936 141.235 43.6933 142.424 42.4959 143.421C41.2101 144.493 39.5746 145.498 37.8557 145.563C36.133 145.628 34.8 144.546 34.134 143.012C33.3524 141.211 33.5752 139.156 33.7532 137.257C33.8216 136.524 32.6765 136.529 32.6081 137.257C32.3193 140.328 32.2259 144.284 35.2904 146.081C35.3763 146.132 35.4634 146.178 35.5505 146.223C33.6412 148.315 30.7211 150.259 27.8247 149.707C26.2738 149.411 25.2345 148.28 24.8561 146.773C24.3906 144.926 24.9793 143.02 25.5407 141.264C25.7647 140.561 24.6607 140.26 24.4366 140.959C23.7931 142.975 23.2031 145.142 23.7981 147.246C24.2313 148.781 25.2843 150.04 26.7667 150.596C24.5524 152.178 21.6261 152.759 19.0123 151.894C17.6381 151.439 16.62 150.455 16.5328 148.954C16.442 147.394 17.2087 145.979 17.9431 144.658C18.3015 144.014 17.3132 143.436 16.9548 144.081C16.1109 145.598 15.257 147.256 15.3939 149.047C15.5246 150.75 16.5104 152.068 18.065 152.75C21.0872 154.074 24.83 153.437 27.4451 151.513C27.4613 151.502 27.4749 151.489 27.4886 151.478C27.3318 154.389 28.8802 158.166 32.221 158.255C35.0875 158.333 37.6702 156.265 38.7718 153.72C38.9734 153.891 39.1838 154.056 39.4016 154.209C39.5522 154.315 39.7053 154.414 39.8609 154.508C39.6493 154.516 39.4576 154.642 39.4103 154.921C38.89 157.978 41.0819 160.62 43.9074 161.498C46.6731 162.355 49.9491 161.823 52.3228 160.172C53.2364 159.537 53.9969 158.751 54.5607 157.823C54.6441 159.217 54.8109 160.653 55.4868 161.89C56.312 163.402 57.8579 164.159 59.5146 164.392C62.4434 164.802 65.3896 163.505 66.8434 161.002C67.2865 163.743 69.6427 165.961 72.4096 166.371C75.606 166.844 79.5729 165.124 80.6869 161.921C80.7192 161.828 80.7267 161.743 80.7167 161.666C81.0316 161.739 81.359 161.788 81.6951 161.811C81.5606 161.899 81.4747 162.05 81.5021 162.271C81.6888 163.782 82.239 165.216 83.2621 166.361C84.3761 167.609 85.9569 168.203 87.6024 168.288C90.7502 168.451 94.3436 166.801 94.6785 163.35C95.2759 163.606 95.892 163.771 96.5131 163.853C96.5194 163.931 96.5443 164.013 96.594 164.098C98.3354 167.069 101.701 168.929 105.149 168.793C108.358 168.666 111.255 166.991 113.099 164.44C113.823 165.686 115.308 166.552 116.553 167.085C118.259 167.817 120.142 168.073 121.977 167.76C124.971 167.25 127.47 165.033 128.385 162.192C129.134 163.422 130.247 164.403 131.454 165.185C132.971 166.167 134.794 166.927 136.636 166.729C140.03 166.365 141.791 163.28 142.295 160.202C142.961 160.995 143.841 161.597 144.795 162.073C146.4 162.872 148.095 163.447 149.906 163.183C152.706 162.775 154.812 160.737 155.651 158.183C156.855 159.769 158.945 160.736 160.871 161.053C163.574 161.499 167.132 160.795 168.554 158.166C168.969 157.398 169.136 156.507 169.146 155.597C169.42 155.821 169.712 156.029 170.017 156.223C171.347 157.068 172.92 157.797 174.491 158.003C177.39 158.382 180.276 156.667 181.335 153.951C181.681 153.065 181.822 152.102 181.761 151.153C183.85 152.868 187.072 153.442 189.565 152.967C191.253 152.646 192.764 151.719 193.704 150.268C194.566 148.946 194.875 147.246 194.276 145.759ZM99.4183 88.6583C99.3971 88.1903 99.315 87.7235 99.1594 87.2729C99.1108 87.1323 99.015 87.0302 98.8992 86.9642C100.129 86.5311 101.095 85.554 101.7 84.3516C102.245 83.2662 102.547 82.0813 102.627 80.8802C103.752 82.6377 105.278 84.1799 107.122 85.0462C107.903 85.4146 108.717 85.5864 109.52 85.5864C109.469 85.6673 109.436 85.7631 109.433 85.8751C109.386 87.6389 109.366 89.5432 108.542 91.1501C107.85 92.5019 106.572 93.6582 104.973 93.5985C102.325 93.5001 100.144 91.1477 99.4183 88.6583ZM150.634 142.14C151.72 141.082 152.043 139.37 152.241 137.931C152.366 137.013 152.406 136.092 152.365 135.174C154.098 137.84 156.684 140.093 160.073 139.521C160.285 139.485 160.485 139.433 160.677 139.367C160.665 139.443 160.667 139.526 160.691 139.616C161.433 142.432 160.504 145.985 157.309 146.697C155.798 147.034 154.425 146.233 153.2 145.44C152.002 144.665 150.924 143.72 150.29 142.424C150.408 142.339 150.525 142.246 150.634 142.14ZM146.404 142.725C147.099 143.012 147.874 143.139 148.617 143.058C148.447 144.206 148.073 145.32 147.502 146.336C146.841 147.511 145.966 148.644 144.56 148.874C141.74 149.335 139.682 146.83 138.281 144.767C138.213 144.666 138.13 144.599 138.037 144.559C139.209 143.838 139.947 142.565 140.334 141.274C140.746 139.904 140.921 138.439 141.081 136.99C142.141 139.399 143.986 141.73 146.404 142.725ZM134.746 128.221C135.94 127.556 136.737 126.28 137.029 124.967C137.235 124.04 137.206 123.105 137.038 122.188C137.427 122.479 137.843 122.742 138.268 122.991C139.698 123.826 141.261 124.717 142.941 124.883C142.881 124.993 142.852 125.129 142.877 125.285C143.116 126.773 143.302 128.299 143.129 129.805C142.969 131.198 142.431 132.84 141.158 133.599C139.745 134.442 138.502 133.205 137.608 132.201C136.511 130.969 135.488 129.675 134.532 128.33C134.603 128.297 134.675 128.261 134.746 128.221ZM137.241 133.495C138.06 134.34 139.077 134.996 140.175 135.014C140.167 135.042 140.161 135.07 140.157 135.1C139.899 137.04 139.794 139.088 139.231 140.969C138.761 142.54 137.589 144.113 135.777 143.986C134.13 143.872 132.567 142.652 131.495 141.477C130.416 140.296 129.671 138.857 129.292 137.305C129.274 137.227 129.244 137.164 129.206 137.109C129.206 137.103 129.204 137.097 129.204 137.091C130.796 136.869 132.106 135.766 132.892 134.383C133.723 132.918 133.931 131.229 134.012 129.564C135.008 130.936 136.067 132.284 137.241 133.495ZM118.989 145.09C117.857 143.366 117.456 141.269 116.641 139.396C116.61 139.324 116.569 139.266 116.524 139.221C118.085 138.941 119.368 137.896 120.213 136.553C120.918 135.434 121.274 134.168 121.504 132.875C122.052 133.671 122.801 134.344 123.575 134.922C124.86 135.883 126.421 136.908 128.069 137.101C127.761 139.097 127.553 141.162 126.946 143.094C126.396 144.844 125.278 146.594 123.431 147.159C121.596 147.72 119.963 146.576 118.989 145.09ZM123.02 148.411C122.346 151.116 120.111 153.273 117.212 153.37C114.139 153.473 111.957 151.098 110.526 148.646C110.457 148.529 110.368 148.456 110.27 148.414C111.777 147.994 112.759 146.668 113.653 145.425C114.643 144.045 115.437 142.536 116.044 140.952C117.102 143.773 117.893 147.114 121.03 148.221C121.682 148.45 122.36 148.502 123.02 148.411ZM125.378 147.425C126.724 146.426 127.553 144.979 128.05 143.399C128.442 142.149 128.669 140.843 128.861 139.535C129.799 141.571 131.372 143.322 133.356 144.382C134.366 144.921 135.509 145.242 136.615 145.079C135.939 147.502 134.792 150.145 132.237 150.995C129.453 151.922 126.704 149.586 124.742 147.831C124.963 147.709 125.176 147.575 125.378 147.425ZM109.792 131.427C111.291 130.944 112.351 129.658 113.142 128.357C113.786 127.3 114.265 126.166 114.592 124.986C114.999 126.005 115.495 126.985 116.202 127.837C117.227 129.073 118.826 130.011 120.471 129.931C122.051 129.854 123.364 128.859 124.183 127.552C124.839 126.506 125.135 125.31 125.298 124.095C126.321 125.975 128.355 127.34 130.271 128.155C131.103 128.51 132.011 128.739 132.902 128.713C132.853 130.331 132.79 132.038 132.062 133.51C131.421 134.808 130.228 135.964 128.703 135.987C127.057 136.011 125.493 134.927 124.223 133.986C123.054 133.12 121.993 132.03 121.79 130.534C121.696 129.838 120.736 130.109 120.666 130.685C120.317 133.562 119.464 138.223 115.647 138.152C112.103 138.086 110.373 134.367 109.188 131.569C109.392 131.538 109.592 131.492 109.792 131.427ZM100.012 128.301C100.531 127.556 100.937 126.746 101.229 125.897C101.97 127.79 103.312 129.433 105.077 130.504C105.918 131.014 106.911 131.438 107.92 131.572C107.771 131.66 107.656 131.809 107.628 132.018C107.235 135.008 104.995 138.08 101.669 137.79C100.08 137.652 98.7138 136.516 97.7616 135.304C96.8704 134.171 96.3053 132.83 96.0601 131.417C97.7105 131.074 99.0884 129.625 100.012 128.301ZM95.3207 133.119C96.3065 136.019 98.7163 138.811 101.844 138.944C103.592 139.019 105.337 138.244 106.544 136.997C107.611 135.894 108.258 134.507 108.592 133.033C109.975 136.052 112.118 139.398 115.781 139.297C115.759 139.321 115.737 139.346 115.718 139.372C115.521 139.401 115.338 139.521 115.258 139.762C114.632 141.64 113.72 143.409 112.549 145.004C111.992 145.762 111.332 146.722 110.466 147.139C109.631 147.541 108.64 147.459 107.771 147.222C104.571 146.351 102.118 143.314 101.776 140.042C101.768 139.968 101.75 139.904 101.722 139.845C101.827 139.128 100.728 138.819 100.618 139.545C100.117 142.851 98.5681 148.334 94.3549 148.283C90.1453 148.232 88.0741 143.944 86.9576 140.506C86.8892 140.296 86.7411 140.176 86.573 140.131C86.578 140.1 86.583 140.069 86.588 140.038C86.6987 139.317 85.5959 139.006 85.4839 139.733C85.1217 142.092 84.1371 145.333 81.4586 145.954C79.9301 146.309 78.9493 144.96 78.3232 143.767C77.6062 142.402 77.3112 140.868 77.3922 139.335C77.4009 139.172 77.3511 139.046 77.2689 138.955C77.2739 138.832 77.2291 138.727 77.1594 138.645C77.7494 138.995 78.4489 139.163 79.2268 139.073C81.074 138.862 82.4182 137.418 83.3804 135.938C83.7389 135.385 84.0463 134.807 84.3052 134.208C84.3848 135.342 84.6164 136.464 85.0321 137.522C85.7316 139.307 87.5962 139.991 89.4072 139.727C92.8413 139.226 94.5403 136.202 95.3207 133.119ZM108.808 148.55C108.807 148.554 108.806 148.557 108.805 148.56C108.312 150.081 107.808 151.687 106.72 152.903C105.621 154.133 104.128 154.61 102.504 154.376C99.7593 153.98 96.904 152.108 96.1497 149.332C96.1335 149.274 96.1111 149.223 96.0837 149.178C96.1646 149.152 96.2468 149.124 96.3264 149.094C97.8388 148.523 98.949 147.29 99.7307 145.909C100.356 144.808 100.83 143.612 101.178 142.382C101.933 144.433 103.363 146.215 105.258 147.366C106.315 148.007 107.556 148.487 108.808 148.55ZM81.0391 147.159C81.1101 147.156 81.1823 147.153 81.2544 147.145C83.9866 146.861 85.4864 144.315 86.1996 141.82C87.2389 144.707 88.7936 147.578 91.7335 148.844C92.55 149.196 93.4425 149.409 94.3337 149.425C92.916 151.601 90.7988 153.738 88.0667 153.776C84.691 153.82 82.3909 150.93 81.0964 148.138C81.1275 147.985 81.1598 147.832 81.1885 147.679C81.2333 147.463 81.1623 147.283 81.0391 147.159ZM69.3178 145.954C68.9444 148.549 67.3997 152.024 64.1835 151.568C61.409 151.173 61.2846 147.657 61.3281 145.501C61.3306 145.363 61.292 145.252 61.2286 145.166C61.3742 144.367 61.5198 143.568 61.6654 142.769C62.935 142.48 64.1573 141.853 65.1817 141.001C66.1389 140.205 66.933 139.239 67.6375 138.212C67.5118 139.548 67.6001 140.897 67.92 142.209C68.2959 143.755 68.9245 145.376 70.7069 145.591C72.2491 145.776 73.729 144.918 74.7497 143.823C75.4305 143.091 75.9346 142.242 76.3516 141.346C76.5221 142.454 76.8843 143.531 77.4307 144.519C78.063 145.662 78.9903 146.773 80.2475 147.078C80.1716 147.145 80.1131 147.242 80.0869 147.374C79.7994 148.854 79.4521 150.368 78.6132 151.645C77.8664 152.782 76.5719 153.717 75.1629 153.677C72.0549 153.589 71.3068 149.388 70.2601 147.159C70.3248 146.859 70.3783 146.559 70.4219 146.258C70.5252 145.538 69.4224 145.227 69.3178 145.954ZM79.6065 126.651C80.4616 125.845 81.0876 124.859 81.6092 123.813C81.7013 124.726 81.8942 125.622 82.2962 126.462C82.8999 127.725 84.0326 128.851 85.4453 129.12C86.9253 129.402 88.4214 128.803 89.5018 127.796C90.0308 127.304 90.449 126.717 90.7863 126.082C90.8635 127.271 91.1323 128.44 91.807 129.427C92.4492 130.368 93.4176 131.126 94.5154 131.389C94.0337 134.306 92.911 137.628 89.7507 138.491C89.0724 138.676 88.3616 138.705 87.6808 138.513C86.8095 138.269 86.3042 137.73 86.0166 136.889C85.4242 135.154 85.2636 133.284 85.5399 131.472C85.5847 131.183 85.4329 130.96 85.2288 130.843C85.2474 130.704 85.2648 130.566 85.2785 130.425C85.3532 129.693 84.2068 129.698 84.1334 130.425C83.9716 132.021 83.4625 133.571 82.646 134.951C81.8967 136.217 80.8088 137.646 79.2654 137.918C77.5403 138.223 76.6018 136.766 76.3528 135.263C76.2147 134.428 76.2234 133.564 76.191 132.72L76.0827 129.909C76.074 129.695 75.972 129.544 75.8301 129.454C75.8836 129.301 75.9346 129.147 75.9819 128.99C76.0678 128.708 75.9421 128.49 75.7467 128.375C77.1793 128.337 78.5659 127.633 79.6065 126.651ZM76.9067 138.478C76.6254 138.385 76.2632 138.475 76.1325 138.833C75.6434 140.174 75.133 141.563 74.2257 142.684C73.4602 143.63 72.3188 144.514 71.0405 144.474C69.5257 144.427 69.1797 142.71 68.932 141.499C68.6183 139.965 68.6569 138.379 69.0066 136.855C69.0315 136.747 69.0266 136.649 69.0004 136.562C69.044 136.553 69.0876 136.543 69.1311 136.532C70.7044 136.141 72.1657 134.936 73.2473 133.772C73.9307 133.037 74.5157 132.22 74.9949 131.346C75.021 132.021 75.0472 132.697 75.0733 133.371C75.1119 134.368 75.1318 135.4 75.4367 136.36C75.7143 137.235 76.2246 137.986 76.9067 138.478ZM62.014 125.766C62.3637 125.837 62.7297 125.861 63.1056 125.827C64.9191 125.668 66.4973 124.5 67.762 123.269C68.4204 122.628 69.0403 121.935 69.5506 121.173C69.7 122.371 70.0472 123.542 70.5874 124.632C71.3728 126.218 72.6748 127.723 74.4335 128.217C74.67 128.283 74.9065 128.328 75.1442 128.354C75.0272 128.416 74.9301 128.525 74.8816 128.688C74.3476 130.449 73.3855 132.05 72.0723 133.34C70.8003 134.591 68.9419 136.033 67.0799 135.268C65.4356 134.594 64.069 133.115 63.1865 131.61C62.3388 130.163 61.877 128.535 61.8397 126.864C61.9206 126.502 61.9791 126.135 62.014 125.766ZM53.8513 133.429C54.6068 133.587 55.4171 133.477 56.1515 133.269C58.2923 132.662 59.9776 131.102 60.9908 129.176C61.5248 131.405 62.7508 133.469 64.5083 134.956C65.341 135.66 66.3057 136.294 67.3537 136.537C65.5962 139.351 62.9151 142.428 59.2669 141.756C57.4609 141.423 56.251 139.998 55.3212 138.519C54.384 137.027 53.3945 135.225 53.8513 133.429ZM50.5192 137.484C51.2772 136.7 52.0216 135.868 52.629 134.955C52.746 135.931 53.1144 136.886 53.5675 137.768C54.2969 139.187 55.2254 140.655 56.48 141.667C57.6812 142.636 59.0777 143.008 60.4743 142.936C60.4133 143.268 60.3535 143.6 60.2926 143.933C60.1868 143.974 60.0934 144.06 60.0312 144.204C59.0578 146.49 56.7477 148.018 54.2807 148.172C51.4863 148.348 49.2173 146.626 47.9265 144.25C47.1797 142.876 46.7391 141.332 46.5486 139.783C48.0983 139.61 49.4438 138.594 50.5192 137.484ZM37.791 153.13C36.9657 155.279 34.7875 157.07 32.4276 157.11C29.5349 157.159 28.4558 153.621 28.6537 151.265C28.6649 151.132 28.6362 151.024 28.5815 150.939C31.2202 151.036 33.8353 149.521 35.7472 147.67C35.8194 149.606 36.6371 151.461 37.9403 152.904C37.8781 152.964 37.8271 153.038 37.791 153.13ZM54.0703 156.259C53.021 159.108 49.8633 160.648 46.9706 160.74C45.3226 160.792 43.5738 160.435 42.2632 159.381C41.0483 158.403 40.253 156.798 40.5206 155.225C40.5467 155.071 40.5169 154.937 40.4534 154.826C43.0224 156.081 46.1167 155.795 48.6086 154.367C50.0338 153.55 51.2511 152.38 52.1037 150.979C52.3078 152.882 52.797 154.91 54.0977 156.197C54.0877 156.217 54.079 156.238 54.0703 156.259ZM53.1766 150.174C53.143 149.713 52.6763 149.541 52.3477 149.661C52.1025 149.418 51.6705 149.369 51.4714 149.763C50.1881 152.303 47.5967 154.186 44.7376 154.462C41.8624 154.738 39.1937 153.255 37.7798 150.755C37.0778 149.513 36.7429 148.077 36.9209 146.663C39.3406 147.041 41.8947 145.492 43.656 143.935C44.4501 143.233 45.1869 142.42 45.7022 141.493C46.281 143.996 47.4884 146.382 49.5882 147.932C51.9904 149.707 55.2267 149.718 57.7982 148.285C58.723 147.77 59.5445 147.067 60.1818 146.224C60.2154 148.349 60.6274 150.862 62.3339 152.052C62.2293 152.144 62.1621 152.281 62.1708 152.468C62.2032 153.138 61.7999 153.644 61.3555 154.104C60.8838 154.593 60.3784 155.078 59.8333 155.485C58.7952 156.261 57.5729 156.582 56.3108 156.202C53.7479 155.43 53.3409 152.451 53.1766 150.174ZM59.6329 163.26C58.2649 163.055 57.0402 162.445 56.4054 161.168C55.8241 159.998 55.7482 158.625 55.6847 157.343C55.6822 157.289 55.6722 157.24 55.6585 157.194C55.8726 157.273 56.0992 157.34 56.3394 157.393C57.9351 157.74 59.42 157.261 60.6809 156.266C61.3418 155.745 62.1409 155.098 62.6861 154.336C62.828 155.486 63.1491 156.584 63.8549 157.578C64.4785 158.456 65.3024 159.157 66.2609 159.592C65.2875 162.271 62.3899 163.673 59.6329 163.26ZM64.649 156.709C63.8648 155.459 63.7466 154.086 63.7267 152.643C63.825 152.664 63.9258 152.682 64.0304 152.695C65.6211 152.914 67.2641 152.241 68.3532 151.083C68.9656 150.432 69.4174 149.671 69.7472 148.854C70.2601 150.166 70.6895 151.522 71.5272 152.667C72.1209 153.479 72.9 154.172 73.8161 154.54C73.3581 155.69 72.4445 156.721 71.5832 157.57C70.5663 158.572 69.2929 159.12 67.8516 158.893C66.5098 158.68 65.3634 157.848 64.649 156.709ZM79.5878 161.616C78.668 164.263 75.1455 165.654 72.5428 165.239C70.0186 164.837 67.9188 162.645 67.92 160.048C69.4908 160.221 70.9446 159.69 72.1234 158.634C73.1477 157.716 74.1858 156.512 74.7721 155.21C75.6309 157.762 77.2988 160.324 79.7645 161.355C79.6899 161.417 79.6276 161.503 79.5878 161.616ZM75.8363 154.78C77.198 154.587 78.4365 153.757 79.2704 152.682C79.9338 151.828 80.3645 150.846 80.6769 149.821C82.2278 152.562 84.7321 154.964 88.0679 154.92C88.1949 154.918 88.3193 154.911 88.4438 154.902C87.5202 157.73 85.5088 160.63 82.2564 160.682C78.8771 160.737 76.7872 157.68 75.8363 154.78ZM93.5545 163.201C93.3541 166.117 90.1129 167.271 87.6086 167.142C86.283 167.075 85.0433 166.597 84.1347 165.611C83.297 164.704 82.8041 163.487 82.6535 162.268C82.6273 162.059 82.5128 161.911 82.366 161.821C86.0814 161.694 88.4786 158.502 89.5441 155.225C90.2337 158.029 91.2132 161.198 93.7163 162.83C93.6267 162.92 93.5645 163.044 93.5545 163.201ZM95.4726 162.438C94.0574 161.941 92.9956 160.843 92.2725 159.559C91.4335 158.069 91.0016 156.386 90.5996 154.735C90.5685 154.605 90.505 154.508 90.4241 154.442C92.4094 153.645 94.0213 151.961 95.2137 150.17C96.304 153.156 99.4618 155.165 102.544 155.529C103.389 155.629 104.218 155.564 104.992 155.334C104.509 158.247 102.872 161.173 100.008 162.292C98.5719 162.852 96.9401 162.952 95.4726 162.438ZM105.154 167.648C102.251 167.759 99.4332 166.316 97.8313 163.908C100.168 163.794 102.433 162.587 103.91 160.712C104.854 159.515 105.51 158.122 105.884 156.652C107.109 159.155 109.085 161.587 111.64 162.659C111.988 162.806 112.341 162.908 112.692 162.976C111.111 165.661 108.33 167.526 105.154 167.648ZM109.452 159.708C108.172 158.432 107.16 156.901 106.489 155.222C106.411 155.027 106.263 154.913 106.097 154.866C106.549 154.613 106.97 154.295 107.351 153.904C108.539 152.683 109.169 151.088 109.701 149.495C111.374 152.243 113.953 154.715 117.399 154.504C118.224 154.453 119.01 154.261 119.735 153.954C119.733 153.967 119.729 153.98 119.728 153.995C119.411 157.282 117.962 161.559 114.082 161.922C112.25 162.096 110.683 160.935 109.452 159.708ZM121.856 166.623C120.293 166.925 118.638 166.703 117.168 166.108C115.904 165.597 114.224 164.674 113.852 163.25C113.877 163.205 113.902 163.161 113.925 163.115C113.935 163.096 113.943 163.079 113.95 163.06C116.207 162.939 118.295 161.387 119.416 159.359C120.018 158.269 120.381 157.085 120.612 155.871C121.61 158.152 123.346 160.173 125.833 160.813C126.386 160.955 126.957 161.026 127.526 161.021C127.055 163.849 124.628 166.091 121.856 166.623ZM141.296 158.93C141.14 161.833 139.66 165.487 136.261 165.614C134.679 165.674 133.176 164.957 131.889 164.098C130.649 163.271 129.583 162.212 128.972 160.841C129.3 160.758 129.62 160.648 129.929 160.507C131.213 159.924 132.128 158.81 132.66 157.528C133.106 156.456 133.301 155.303 133.408 154.145C133.768 154.651 134.102 155.176 134.485 155.665C135.03 156.36 135.664 156.971 136.378 157.491C137.806 158.528 139.577 159.074 141.333 158.745C141.312 158.799 141.299 158.862 141.296 158.93ZM149.789 162.053C148.291 162.292 146.867 161.804 145.534 161.162C144.326 160.579 143.065 159.78 142.553 158.477C142.539 158.441 142.522 158.408 142.503 158.379C143.718 157.838 144.716 156.86 145.318 155.661C145.893 154.515 146.154 153.258 146.287 151.99C148.182 154.602 150.748 157.023 154.207 156.637C154.416 156.614 154.622 156.579 154.825 156.534C154.833 156.564 154.841 156.595 154.851 156.625C154.493 159.302 152.561 161.611 149.789 162.053ZM153.738 155.524C150.393 155.629 148.142 152.8 146.486 150.259C146.403 150.131 146.293 150.055 146.175 150.019C145.849 149.81 145.278 149.964 145.253 150.48C145.111 153.423 144.378 157.206 140.84 157.669C139.318 157.868 137.806 157.221 136.65 156.264C135.358 155.195 134.639 153.705 133.539 152.472C133.52 152.451 133.502 152.434 133.482 152.416C133.309 151.906 132.399 151.98 132.365 152.632C132.21 155.577 131.682 159.456 128.055 159.855C124.592 160.234 122.16 157.278 121.232 154.269C121.168 154.064 121.031 153.946 120.872 153.896C120.861 153.706 120.757 153.578 120.617 153.508C122.329 152.489 123.599 150.783 124.103 148.789C126.366 150.791 129.393 153.143 132.541 152.095C135.374 151.152 136.783 148.476 137.598 145.785C139.295 148.175 141.668 150.553 144.862 149.977C146.49 149.683 147.589 148.446 148.393 147.079C149.019 146.015 149.439 144.857 149.667 143.655C150.468 144.9 151.668 145.846 152.924 146.621C154.303 147.473 155.772 148.122 157.386 147.845C157.375 147.909 157.374 147.98 157.386 148.055C157.679 149.803 158.007 151.748 157.203 153.416C156.552 154.771 155.208 155.478 153.738 155.524ZM167.204 158.128C166.228 159.28 164.669 159.897 163.194 160.022C161.68 160.15 160.122 159.86 158.757 159.191C157.636 158.642 156.469 157.761 156.01 156.56C156.026 156.411 156.039 156.261 156.047 156.111C156.959 155.665 157.722 154.959 158.194 153.996C158.918 152.516 158.92 150.912 158.728 149.322C159.185 149.801 159.642 150.281 160.098 150.76C160.719 151.412 161.341 152.067 162.08 152.587C163.458 153.555 165.235 153.859 166.873 153.521C167.041 153.486 167.208 153.442 167.372 153.392C167.529 153.716 167.712 154.02 167.919 154.303C168.128 155.658 168.056 157.124 167.204 158.128ZM176.61 156.747C174.905 157.185 173.27 156.634 171.744 155.874C170.744 155.378 169.725 154.745 169.005 153.874C168.938 153.492 168.854 153.118 168.756 152.763C169.605 152.219 170.277 151.433 170.566 150.426C170.932 149.148 170.938 147.719 170.769 146.347C172.701 148.141 174.888 149.794 177.612 149.891C178.492 149.922 179.391 149.784 180.209 149.452C181.43 152.475 179.818 155.922 176.61 156.747Z" fill="white"/>
<path d="M109.286 52.582C108.435 51.9311 107.479 51.4431 106.47 51.1581C106.553 37.276 106.637 23.3939 106.72 9.51187C106.733 7.45315 106.75 5.39442 106.758 3.33445C106.763 2.05989 106.599 0.48286 105.188 0.0273023C104.8 -0.0984119 104.502 0.231431 104.464 0.5787C102.974 13.8509 101.802 27.1579 100.955 40.4861C100.715 44.2724 100.5 48.0601 100.31 51.8501C100.31 51.8539 100.31 51.8564 100.31 51.8601C99.2844 52.3007 98.3073 52.8447 97.4808 53.5989C95.864 55.0752 95.5291 57.0916 95.6001 59.1914C95.6673 61.1928 96.0059 63.3125 97.1186 65.0203C98.3148 66.8587 100.249 67.7026 102.28 68.3062C104.35 68.9211 106.336 69.0456 108.338 68.1307C110.137 67.3092 111.614 65.8069 112.398 63.9934C114.115 60.0303 112.676 55.176 109.286 52.582Z" fill="#DD3131"/>
<path d="M109.664 44.6164C109.498 41.5619 106.994 39.1173 103.966 38.8721C100.742 38.6107 97.8504 41.4698 97.9014 44.645C97.8616 44.8877 97.8367 45.1354 97.8317 45.3881C97.7608 48.7537 100.937 51.4435 104.216 51.2892C107.525 51.1323 109.834 47.7518 109.664 44.6164Z" fill="#161616"/>
<path d="M108.984 24.8444C108.855 22.4558 106.897 20.5439 104.527 20.351C102.005 20.1456 99.7446 22.3824 99.7832 24.8655C99.7521 25.056 99.7322 25.2501 99.7285 25.4468C99.6725 28.0793 102.157 30.1829 104.721 30.0621C107.311 29.9414 109.116 27.2977 108.984 24.8444Z" fill="#161616"/>
<path d="M107.904 8.75942C107.822 7.2521 106.587 6.04599 105.092 5.92525C103.501 5.79581 102.075 7.20729 102.1 8.77311C102.08 8.8926 102.068 9.01583 102.065 9.1403C102.03 10.8007 103.597 12.1276 105.215 12.0516C106.848 11.9757 107.987 10.3078 107.904 8.75942Z" fill="#161616"/>
</svg>
