<svg width="40" height="36" viewBox="0 0 40 36" fill="none" xmlns="http://www.w3.org/2000/svg">
<path d="M16.6168 2.08134C13.3568 3.55034 10.2598 5.35936 7.36079 7.45036C4.82279 9.28136 2.29379 11.4224 0.910794 14.2964C-0.357206 16.9304 -0.319209 19.8314 1.13779 22.2794C1.43579 23.4724 2.1368 24.5383 2.9198 25.5303C2.9408 25.5674 2.9628 25.6044 2.9898 25.6404C4.9538 28.3134 7.1588 30.8814 9.6578 33.0714C12.0408 35.1594 14.7598 35.9964 17.9038 35.4284C20.9828 34.8714 23.8818 33.3023 26.5838 31.7883C28.8488 30.5193 31.0688 29.0603 32.9418 27.2453C34.8658 26.0413 36.2398 24.1563 37.4088 22.2193C37.5878 21.9463 37.7548 21.6673 37.9048 21.3793C37.9428 21.3133 37.9818 21.2464 38.0198 21.1814C39.4028 18.7684 39.4348 16.2404 38.8148 13.6794C38.6698 12.8694 38.4288 12.0734 38.1068 11.3174C37.5318 9.96937 36.7028 8.77737 35.7428 7.68437C34.5018 5.95037 33.1558 4.28837 31.6878 2.74837C30.7298 1.74337 29.6458 0.841358 28.2688 0.501358C27.7768 0.379358 27.2798 0.321343 26.7818 0.305343C26.6788 0.278343 26.5748 0.252355 26.4698 0.229355C23.0558 -0.520645 19.6988 0.692344 16.6168 2.08134Z" fill="#161616"/>
<path d="M22.258 2.28412C20.878 2.70212 19.519 3.19613 18.19 3.75613C17.689 3.96713 17.193 4.19213 16.7 4.42313C14.183 5.40313 11.736 6.56612 9.41398 7.93012C5.85998 10.0181 2.50398 13.0181 1.71398 17.2531C1.68898 17.3851 1.69098 17.5091 1.71298 17.6251C1.70698 17.6591 1.69898 17.6931 1.69398 17.7271C1.48498 19.0881 1.93398 20.5711 3.12798 21.3511C4.36298 22.1591 6.07298 22.1311 7.52898 22.0761C8.29698 22.1521 9.07898 22.1441 9.84498 22.0741C12.868 21.7971 15.866 20.8181 18.59 19.5021C23.396 17.1781 28.877 12.9361 29.583 7.23813C29.856 5.03613 29.058 2.30012 26.643 1.70612C25.186 1.34812 23.645 1.86412 22.258 2.28412Z" fill="white"/>
<path d="M13.5447 7.74835C12.3547 8.23535 11.2697 9.00834 10.4277 9.98034C9.65472 10.8733 8.75972 12.1903 8.90072 13.4453C8.77672 13.7363 8.80672 14.0813 9.10572 14.3743C9.17372 14.4413 9.24173 14.5033 9.31073 14.5633C10.6567 16.5454 14.5857 15.1803 16.2617 14.3503C17.6957 13.6403 19.0377 12.6323 20.0747 11.4093C20.6457 10.7353 20.7597 10.0413 20.5307 9.43634C20.5267 9.14034 20.4587 8.84435 20.2967 8.55435C19.0937 6.40035 15.3807 6.99735 13.5447 7.74835Z" fill="#DD3131"/>
</svg>
