<svg width="97" height="99" viewBox="0 0 97 99" fill="none" xmlns="http://www.w3.org/2000/svg">
<path d="M87.166 26.1037C87.166 26.1037 96.8851 17.5573 83.6479 14.3813C74.9386 12.2929 65.0044 17.1375 58.6973 27.7112C60.1837 19.4127 59.0842 10.3643 50.5706 4.24987C50.5706 4.24987 40.4257 -3.51528 39.5936 8.17727C39.5936 8.17727 34.4666 -3.70649 27.3573 7.90239C22.8234 15.3015 24.129 25.8109 31.5939 34.8877C24.5324 31.5683 16.3161 30.5256 8.52851 36.2531C8.52851 36.2531 -1.99432 43.5059 8.87061 47.9038C8.87061 47.9038 -4.01704 49.1064 4.82519 59.4604C10.1045 65.6391 19.5578 67.7903 29.7221 64.5112C25.1956 69.9848 22.5201 76.9387 25.2853 85.2895C25.2853 85.2895 28.9288 97.5348 36.4714 88.5641C36.4714 88.5641 33.6331 101.192 46.2115 95.9782C53.2297 93.0696 58.0265 85.6062 58.642 75.9244C62.4424 81.2396 67.9921 85.2193 76.0949 85.173C76.0949 85.173 88.8705 85.4912 82.6679 75.5435C82.6679 75.5435 93.8003 82.1434 92.7321 68.5701C92.1047 60.6242 85.95 53.4536 76.1382 50.0475C83.9078 48.6299 91.3204 44.6621 94.2932 35.3299C94.2932 35.3299 98.5433 23.2833 87.166 26.1037Z" fill="#FFFEFB"/>
<path d="M41.0158 98.9631C38.3702 98.9631 36.8673 97.78 36.0711 96.788C35.0911 95.5631 34.6729 94.0229 34.5265 92.5828C33.4285 93.2401 32.329 93.5732 31.2384 93.5732C26.098 93.5732 23.8677 86.5774 23.6316 85.7797C21.5059 79.3635 22.1826 73.155 25.6424 67.2975C23.8901 67.6052 22.1512 67.7606 20.4437 67.7606C13.4823 67.7606 7.46794 65.2105 3.51366 60.5795C0.376525 56.9076 -0.666215 53.6988 0.410867 51.0442C1.16975 49.1738 2.80854 48.0131 4.43687 47.299C3.14915 46.1756 2.41864 44.8759 2.25731 43.4105C1.7703 38.9557 6.95702 35.242 7.54859 34.8341C13.2597 30.6319 19.9059 29.4233 27.0287 31.3579C22.1826 23.0594 21.6448 13.9229 25.8844 7.00328C28.288 3.08037 30.8859 1.09203 33.6017 1.09203C35.8022 1.09203 37.5441 2.36331 38.8034 3.7795C40.1688 0.582611 42.6516 0 44.274 0C47.7487 0 51.2294 2.58739 51.6149 2.88467C57.7308 7.27367 60.9098 13.6824 60.9665 21.6193C66.1622 15.6244 72.8219 12.184 79.5906 12.184C81.1024 12.184 82.6008 12.3603 84.0483 12.7069C88.7436 13.8348 91.4744 15.8156 92.1631 18.5972C92.6486 20.5572 92.0032 22.4574 91.1069 23.9931C93.5359 24.2157 94.8655 25.3824 95.5691 26.3758C97.9742 29.7744 96.1338 35.2898 95.9157 35.9067C93.6763 42.9369 88.6928 47.907 81.3863 50.4556C88.9901 54.4875 93.8661 61.0695 94.4457 68.4373C94.7639 72.4558 94.1245 75.2658 92.4962 77.0286C91.3788 78.2356 89.8207 78.8735 87.9847 78.8735C87.2721 78.8735 86.561 78.7779 85.8888 78.627C86.2697 80.2733 86.1054 81.7388 85.4003 83.0115C83.3985 86.6192 77.8697 86.9001 76.2205 86.9001L76.0472 86.8986H75.953C69.6041 86.8986 64.2022 84.613 59.8521 80.091C58.282 88.3925 53.6002 94.7803 46.8658 97.5738C44.6086 98.5075 42.6935 98.9631 41.0158 98.9631ZM36.47 86.8403C36.7284 86.8403 36.9914 86.9001 37.2349 87.0211C37.9474 87.3736 38.3254 88.1669 38.1506 88.9422C37.9325 89.9446 37.5665 93.1475 38.7661 94.6384C39.0693 95.0163 39.6325 95.5182 41.0158 95.5182C42.2154 95.5182 43.7407 95.1388 45.5497 94.3889C52.1034 91.673 56.3534 84.731 56.9196 75.817C56.9659 75.091 57.4649 74.4711 58.1655 74.2694C58.8661 74.0677 59.6175 74.3306 60.0418 74.9237C64.0887 80.584 69.4427 83.4522 75.956 83.4522H76.083H76.2234C77.9504 83.4522 81.461 83.0115 82.3887 81.3369C83.1117 80.0342 82.1437 77.9652 81.204 76.4564C80.7842 75.7812 80.8783 74.9073 81.4326 74.3396C81.9883 73.7719 82.8607 73.6569 83.5434 74.0617C83.5643 74.0737 85.8903 75.4257 87.9877 75.4257C88.8601 75.4257 89.5099 75.1836 89.9671 74.6877C90.6049 73.999 91.3026 72.402 91.0128 68.7062C90.4257 61.3071 84.5085 54.7803 75.5691 51.6776C74.8282 51.4206 74.3546 50.6976 74.4174 49.9178C74.4771 49.138 75.0552 48.4956 75.8246 48.3552C84.6369 46.7478 90.2987 42.19 92.6501 34.8102C93.0609 33.6286 93.9258 30.0164 92.7546 28.3642C92.5858 28.1266 92.0689 27.4021 90.2494 27.4021C89.4875 27.4021 88.5897 27.5306 87.5784 27.7801C86.8075 27.9728 86.0053 27.6098 85.6378 26.9061C85.2688 26.201 85.4287 25.3376 86.0262 24.8132C86.9031 24.0364 89.3023 21.3713 88.8153 19.4233C88.4687 18.034 86.4893 16.8404 83.2446 16.0606C82.057 15.7768 80.829 15.6334 79.5891 15.6334C72.2751 15.6334 65.0164 20.4795 60.1733 28.5987C59.7475 29.3128 58.8706 29.622 58.0908 29.3292C57.3125 29.0379 56.8509 28.2312 56.9973 27.4111C58.7272 17.7592 56.225 10.4392 49.5623 5.65282C48.7242 5.01941 46.231 3.44786 44.2725 3.44786C43.5554 3.44786 41.6522 3.44786 41.3086 8.30145C41.2534 9.0947 40.6618 9.74603 39.879 9.87898C39.0947 10.0119 38.3239 9.59216 38.0087 8.86166C37.5187 7.74275 35.6573 4.53839 33.6003 4.53839C32.2035 4.53839 30.5079 6.05318 28.8243 8.8034C24.5563 15.7693 26.1638 25.5796 32.9235 33.7944C33.4329 34.4173 33.4464 35.3122 32.9504 35.9471C32.4575 36.582 31.588 36.7926 30.859 36.4475C22.928 32.7203 15.7216 33.0997 9.54443 37.6411C8.44195 38.4075 5.45419 40.9799 5.68276 43.037C5.84858 44.5249 7.85783 45.6363 9.51304 46.3056C10.2495 46.6044 10.6872 47.3677 10.5722 48.1535C10.4557 48.9393 9.81781 49.5443 9.02605 49.6175C7.86083 49.731 4.35171 50.4765 3.60178 52.3408C3.06399 53.6704 3.96181 55.8006 6.1324 58.3387C9.42341 62.1899 14.5041 64.3112 20.4407 64.3112C23.2776 64.3112 26.2205 63.8272 29.1873 62.8696C29.9164 62.6351 30.7126 62.9085 31.1428 63.5434C31.5716 64.1768 31.5327 65.0178 31.0442 65.6079C26.0876 71.6043 24.6968 78.0429 26.9182 84.7459C27.4545 86.5326 29.1978 90.1239 31.237 90.1239C32.326 90.1239 33.6809 89.2007 35.1479 87.4543C35.487 87.0555 35.974 86.8403 36.47 86.8403Z" fill="#E5B97F"/>
<path d="M71.1785 57.8959C70.4689 55.2936 67.7874 53.7579 65.1835 54.466C64.471 54.6617 63.8405 55.0082 63.3117 55.4564C60.9753 53.9595 58.361 52.9377 55.6048 52.3267C56.2995 48.3799 58.1459 44.7603 60.4973 41.5126C61.2502 41.777 62.0793 41.8592 62.9218 41.7173C65.5809 41.2676 67.3721 38.7459 66.9209 36.0883C66.4698 33.4292 63.9496 31.6381 61.289 32.0892C58.6299 32.5419 56.8403 35.0606 57.2914 37.7211C57.4244 38.5039 57.7411 39.209 58.1833 39.8066C56.1083 42.6629 54.3993 45.8179 53.3984 49.1881C52.0688 45.8986 51.6939 42.1221 51.2995 38.5219C53.1713 37.5867 54.2977 35.5087 53.9287 33.3396C53.4776 30.682 50.9574 28.8909 48.2968 29.342C45.6392 29.7932 43.8481 32.3133 44.2977 34.9724C44.6682 37.1445 46.419 38.737 48.4985 38.9984C48.9661 42.8272 49.4157 46.7576 50.82 50.2951C47.7217 48.4128 43.9093 47.6076 40.1821 47.2804C39.3858 45.1173 37.145 43.7579 34.7892 44.1567C32.1301 44.6079 30.3405 47.1281 30.7901 49.7872C31.2413 52.4448 33.7599 54.2359 36.4205 53.7848C38.3939 53.4486 39.8863 51.9712 40.3419 50.1442C44.5113 50.5251 48.7883 51.5798 51.5116 54.469C49.4725 57.3641 47.8173 60.5505 46.8985 63.9521C46.8941 63.9536 46.8881 63.9536 46.8836 63.955C44.226 64.4047 42.4333 66.9249 42.886 69.584C43.3356 72.2431 45.8558 74.0342 48.5149 73.5816C51.1755 73.1304 52.9652 70.6103 52.5155 67.9512C52.2347 66.3109 51.1695 65.0023 49.7698 64.3464C50.7034 61.0973 52.387 58.0886 54.4112 55.3518C54.595 55.3025 54.7638 55.2129 54.9102 55.0919C57.3497 55.6013 59.6921 56.5156 61.77 57.8556C61.5385 58.6802 61.5146 59.572 61.7536 60.4594C62.4617 63.0632 65.1447 64.5974 67.7485 63.8893C70.3508 63.1827 71.8851 60.4997 71.1785 57.8959Z" fill="#E5B97F"/>
</svg>
