<svg width="65" height="67" viewBox="0 0 65 67" fill="none" xmlns="http://www.w3.org/2000/svg">
<path d="M58.349 17.474C58.349 17.474 64.855 11.753 55.994 9.62704C50.164 8.22904 43.514 11.472 39.292 18.55C40.287 12.995 39.551 6.93804 33.852 2.84504C33.852 2.84504 27.061 -2.35296 26.504 5.47404C26.504 5.47404 23.072 -2.48096 18.313 5.29004C15.278 10.243 16.152 17.278 21.149 23.354C16.422 21.132 10.922 20.434 5.70899 24.268C5.70899 24.268 -1.335 29.123 5.938 32.067C5.938 32.067 -2.68901 32.872 3.22999 39.803C6.76399 43.939 13.092 45.379 19.896 43.184C16.866 46.848 15.075 51.503 16.926 57.093C16.926 57.093 19.365 65.29 24.414 59.285C24.414 59.285 22.514 67.738 30.934 64.248C35.632 62.301 38.843 57.305 39.255 50.824C41.799 54.382 45.514 57.046 50.938 57.015C50.938 57.015 59.49 57.228 55.338 50.569C55.338 50.569 62.79 54.987 62.075 45.901C61.655 40.582 57.535 35.782 50.967 33.502C56.168 32.553 61.13 29.897 63.12 23.65C63.12 23.65 65.965 15.586 58.349 17.474Z" fill="#FFFEFB"/>
<path d="M27.456 66.246C25.685 66.246 24.679 65.454 24.146 64.79C23.49 63.97 23.21 62.939 23.112 61.975C22.377 62.415 21.641 62.638 20.911 62.638C17.47 62.638 15.977 57.955 15.819 57.421C14.396 53.126 14.849 48.97 17.165 45.049C15.992 45.255 14.828 45.359 13.685 45.359C9.02504 45.359 4.99905 43.652 2.35205 40.552C0.252046 38.094 -0.445965 35.946 0.275035 34.169C0.783035 32.917 1.88004 32.14 2.97004 31.662C2.10804 30.91 1.61904 30.04 1.51104 29.059C1.18504 26.077 4.65703 23.591 5.05303 23.318C8.87603 20.505 13.325 19.696 18.093 20.991C14.849 15.436 14.489 9.32 17.327 4.688C18.936 2.062 20.675 0.731003 22.493 0.731003C23.966 0.731003 25.132 1.582 25.975 2.53C26.889 0.390001 28.551 0 29.637 0C31.963 0 34.293 1.732 34.551 1.931C38.645 4.869 40.773 9.159 40.811 14.472C44.289 10.459 48.747 8.156 53.278 8.156C54.29 8.156 55.293 8.274 56.262 8.506C59.405 9.261 61.233 10.587 61.694 12.449C62.019 13.761 61.587 15.033 60.987 16.061C62.613 16.21 63.503 16.991 63.974 17.656C65.584 19.931 64.352 23.623 64.206 24.036C62.707 28.742 59.371 32.069 54.48 33.775C59.57 36.474 62.834 40.88 63.222 45.812C63.435 48.502 63.007 50.383 61.917 51.563C61.169 52.371 60.126 52.798 58.897 52.798C58.42 52.798 57.944 52.734 57.494 52.633C57.749 53.735 57.639 54.716 57.167 55.568C55.827 57.983 52.126 58.171 51.022 58.171L50.906 58.17H50.843C46.593 58.17 42.977 56.64 40.065 53.613C39.014 59.17 35.88 63.446 31.372 65.316C29.861 65.941 28.579 66.246 27.456 66.246ZM24.413 58.131C24.586 58.131 24.762 58.171 24.925 58.252C25.402 58.488 25.655 59.019 25.538 59.538C25.392 60.209 25.147 62.353 25.95 63.351C26.153 63.604 26.53 63.94 27.456 63.94C28.259 63.94 29.28 63.686 30.491 63.184C34.878 61.366 37.723 56.719 38.102 50.752C38.133 50.266 38.467 49.851 38.936 49.716C39.405 49.581 39.908 49.757 40.192 50.154C42.901 53.943 46.485 55.863 50.845 55.863H50.93H51.024C52.18 55.863 54.53 55.568 55.151 54.447C55.635 53.575 54.987 52.19 54.358 51.18C54.077 50.728 54.14 50.143 54.511 49.763C54.883 49.383 55.467 49.306 55.924 49.577C55.938 49.585 57.495 50.49 58.899 50.49C59.483 50.49 59.918 50.328 60.224 49.996C60.651 49.535 61.118 48.466 60.924 45.992C60.531 41.039 56.57 36.67 50.586 34.593C50.09 34.421 49.773 33.937 49.815 33.415C49.855 32.893 50.242 32.463 50.757 32.369C56.656 31.293 60.446 28.242 62.02 23.302C62.295 22.511 62.874 20.093 62.09 18.987C61.977 18.828 61.631 18.343 60.413 18.343C59.903 18.343 59.302 18.429 58.625 18.596C58.109 18.725 57.572 18.482 57.326 18.011C57.079 17.539 57.186 16.961 57.586 16.61C58.173 16.09 59.779 14.306 59.453 13.002C59.221 12.072 57.896 11.273 55.724 10.751C54.929 10.561 54.107 10.465 53.277 10.465C48.381 10.465 43.522 13.709 40.28 19.144C39.995 19.622 39.408 19.829 38.886 19.633C38.365 19.438 38.056 18.898 38.154 18.349C39.312 11.888 37.637 6.988 33.177 3.784C32.616 3.36 30.947 2.308 29.636 2.308C29.156 2.308 27.882 2.308 27.652 5.557C27.615 6.088 27.219 6.524 26.695 6.613C26.17 6.702 25.654 6.421 25.443 5.932C25.115 5.183 23.869 3.038 22.492 3.038C21.557 3.038 20.422 4.052 19.295 5.893C16.438 10.556 17.514 17.123 22.039 22.622C22.38 23.039 22.389 23.638 22.057 24.063C21.727 24.488 21.145 24.629 20.657 24.398C15.348 21.903 10.524 22.157 6.38905 25.197C5.65105 25.71 3.65104 27.432 3.80404 28.809C3.91504 29.805 5.26004 30.549 6.36804 30.997C6.86104 31.197 7.15404 31.708 7.07704 32.234C6.99904 32.76 6.57205 33.165 6.04205 33.214C5.26205 33.29 2.91304 33.789 2.41104 35.037C2.05104 35.927 2.65204 37.353 4.10504 39.052C6.30804 41.63 9.70904 43.05 13.683 43.05C15.582 43.05 17.552 42.726 19.538 42.085C20.026 41.928 20.559 42.111 20.847 42.536C21.134 42.96 21.108 43.523 20.781 43.918C17.463 47.932 16.532 52.242 18.019 56.729C18.378 57.925 19.545 60.329 20.91 60.329C21.639 60.329 22.546 59.711 23.528 58.542C23.755 58.275 24.081 58.131 24.413 58.131Z" fill="#E5B97F"/>
<path d="M47.647 38.7553C47.172 37.0133 45.377 35.9853 43.634 36.4593C43.157 36.5903 42.735 36.8223 42.381 37.1223C40.817 36.1203 39.067 35.4363 37.222 35.0273C37.687 32.3853 38.923 29.9623 40.497 27.7883C41.001 27.9653 41.556 28.0203 42.12 27.9253C43.9 27.6243 45.099 25.9363 44.797 24.1573C44.495 22.3773 42.808 21.1783 41.027 21.4803C39.247 21.7833 38.049 23.4693 38.351 25.2503C38.44 25.7743 38.652 26.2463 38.948 26.6463C37.559 28.5583 36.415 30.6703 35.745 32.9263C34.855 30.7243 34.604 28.1963 34.34 25.7863C35.593 25.1603 36.347 23.7693 36.1 22.3173C35.798 20.5383 34.111 19.3393 32.33 19.6413C30.551 19.9433 29.352 21.6303 29.653 23.4103C29.901 24.8643 31.073 25.9303 32.465 26.1053C32.778 28.6683 33.079 31.2993 34.019 33.6673C31.945 32.4073 29.393 31.8683 26.898 31.6493C26.365 30.2013 24.865 29.2913 23.288 29.5583C21.508 29.8603 20.31 31.5473 20.611 33.3273C20.913 35.1063 22.599 36.3053 24.38 36.0033C25.701 35.7783 26.7 34.7893 27.005 33.5663C29.796 33.8213 32.659 34.5273 34.482 36.4613C33.117 38.3993 32.009 40.5323 31.394 42.8093C31.391 42.8103 31.387 42.8103 31.384 42.8113C29.605 43.1123 28.405 44.7993 28.708 46.5793C29.009 48.3593 30.696 49.5583 32.476 49.2553C34.257 48.9533 35.455 47.2663 35.154 45.4863C34.966 44.3883 34.253 43.5123 33.316 43.0733C33.941 40.8983 35.068 38.8843 36.423 37.0523C36.546 37.0193 36.659 36.9593 36.757 36.8783C38.39 37.2193 39.958 37.8313 41.349 38.7283C41.194 39.2803 41.178 39.8773 41.338 40.4713C41.812 42.2143 43.608 43.2413 45.351 42.7673C47.093 42.2943 48.12 40.4983 47.647 38.7553Z" fill="#E5B97F"/>
</svg>
