<svg width="38" height="39" viewBox="0 0 38 39" fill="none" xmlns="http://www.w3.org/2000/svg">
<path d="M33.0681 12.9257C30.9251 10.0627 28.4871 7.4327 25.8161 5.0577C23.4771 2.9777 20.8381 0.974704 17.7321 0.249704C14.8861 -0.415296 12.0621 0.251713 9.98912 2.20571C8.89012 2.75571 8.00111 3.67171 7.20311 4.65171C7.17111 4.67971 7.14113 4.70971 7.11113 4.74371C4.92813 7.24171 2.90111 9.95172 1.30711 12.8677C-0.212886 15.6477 -0.439889 18.4837 0.798111 21.4287C2.01111 24.3137 4.17311 26.8017 6.23811 29.1107C7.96911 31.0467 9.87613 32.8957 12.0551 34.3297C13.6481 35.9457 15.7871 36.8767 17.9311 37.5977C18.2361 37.7137 18.5451 37.8157 18.8591 37.8987C18.9321 37.9217 19.0051 37.9447 19.0781 37.9677C21.7341 38.7937 24.2081 38.2757 26.5741 37.1127C27.3331 36.7947 28.0581 36.3877 28.7261 35.9087C29.9161 35.0547 30.9001 33.9867 31.7591 32.8117C33.1821 31.2237 34.5111 29.5487 35.6961 27.7817C36.4691 26.6277 37.1131 25.3737 37.1461 23.9557C37.1581 23.4497 37.1071 22.9517 37.0141 22.4617C37.0181 22.3547 37.0211 22.2477 37.0211 22.1407C37.0071 18.6457 35.0931 15.6317 33.0681 12.9257Z" fill="#161616"/>
<path d="M34.0964 18.4759C33.3894 17.2189 32.6104 16.001 31.7754 14.825C31.4604 14.382 31.1334 13.947 30.8004 13.516C29.2964 11.273 27.6304 9.13596 25.7944 7.16696C22.9834 4.15196 19.3264 1.52795 15.0204 1.67695C14.8864 1.68195 14.7654 1.70996 14.6574 1.75596C14.6224 1.75696 14.5884 1.75696 14.5534 1.75996C13.1794 1.85196 11.8294 2.61295 11.3274 3.94695C10.8074 5.32795 11.2054 6.99096 11.5754 8.39996C11.6684 9.16596 11.8454 9.92795 12.0804 10.66C13.0074 13.55 14.6144 16.264 16.4914 18.637C19.8044 22.824 25.1364 27.251 30.8504 26.702C33.0594 26.49 35.5564 25.116 35.6114 22.63C35.6454 21.131 34.8074 19.7389 34.0964 18.4759Z" fill="white"/>
<path d="M26.8692 11.1587C26.1352 10.1037 25.1442 9.21172 24.0132 8.60172C22.9732 8.04072 21.4932 7.45371 20.2992 7.86371C19.9882 7.80571 19.6582 7.90972 19.4362 8.26572C19.3862 8.34672 19.3402 8.42673 19.2962 8.50773C17.6542 10.2517 19.8402 13.7907 21.0142 15.2467C22.0192 16.4927 23.2942 17.5827 24.7132 18.3287C25.4952 18.7397 26.1972 18.6997 26.7382 18.3447C27.0262 18.2767 27.3002 18.1457 27.5482 17.9237C29.3902 16.2817 28.0012 12.7877 26.8692 11.1587Z" fill="#DD3131"/>
</svg>
