<svg width="63" height="64" viewBox="0 0 63 64" fill="none" xmlns="http://www.w3.org/2000/svg">
<path d="M56.3385 16.8716C56.3385 16.8716 62.6203 11.3477 54.0647 9.29499C48.4356 7.94517 42.0147 11.0764 37.9382 17.9105C38.8989 12.5469 38.1883 6.69866 32.6857 2.74671C32.6857 2.74671 26.1287 -2.27217 25.5909 5.28511C25.5909 5.28511 22.2772 -2.39576 17.6822 5.10745C14.7518 9.88976 15.5956 16.6823 20.4204 22.5489C15.8563 20.4035 10.5459 19.7296 5.51252 23.4315C5.51252 23.4315 -1.28873 28.1191 5.73363 30.9617C5.73363 30.9617 -2.59608 31.739 3.11894 38.4311C6.53116 42.4246 12.6411 43.815 19.2106 41.6956C16.285 45.2333 14.5558 49.7279 16.343 55.1253C16.343 55.1253 18.6979 63.0398 23.5729 57.2417C23.5729 57.2417 21.7384 65.4034 29.8683 62.0337C34.4044 60.1538 37.5047 55.33 37.9025 49.0723C40.3588 52.5077 43.9458 55.0799 49.1829 55.05C49.1829 55.05 57.4402 55.2556 53.4313 48.8261C53.4313 48.8261 60.6265 53.0919 59.9361 44.319C59.5306 39.1833 55.5525 34.5487 49.2109 32.3472C54.2327 31.4309 59.0237 28.8665 60.9451 22.8347C60.9451 22.8347 63.692 15.0486 56.3385 16.8716Z" fill="#FFFEFB"/>
<path d="M26.5099 63.9631C24.7999 63.9631 23.8286 63.1984 23.3139 62.5573C22.6806 61.7655 22.4102 60.7701 22.3156 59.8393C21.6059 60.2641 20.8953 60.4794 20.1904 60.4794C16.868 60.4794 15.4265 55.9578 15.2739 55.4422C13.8999 51.2952 14.3373 47.2825 16.5735 43.4966C15.4409 43.6955 14.3171 43.7959 13.2134 43.7959C8.71403 43.7959 4.82678 42.1477 2.27099 39.1545C0.24336 36.7813 -0.430597 34.7073 0.265557 32.9915C0.756051 31.7827 1.81525 31.0324 2.86769 30.5709C2.0354 29.8448 1.56325 29.0048 1.45897 28.0576C1.14421 25.1784 4.49655 22.778 4.8789 22.5144C8.57016 19.7984 12.8659 19.0173 17.4695 20.2676C14.3373 14.9041 13.9897 8.99883 16.7299 4.52645C18.2835 1.99094 19.9626 0.705812 21.7179 0.705812C23.1402 0.705812 24.266 1.52748 25.0799 2.44281C25.9624 0.376561 27.5671 0 28.6157 0C30.8616 0 33.1113 1.67232 33.3604 1.86446C37.3133 4.70121 39.368 8.84338 39.4047 13.9733C42.7628 10.0986 47.0672 7.87494 51.442 7.87494C52.4192 7.87494 53.3876 7.98887 54.3232 8.21288C57.3579 8.94186 59.1229 10.2222 59.568 12.02C59.8818 13.2868 59.4647 14.515 58.8854 15.5075C60.4553 15.6514 61.3147 16.4055 61.7694 17.0476C63.324 19.2442 62.1344 22.8089 61.9934 23.2077C60.5461 27.7515 57.3251 30.9639 52.6026 32.6111C57.5172 35.2171 60.6687 39.4712 61.0434 44.2333C61.249 46.8306 60.8358 48.6468 59.7833 49.7861C59.0611 50.5663 58.0541 50.9785 56.8674 50.9785C56.4068 50.9785 55.9472 50.9167 55.5128 50.8192C55.759 51.8833 55.6528 52.8304 55.197 53.6531C53.9032 55.9849 50.3297 56.1664 49.2638 56.1664L49.1518 56.1654H49.091C44.9874 56.1654 41.496 54.6881 38.6844 51.7655C37.6696 57.131 34.6436 61.2596 30.2909 63.0652C28.832 63.6686 27.5942 63.9631 26.5099 63.9631ZM23.5717 56.1278C23.7388 56.1278 23.9087 56.1664 24.0661 56.2446C24.5267 56.4725 24.7709 56.9852 24.658 57.4863C24.517 58.1342 24.2805 60.2043 25.0558 61.1679C25.2518 61.4122 25.6158 61.7366 26.5099 61.7366C27.2852 61.7366 28.271 61.4913 29.4403 61.0066C33.6761 59.2513 36.4231 54.7644 36.789 49.003C36.819 48.5338 37.1414 48.1331 37.5943 48.0028C38.0471 47.8724 38.5328 48.0423 38.807 48.4257C41.4226 52.0841 44.8831 53.9379 49.0929 53.9379H49.1749H49.2657C50.3819 53.9379 52.6509 53.6531 53.2505 52.5707C53.7178 51.7288 53.0921 50.3915 52.4848 49.4163C52.2135 48.9799 52.2743 48.415 52.6325 48.0481C52.9917 47.6812 53.5556 47.6069 53.9969 47.8685C54.0104 47.8763 55.5137 48.7501 56.8693 48.7501C57.4332 48.7501 57.8532 48.5937 58.1487 48.2731C58.561 47.828 59.0119 46.7958 58.8245 44.4071C58.4451 39.6248 54.6206 35.4063 48.8428 33.4009C48.3639 33.2348 48.0578 32.7675 48.0984 32.2635C48.137 31.7595 48.5107 31.3443 49.0079 31.2535C54.7036 30.2146 58.363 27.2688 59.8828 22.499C60.1483 21.7353 60.7073 19.4006 59.9504 18.3327C59.8413 18.1792 59.5072 17.7109 58.3312 17.7109C57.8387 17.7109 57.2584 17.7939 56.6048 17.9552C56.1066 18.0797 55.5881 17.8451 55.3505 17.3903C55.1121 16.9346 55.2154 16.3765 55.6016 16.0376C56.1684 15.5355 57.719 13.813 57.4042 12.5539C57.1802 11.656 55.9009 10.8845 53.8037 10.3805C53.0361 10.1971 52.2425 10.1044 51.4411 10.1044C46.7138 10.1044 42.0222 13.2366 38.892 18.4843C38.6168 18.9458 38.05 19.1457 37.546 18.9564C37.043 18.7682 36.7446 18.2468 36.8392 17.7167C37.9573 11.4783 36.34 6.74719 32.0337 3.6536C31.4921 3.24421 29.8806 2.22847 28.6148 2.22847C28.1513 2.22847 26.9212 2.22847 26.6991 5.3655C26.6634 5.8782 26.2811 6.29918 25.7751 6.38511C25.2682 6.47104 24.77 6.19973 24.5662 5.72758C24.2496 5.00439 23.0465 2.93331 21.717 2.93331C20.8142 2.93331 19.7183 3.91237 18.6301 5.68992C15.8716 10.1922 16.9105 16.5329 21.2796 21.8424C21.6088 22.2451 21.6175 22.8234 21.2969 23.2338C20.9783 23.6441 20.4164 23.7803 19.9452 23.5572C14.8191 21.1482 10.1614 21.3935 6.16888 24.3287C5.45631 24.824 3.52522 26.4867 3.67295 27.8162C3.78013 28.7779 5.07877 29.4963 6.14859 29.9288C6.6246 30.1219 6.9075 30.6153 6.83316 31.1232C6.75784 31.6311 6.34557 32.0221 5.83383 32.0694C5.08071 32.1428 2.81265 32.6246 2.32795 33.8296C1.98036 34.6889 2.56065 36.0658 3.96357 37.7062C6.09066 40.1954 9.37446 41.5665 13.2115 41.5665C15.0451 41.5665 16.9472 41.2536 18.8647 40.6347C19.3359 40.4831 19.8506 40.6598 20.1286 41.0702C20.4057 41.4796 20.3806 42.0232 20.0649 42.4046C16.8613 46.2802 15.9623 50.4417 17.3981 54.7741C17.7447 55.9289 18.8715 58.25 20.1895 58.25C20.8933 58.25 21.7691 57.6533 22.7172 56.5246C22.9364 56.2668 23.2512 56.1278 23.5717 56.1278Z" fill="#E5B97F"/>
<path d="M46.005 37.4202C45.5463 35.7382 43.8132 34.7456 42.1303 35.2033C41.6697 35.3298 41.2622 35.5538 40.9204 35.8435C39.4103 34.876 37.7206 34.2156 35.9392 33.8207C36.3882 31.2697 37.5816 28.9302 39.1014 26.8311C39.588 27.002 40.1239 27.0551 40.6684 26.9634C42.3871 26.6728 43.5448 25.0429 43.2532 23.3252C42.9616 21.6066 41.3327 20.4489 39.6131 20.7405C37.8944 21.0331 36.7377 22.661 37.0293 24.3806C37.1153 24.8865 37.3199 25.3423 37.6057 25.7285C36.2646 27.5746 35.16 29.6138 34.5131 31.7921C33.6538 29.6659 33.4114 27.2251 33.1565 24.8981C34.3664 24.2937 35.0944 22.9506 34.8559 21.5487C34.5643 19.831 32.9354 18.6733 31.2158 18.9649C29.4981 19.2565 28.3404 20.8853 28.6311 22.604C28.8705 24.0079 30.0021 25.0371 31.3462 25.2061C31.6484 27.6808 31.939 30.2211 32.8466 32.5075C30.8441 31.2909 28.38 30.7705 25.971 30.5591C25.4564 29.161 24.0081 28.2823 22.4854 28.5401C20.7667 28.8317 19.61 30.4606 19.9007 32.1792C20.1923 33.8969 21.8202 35.0546 23.5398 34.763C24.8153 34.5458 25.7798 33.5909 26.0743 32.41C28.7691 32.6562 31.5335 33.3379 33.2936 35.2052C31.9757 37.0765 30.9059 39.136 30.3121 41.3345C30.3092 41.3355 30.3053 41.3355 30.3024 41.3364C28.5847 41.627 27.4261 43.2559 27.7186 44.9746C28.0092 46.6932 29.6381 47.8509 31.3568 47.5584C33.0764 47.2668 34.2331 45.6379 33.9425 43.9192C33.761 42.8591 33.0725 42.0133 32.1678 41.5894C32.7713 39.4893 33.8595 37.5447 35.1678 35.7759C35.2865 35.744 35.3956 35.6861 35.4903 35.6079C37.067 35.9371 38.5809 36.528 39.924 37.3941C39.7743 37.9271 39.7589 38.5035 39.9134 39.0771C40.3711 40.76 42.1052 41.7516 43.7881 41.2939C45.4701 40.8372 46.4617 39.1031 46.005 37.4202Z" fill="#E5B97F"/>
</svg>
