<svg width="58" height="47" viewBox="0 0 58 47" fill="none" xmlns="http://www.w3.org/2000/svg">
<path d="M57.5286 6.15954C55.4242 7.06173 53.1714 7.68241 50.797 7.96391C53.2197 6.54245 55.072 4.29399 55.9552 1.61542C53.6827 2.90924 51.1689 3.84639 48.496 4.37616C46.3647 2.14519 43.3181 0.741211 39.9371 0.741211C33.4559 0.741211 28.2029 5.8763 28.2029 12.2056C28.2029 13.1165 28.3156 13.9907 28.5104 14.8194C18.7609 14.3736 10.118 9.79275 4.33761 2.87253C3.32207 4.558 2.74456 6.51622 2.74456 8.64754C2.74456 12.6357 4.82035 16.1325 7.95817 18.1886C6.03972 18.1344 4.23391 17.6151 2.65159 16.7602V16.8983C2.65159 22.46 6.69232 27.0968 12.0561 28.1528C11.0781 28.4064 10.034 28.5532 8.97372 28.5532C8.221 28.5532 7.50225 28.4815 6.78529 28.3522C8.2943 32.905 12.6139 36.22 17.7632 36.3197C13.76 39.3881 8.68586 41.217 3.21837 41.217C2.28685 41.217 1.35713 41.1733 0.423828 41.0631C5.63923 44.3152 11.7951 46.2174 18.4444 46.2174C40.0194 46.2174 51.809 28.7421 51.809 13.6078C51.809 13.1252 51.809 12.6339 51.7714 12.1409C54.0725 10.5376 56.0643 8.50591 57.6376 6.20325L57.5286 6.15954Z" fill="black"/>
</svg>
