<svg width="58" height="49" viewBox="0 0 58 49" fill="none" xmlns="http://www.w3.org/2000/svg">
<path d="M29.0307 0.0458984C21.2541 0.0458984 20.2849 0.0777031 17.2414 0.186747C14.1855 0.313966 12.1184 0.71531 10.2944 1.31505C8.41331 1.93903 6.81112 2.76746 5.2286 4.11537C3.63535 5.45571 2.64829 6.81271 1.9223 8.40597C1.21419 9.95076 0.740332 11.7015 0.590127 14.2898C0.452439 16.869 0.423828 17.6884 0.423828 24.275C0.423828 30.8615 0.461379 31.6824 0.590127 34.2601C0.740332 36.8408 1.21419 38.5991 1.9223 40.1439C2.65902 41.7372 3.63714 43.0942 5.2286 44.4345C6.81112 45.784 8.41331 46.62 10.2944 47.2349C12.1184 47.827 14.1944 48.2359 17.2414 48.3632C20.2867 48.4798 21.2541 48.504 29.0307 48.504C36.8074 48.504 37.7766 48.4722 40.82 48.3632C43.8671 48.2359 45.9431 47.8255 47.767 47.2349C49.6482 46.6109 51.2504 45.7824 52.8329 44.4345C54.4261 43.0942 55.4132 41.7448 56.1392 40.1439C56.8383 38.5991 57.3211 36.8408 57.4714 34.2601C57.609 31.6809 57.6376 30.8615 57.6376 24.275C57.6376 17.6884 57.6001 16.8675 57.4714 14.2898C57.3211 11.7091 56.8366 9.94168 56.1392 8.40597C55.4025 6.81271 54.4243 5.45571 52.8329 4.11537C51.2504 2.76595 49.6571 1.92994 47.767 1.31505C45.9431 0.71531 43.8671 0.313966 40.82 0.186747C37.7748 0.0701305 36.8074 0.0458984 29.0307 0.0458984V0.0458984ZM29.0307 4.40767C36.6679 4.40767 37.5799 4.43948 40.5983 4.54852C43.3825 4.65908 44.8988 5.05285 45.9056 5.38604C47.2485 5.82676 48.1872 6.34775 49.2029 7.19891C50.1989 8.04249 50.814 8.84669 51.3344 9.98408C51.7278 10.8367 52.1927 12.121 52.3232 14.4791C52.452 17.0356 52.4895 17.8095 52.4895 24.2765C52.4895 30.7434 52.452 31.5173 52.3125 34.0738C52.1623 36.4319 51.6974 37.7162 51.3058 38.5689C50.764 39.7062 50.1596 40.5014 49.1618 41.3616C48.1551 42.2052 47.1966 42.7262 45.8644 43.1669C44.8702 43.5001 43.3324 43.8939 40.5375 44.0044C37.503 44.1135 36.6089 44.1453 28.9521 44.1453C21.2952 44.1453 20.4029 44.1135 17.3648 43.9953C14.5807 43.8681 13.0446 43.4743 12.0379 43.1427C10.6789 42.6838 9.74727 42.1719 8.74948 41.3268C7.74275 40.4741 7.10259 39.6623 6.60906 38.534C6.20851 37.692 5.75074 36.3895 5.60233 34.0223C5.5004 31.4825 5.45212 30.6949 5.45212 24.2401C5.45212 17.7883 5.5004 16.9993 5.60233 14.4276C5.75074 12.0605 6.20851 10.761 6.60906 9.91593C7.10259 8.76339 7.74454 7.97585 8.74948 7.12318C9.74548 6.2796 10.6789 5.73438 12.0379 5.30729C13.0446 4.97561 14.5431 4.58184 17.338 4.46371C20.3725 4.37133 21.2666 4.33801 28.9127 4.33801L29.0307 4.40767ZM29.0307 11.8394C20.9107 11.8394 14.3446 17.4082 14.3446 24.278C14.3446 31.1553 20.9197 36.7166 29.0307 36.7166C37.1508 36.7166 43.7169 31.1478 43.7169 24.278C43.7169 17.4006 37.1418 11.8394 29.0307 11.8394ZM29.0307 32.3548C23.7593 32.3548 19.4945 28.7427 19.4945 24.278C19.4945 19.8132 23.7593 16.2011 29.0307 16.2011C34.3022 16.2011 38.567 19.8132 38.567 24.278C38.567 28.7427 34.3022 32.3548 29.0307 32.3548ZM47.742 11.3426C47.742 12.9525 46.1952 14.252 44.3034 14.252C42.4026 14.252 40.8683 12.951 40.8683 11.3426C40.8683 9.74176 42.4133 8.43929 44.3034 8.43929C46.1935 8.43929 47.742 9.74176 47.742 11.3426Z" fill="black"/>
</svg>
