<svg stroke-opacity="0" width="377" height="881" viewBox="0 0 377 881" fill="none" xmlns="http://www.w3.org/2000/svg">
<path d="M200.723 234.853H24.3628V246.551H200.723V234.853Z" fill="#4F1F2C"/>
<path d="M200.723 255.603H24.3628V307.997H200.723V255.603Z" fill="#4F1F2C"/>
<path d="M64.2913 297.756H44.1545V262.546H64.2913V297.756ZM103.338 262.546H83.2007V297.756H103.338V262.546ZM142.384 262.546H122.247V297.756H142.384V262.546ZM181.43 262.546H161.293V297.756H181.43V262.546Z" fill="white"/>
<path d="M233.862 361.465H-8.77686V373.164H233.862V361.465Z" fill="#4F1F2C"/>
<path d="M233.862 382.216H-8.77686V434.61H233.862V382.216Z" fill="#4F1F2C"/>
<path d="M53.2451 422.835H28.5439V387.624H53.2451V422.835ZM101.19 387.624H76.4888V422.835H101.19V387.624ZM149.135 387.624H124.434V422.835H149.135V387.624ZM197.08 387.624H172.378V422.835H197.08V387.624Z" fill="white"/>
<path d="M259.292 488.04H-34.2068V499.738H259.292V488.04Z" fill="#4F1F2C"/>
<path d="M259.292 508.79H-34.2068V568.856H259.292V508.79Z" fill="#4F1F2C"/>
<path d="M47.7985 556.428H20.8344V521.217H47.7985V556.428ZM100.116 521.217H73.1517V556.428H100.116V521.217ZM152.433 521.217H125.469V556.428H152.433V521.217ZM204.751 521.217H177.786V556.428H204.751V521.217Z" fill="white"/>
<path d="M276.706 622.324H-51.6586V634.022H276.706V622.324Z" fill="#4F1F2C"/>
<path d="M276.706 643.074H-51.6586V703.139H276.706V643.074Z" fill="#4F1F2C"/>
<path d="M28.543 692.86H-6.39917V655.501H28.543V692.86ZM96.3562 655.501H61.414V692.86H96.3562V655.501ZM164.169 655.501H129.227V692.86H164.169V655.501ZM231.982 655.501H197.04V692.86H231.982V655.501Z" fill="white"/>
<path d="M207.857 246.551H17.2288V255.642H207.857V246.551Z" fill="#C63938"/>
<path d="M240.958 373.125H-15.9108V382.216H240.958V373.125Z" fill="#C63938"/>
<path d="M266.426 499.738H-41.3411V508.829H266.426V499.738Z" fill="#C63938"/>
<path d="M283.84 633.984H-58.7925V643.074H283.84V633.984Z" fill="#C63938"/>
<path d="M112.543 775.555H-52.1571V844.174H277.243V775.555H112.543Z" fill="#4F1F2C"/>
<path d="M131.721 795.001H93.4033V850.771H131.721V795.001Z" fill="#20180F"/>
<path d="M-63.6639 758.985L-52.1572 775.555H112.543H277.243L288.75 758.985H-63.6639Z" fill="#20180F"/>
<path d="M98.3512 144.486C98.3512 144.486 48.7954 210.459 -30.4094 205.971C-23.5054 214.026 -13.4178 218.667 -2.79323 218.667H227.879C238.503 218.667 248.591 214.026 255.495 205.971C176.329 210.497 126.734 144.486 126.734 144.486H98.3128H98.3512Z" fill="#C63938"/>
<path d="M65.0583 218.628H159.989C133.293 202.212 115.151 144.448 115.151 144.448H109.935C109.935 144.448 91.7923 202.212 65.0966 218.628H65.0583Z" fill="#C63938"/>
<path d="M17.2288 218.628L24.3629 234.853H200.723L207.857 218.628H17.2288Z" fill="#20180F"/>
<path d="M-15.9108 345.241L-8.77658 361.465H233.862L240.997 345.241H-15.9108Z" fill="#20180F"/>
<path d="M-41.3411 471.853L-34.2069 488.04H259.292L266.426 471.853H-41.3411Z" fill="#20180F"/>
<path d="M-58.7925 606.099L-51.6583 622.323H276.744L283.84 606.099H-58.7925Z" fill="#20180F"/>
<path d="M288.788 740.383H-63.6639V758.985H288.788V740.383Z" fill="#20180F"/>
<path d="M225.309 307.997H-0.223301C-0.223301 307.997 -22.8149 329.016 -60.3652 335.69C-52.7708 341.866 -43.2586 345.241 -33.4778 345.241H258.525C268.306 345.241 277.818 341.866 285.413 335.69C247.862 329.016 225.271 307.997 225.271 307.997H225.309Z" fill="#C63938"/>
<path d="M35.0641 345.241H189.983C174.909 330.896 158.301 307.997 158.301 307.997H66.7077C66.7077 307.997 50.0995 330.896 35.0257 345.241H35.0641Z" fill="#C63938"/>
<path d="M19.9521 224.842H205.134L207.857 218.628H17.2288L19.9521 224.842Z" fill="#20180F"/>
<path d="M-13.1491 351.455H238.235L240.997 345.241H-15.9108L-13.1491 351.455Z" fill="#20180F"/>
<path d="M258.41 434.61H-33.3628C-33.3628 434.61 -55.9544 455.629 -93.5048 462.303L-88.1733 465.563C-81.461 469.667 -73.7515 471.853 -65.8886 471.853H290.897C298.76 471.853 306.47 469.667 313.182 465.563L318.514 462.303C280.963 455.629 258.372 434.61 258.372 434.61H258.41Z" fill="#C63938"/>
<path d="M20.2974 471.853H204.789C186.838 457.508 171.649 434.61 171.649 434.61H53.4368C53.4368 434.61 38.2479 457.508 20.2974 471.853Z" fill="#C63938"/>
<path d="M283.84 568.855H-58.7927C-58.7927 568.855 -81.3843 589.874 -118.935 596.548L-113.603 599.808C-106.891 603.913 -99.1814 606.099 -91.3185 606.099H316.366C324.229 606.099 331.938 603.913 338.651 599.808L343.982 596.548C306.432 589.874 283.84 568.855 283.84 568.855Z" fill="#C63938"/>
<path d="M-0.2229 606.099H225.31C203.37 591.754 192.477 568.855 192.477 568.855H28.8125C28.8125 568.855 21.755 591.754 -0.184507 606.099H-0.2229Z" fill="#C63938"/>
<path d="M283.84 606.099H-58.7925L-56.0692 612.236H281.155L283.84 606.099Z" fill="#20180F"/>
<path d="M315.982 703.139H-90.8581C-90.8581 703.139 -113.45 724.158 -151 730.832L-145.669 734.092C-138.956 738.196 -131.247 740.383 -123.384 740.383H348.508C356.371 740.383 364.081 738.196 370.793 734.092L376.124 730.832C338.574 724.158 315.982 703.139 315.982 703.139Z" fill="#C63938"/>
<path d="M-8.77686 740.383H233.862C210.273 726.038 197.961 703.139 197.961 703.139H27.1625C27.1625 703.139 14.8503 726.038 -8.73852 740.383H-8.77686Z" fill="#C63938"/>
<path d="M288.788 740.383H-63.6639V746.52H288.788V740.383Z" fill="#20180F"/>
<path d="M277.243 783.111H-51.6586V786.947H277.243V783.111Z" fill="#20180F"/>
<path d="M32.4942 785.029H28.6586V844.174H32.4942V785.029Z" fill="#20180F"/>
<path d="M196.964 785.029H193.129V844.174H196.964V785.029Z" fill="#20180F"/>
<path d="M227.227 309.915H-2.14087V287.324H227.227V309.915ZM1.69472 306.08H223.392V291.159H1.69472V306.08Z" fill="#20180F"/>
<path d="M260.328 436.528H-35.2804V413.936H260.328V436.528ZM-31.4448 432.692H256.492V417.772H-31.4448V432.692Z" fill="#20180F"/>
<path d="M285.796 570.773H-60.6719V548.182H285.796V570.773ZM-56.8363 566.938H281.961V552.017H-56.8363V566.938Z" fill="#20180F"/>
<path d="M315.982 684.268C313.451 684.268 311.341 682.197 311.341 679.627C311.341 677.057 313.412 674.986 315.982 674.986C318.552 674.986 320.623 677.057 320.623 679.627C320.623 682.197 318.552 684.268 315.982 684.268ZM315.982 678.86C315.56 678.86 315.177 679.205 315.177 679.666C315.177 680.548 316.749 680.548 316.749 679.666C316.749 679.244 316.404 678.86 315.944 678.86H315.982Z" fill="#20180F"/>
<path d="M-0.223477 289.126C-2.75496 289.126 -4.8645 287.055 -4.8645 284.523C-4.8645 281.992 -2.79332 279.882 -0.223477 279.882C2.34636 279.882 4.41761 281.954 4.41761 284.523C4.41761 287.093 2.34636 289.126 -0.223477 289.126ZM-0.223477 283.718C-0.645391 283.718 -1.02892 284.063 -1.02892 284.523C-1.02892 285.406 0.543687 285.406 0.543687 284.523C0.543687 284.102 0.198458 283.718 -0.261812 283.718H-0.223477Z" fill="#20180F"/>
<path d="M225.309 289.126C222.777 289.126 220.668 287.055 220.668 284.523C220.668 281.992 222.739 279.882 225.309 279.882C227.879 279.882 229.95 281.954 229.95 284.523C229.95 287.093 227.879 289.126 225.309 289.126ZM225.309 283.718C224.887 283.718 224.503 284.063 224.503 284.523C224.503 285.406 226.076 285.406 226.076 284.523C226.076 284.102 225.731 283.718 225.27 283.718H225.309Z" fill="#20180F"/>
<path d="M258.41 415.739C255.878 415.739 253.769 413.668 253.769 411.098C253.769 408.528 255.84 406.457 258.41 406.457C260.98 406.457 263.051 408.528 263.051 411.098C263.051 413.668 260.98 415.739 258.41 415.739ZM258.41 410.331C257.988 410.331 257.605 410.676 257.605 411.136C257.605 412.018 259.177 412.018 259.177 411.136C259.177 410.714 258.832 410.331 258.372 410.331H258.41Z" fill="#20180F"/>
<path d="M283.878 549.984C281.346 549.984 279.237 547.913 279.237 545.382C279.237 542.85 281.308 540.741 283.878 540.741C286.448 540.741 288.519 542.812 288.519 545.382C288.519 547.951 286.448 549.984 283.878 549.984ZM283.878 544.576C283.456 544.576 283.072 544.921 283.072 545.382C283.072 546.264 284.645 546.264 284.645 545.382C284.645 544.96 284.3 544.576 283.839 544.576H283.878Z" fill="#20180F"/>
<path d="M317.9 705.057H-92.7758V682.466H317.9V705.057ZM-88.9402 701.222H314.065V686.301H-88.9402V701.222Z" fill="#20180F"/>
<path d="M114.46 -0.00012207H110.625V136.7H114.46V-0.00012207Z" fill="#20180F"/>
<path d="M126.772 128.914H98.3505V144.486H126.772V128.914Z" fill="#20180F"/>
<path d="M112.543 118.865C107.902 118.865 103.798 122.317 102.34 127.38L101.918 128.914H123.206L122.784 127.38C121.326 122.278 117.222 118.865 112.581 118.865H112.543Z" fill="#20180F"/>
<path d="M120.483 109.122H104.604V112.958H120.483V109.122Z" fill="#20180F"/>
<path d="M120.483 100.339H104.604V104.175H120.483V100.339Z" fill="#20180F"/>
<path d="M120.483 91.5553H104.604V95.3909H120.483V91.5553Z" fill="#20180F"/>
<path d="M120.483 82.8101H104.604V86.6457H120.483V82.8101Z" fill="#20180F"/>
<path d="M120.483 74.0269H104.604V77.8625H120.483V74.0269Z" fill="#20180F"/>
<path d="M120.483 65.2433H104.604V69.0788H120.483V65.2433Z" fill="#20180F"/>
<path d="M120.483 56.498H104.604V60.3336H120.483V56.498Z" fill="#20180F"/>
<path d="M120.483 47.7144H104.604V51.55H120.483V47.7144Z" fill="#20180F"/>
<path d="M120.483 38.9696H104.604V42.8052H120.483V38.9696Z" fill="#20180F"/>
<path d="M120.483 30.186H104.604V34.0216H120.483V30.186Z" fill="#20180F"/>
<path d="M-38.6946 477.876H263.78L266.426 471.854H-41.3412L-38.6946 477.876Z" fill="#20180F"/>
<path d="M259.291 508.79H-34.2075V513.853H259.291V508.79Z" fill="#20180F"/>
<path d="M276.706 643.074H-51.6587V648.137H276.706V643.074Z" fill="#20180F"/>
<path d="M298.606 844.174H-73.5225V866.458H298.606V844.174Z" fill="#20180F"/>
<path d="M342.295 866.458H-117.208V880.228H342.295V866.458Z" fill="#20180F"/>
</svg>
