<svg width="131" height="130" viewBox="0 0 131 130" fill="none" xmlns="http://www.w3.org/2000/svg">
<path d="M115.297 124.176C115.246 124.332 115.222 124.505 115.246 124.696C115.391 125.897 114.521 127.01 113.448 127.448C112.237 127.943 110.924 127.701 109.748 127.231C109.686 127.207 109.625 127.188 109.565 127.175C107.948 121.592 106.331 116.009 104.714 110.426C104.677 110.299 104.624 110.188 104.561 110.091C104.949 109.79 105.315 109.442 105.667 109.094C105.671 109.1 105.673 109.107 105.677 109.114C108.651 114.281 111.865 119.302 115.297 124.176ZM124.653 118.915C125.581 120.487 125.118 122.571 123.638 123.655C122.08 124.796 119.905 124.612 118.288 123.71C118.064 123.585 117.845 123.543 117.637 123.558C114.078 118.56 110.769 113.39 107.71 108.071C107.577 107.84 107.402 107.687 107.208 107.595C107.28 107.526 107.351 107.454 107.422 107.383C107.782 107.554 108.132 107.5 108.409 107.319C113.693 111.119 118.977 114.919 124.26 118.719C124.391 118.813 124.52 118.871 124.647 118.903C124.651 118.908 124.652 118.911 124.653 118.915ZM127.49 111.139C127.649 111.218 127.807 111.257 127.959 111.266C128.443 112.376 128.598 113.667 128.007 114.774C127.406 115.902 126.08 116.483 124.868 116.09C124.712 116.04 124.567 116.023 124.43 116.033C119.458 112.458 114.487 108.882 109.514 105.307C110.041 104.775 110.566 104.241 111.085 103.702C111.207 103.883 111.388 104.038 111.638 104.136C117.017 106.256 122.304 108.589 127.49 111.139ZM117.866 24.4383C119.623 26.4423 121.26 28.5523 122.761 30.7551C122.868 30.91 122.993 31.0271 123.131 31.1125C120.767 47.4833 117.896 63.781 114.509 79.9725C113.042 86.987 111.477 93.9795 109.822 100.951C109.78 101.127 109.776 101.292 109.805 101.443C109.786 101.449 109.768 101.458 109.75 101.465C108.381 90.4473 107.013 79.4285 105.645 68.4109C105.464 66.9497 103.233 67.4486 103.412 68.8964C104.748 79.6505 106.083 90.4046 107.419 101.159C104.077 94.7894 100.735 88.4213 97.3929 82.0521C96.7086 80.7494 94.6766 81.7923 95.3596 83.0949C98.9992 90.0301 102.638 96.9654 106.277 103.901C97.5722 98.1192 88.8111 92.4232 79.989 86.8223C78.7498 86.0356 77.5325 87.9701 78.7778 88.7604C87.7353 94.4479 96.6306 100.232 105.467 106.105C105.236 106.327 105.004 106.547 104.772 106.768C94.6607 103.735 84.5494 100.703 74.4381 97.6691C73.0306 97.2471 72.3524 99.4292 73.7661 99.8524C83.2382 102.694 92.7117 105.535 102.184 108.377C102.091 108.424 102 108.485 101.912 108.566C101.864 108.61 101.824 108.655 101.786 108.7C101.65 108.751 101.528 108.828 101.423 108.925C101.331 108.917 101.235 108.92 101.135 108.934C94.0485 109.993 86.9474 110.96 79.8341 111.829C64.8964 113.653 49.9075 115.043 34.8918 116.01C34.8893 116.006 34.8881 116.004 34.8857 116C32.1804 112.315 29.4739 108.631 26.7686 104.946C30.5435 100.298 34.4136 95.7286 38.3703 91.2352C38.4789 91.3132 38.6094 91.3755 38.7667 91.4157C47.1315 93.5185 55.4962 95.62 63.8609 97.7228C65.2806 98.0801 65.9648 95.8993 64.5341 95.5395C56.4341 93.5038 48.3341 91.4682 40.2341 89.4325C40.1914 89.2861 40.1182 89.141 40.0023 89.0032C35.6846 83.8548 31.6888 78.4515 28.0334 72.8153C33.7416 70.2515 39.5461 67.9084 45.4361 65.7947C45.5141 65.9764 45.6471 66.146 45.8471 66.285C52.5945 70.9577 59.3407 75.6316 66.088 80.3042C67.2968 81.141 68.5079 79.2041 67.2992 78.3661C60.5518 73.6935 53.8057 69.0196 47.0583 64.3469C46.8217 64.1834 46.585 64.1261 46.3655 64.1469C46.3862 64.0285 46.3935 63.9041 46.3765 63.7675C45.8935 60.0438 45.6056 56.3005 45.53 52.5463C45.491 50.6216 45.5044 48.6957 45.5715 46.7722C45.6044 45.8099 45.652 44.8488 45.7117 43.8876C45.7373 43.4754 45.7654 43.0643 45.7959 42.6533C45.8166 42.3789 45.8374 42.1044 45.8605 41.8312C45.7093 41.7239 45.7337 41.6849 45.9362 41.7141C46.246 41.5385 47.1168 41.7007 47.4754 41.6995C47.9304 41.6995 48.3865 41.6983 48.8415 41.6983C49.9038 41.697 50.9662 41.6958 52.0298 41.6958C54.0789 41.6946 56.128 41.6922 58.1771 41.691C62.1948 41.6873 66.2283 41.7885 70.2436 41.6507C70.6339 41.6373 70.9254 41.4629 71.1181 41.2177C71.1242 41.3641 71.1608 41.519 71.2352 41.6775C76.7494 53.2976 82.9284 64.5921 89.7405 75.5011C90.515 76.7415 92.5531 75.7048 91.7737 74.4582C84.9617 63.548 78.7827 52.2548 73.2684 40.6347C73.2294 40.553 73.1855 40.481 73.1379 40.4176C76.2286 35.0204 79.5718 29.7757 83.1565 24.6932C87.9073 28.2925 92.8105 31.6809 97.8588 34.8497C97.8112 35.0229 97.8149 35.2241 97.8881 35.4497C99.1553 39.3064 99.3054 43.3449 99.6371 47.3565C99.9762 51.4583 100.673 55.4833 101.825 59.4364C102.235 60.8427 104.47 60.3646 104.059 58.9509C102.888 54.9332 102.179 50.8375 101.857 46.6673C101.572 42.979 101.389 39.2577 100.347 35.6949C100.571 35.6815 100.802 35.5949 101.017 35.4071C105.015 31.9041 109.013 28.4011 113.01 24.8993L114.381 23.6979C114.742 23.3808 115.735 22.8015 115.923 22.3465C115.929 22.3428 115.934 22.3404 115.94 22.3368C115.945 22.3404 115.947 22.3428 115.952 22.3465C116.013 22.5551 116.57 23.0027 116.7 23.143C117.092 23.5662 117.481 23.9992 117.866 24.4383ZM126.59 3.8583C125.709 11.9132 124.706 19.9547 123.58 27.9791C122.228 26.1056 120.795 24.2932 119.26 22.5636C118.518 21.7281 117.65 20.3901 116.567 19.9852C115.385 19.5436 114.488 20.5609 113.689 21.261L99.7457 33.4775C99.6603 33.3336 99.5359 33.2018 99.3615 33.0933C93.9045 29.6818 88.6147 26.0142 83.5066 22.1001C82.9955 21.7086 82.2625 22.0001 81.932 22.4636C77.9972 27.9693 74.3491 33.6702 70.9973 39.5492C70.8314 39.426 70.6119 39.354 70.3375 39.3638C65.7929 39.5199 61.2251 39.4016 56.6781 39.4065C54.4009 39.4089 52.1237 39.4101 49.8477 39.4126C48.7854 39.4138 47.7218 39.4089 46.6594 39.415C45.8093 39.4199 44.8616 39.3955 44.2152 40.0529C43.5626 40.7164 43.576 41.6885 43.5114 42.5545C43.4394 43.5144 43.3821 44.4755 43.337 45.4367C43.2406 47.4967 43.2065 49.5605 43.2321 51.623C43.2833 55.7163 43.5821 59.8047 44.0956 63.8663C37.9093 66.0959 31.8169 68.5744 25.8318 71.2992C25.3074 71.5383 25.0159 72.3335 25.3366 72.8372C28.953 78.5076 32.9049 83.956 37.1702 89.1556C32.7939 94.1137 28.5249 99.1645 24.3645 104.306C24.0279 104.721 24.2182 105.312 24.4926 105.684L32.1999 116.181C22.4655 116.775 12.7213 117.189 2.97098 117.425C2.73802 117.431 2.53921 117.493 2.37577 117.594C2.11963 110.597 2.40016 103.585 3.22468 96.6312C4.69929 84.2 7.91443 71.9786 12.6737 60.4024C17.4342 48.8238 23.8035 37.9209 31.5425 28.0803C31.5815 28.0303 31.6132 27.9815 31.6425 27.9315C32.7207 26.8253 33.8599 25.7922 35.0576 24.8201C35.0893 24.803 35.1211 24.7847 35.1528 24.764C45.6117 17.8861 57.0159 12.4621 68.9556 8.69805C80.8928 4.93528 93.3422 2.76665 105.854 2.34951C112.853 2.11655 119.862 2.43001 126.813 3.27771C126.695 3.43383 126.616 3.62656 126.59 3.8583Z" fill="white"/>
<path d="M21.1665 83.672C19.4016 82.2535 16.678 82.1571 14.985 83.7525C14.5728 84.1416 14.2483 84.6099 14.0142 85.1198C13.7373 85.2259 13.5031 85.4528 13.3921 85.8272C12.7042 88.1617 13.7214 90.8158 16.001 91.833C18.1233 92.7795 20.7872 92.0757 22.0874 90.1254C23.4339 88.1068 23.0668 85.2003 21.1665 83.672Z" fill="white"/>
<path d="M32.1064 50.1002C30.3415 48.6817 27.6167 48.5853 25.925 50.1807C25.5127 50.5698 25.1883 51.0382 24.9541 51.548C24.6772 51.6541 24.443 51.881 24.332 52.2554C23.6441 54.5899 24.6614 57.244 26.941 58.2612C29.0633 59.2077 31.7271 58.504 33.0261 56.5537C34.3738 54.5351 34.0067 51.6285 32.1064 50.1002Z" fill="white"/>
<path d="M63.3249 21.4225C61.56 20.004 58.8364 19.9076 57.1435 21.503C56.7312 21.8921 56.4068 22.3604 56.1738 22.8703C55.897 22.9764 55.6628 23.2032 55.5518 23.5777C54.8639 25.9122 55.8811 28.5663 58.1607 29.5835C60.283 30.53 62.9468 29.8262 64.247 27.8759C65.5924 25.8573 65.2252 22.9508 63.3249 21.4225Z" fill="white"/>
<path d="M100.052 11.2037C98.2873 9.78521 95.5625 9.68887 93.8708 11.2842C93.4585 11.6733 93.1341 12.1417 92.8999 12.6515C92.623 12.7576 92.3888 12.9845 92.2778 13.3589C91.5899 15.6934 92.6072 18.3475 94.8868 19.3648C97.0091 20.3112 99.6729 19.6075 100.973 17.6572C102.318 15.6398 101.953 12.732 100.052 11.2037Z" fill="white"/>
<path d="M127.11 1.02034C114.548 -0.531115 101.792 -0.299366 89.2832 1.62044C76.7776 3.53903 64.5294 7.1652 52.991 12.3562C46.5961 15.2335 40.4342 18.6084 34.5613 22.4371C34.4052 22.4749 34.2479 22.5469 34.0991 22.6639C32.6635 23.7836 31.3145 24.9936 30.046 26.2999C29.9314 26.4182 29.8509 26.5438 29.7972 26.6731C29.7289 26.7292 29.663 26.7951 29.6032 26.8707C25.1562 32.524 21.1605 38.5237 17.6648 44.81C11.5163 55.8678 6.86681 67.7648 3.89684 80.063C0.925653 92.3649 -0.384302 105.055 0.0974795 117.703C0.134071 118.676 1.15984 119.048 1.82336 118.753C1.86361 119.264 2.20511 119.724 2.87229 119.708C10.1795 119.531 17.4831 119.257 24.783 118.881C50.5004 117.553 76.1507 114.975 101.618 111.168C101.856 111.132 102.04 111.042 102.178 110.92C102.283 110.931 102.386 110.935 102.489 110.934C104.132 116.605 105.775 122.277 107.418 127.948C107.573 128.482 107.989 128.744 108.424 128.788C108.534 129.054 108.745 129.285 109.078 129.417C110.976 130.173 113.255 130.289 115.051 129.191C116.187 128.496 116.973 127.452 117.318 126.251C117.507 126.23 117.692 126.149 117.853 126.026C120.239 127.059 123.076 127.003 125.191 125.337C127.252 123.714 128.023 120.689 126.922 118.32C128.066 118.002 129.099 117.271 129.786 116.249C131.068 114.34 130.836 111.814 129.819 109.854C129.585 109.403 129.188 109.232 128.798 109.255C128.767 109.237 128.737 109.219 128.703 109.203C123.338 106.566 117.872 104.145 112.311 101.953C112.171 101.898 112.039 101.873 111.915 101.87C111.95 101.796 111.983 101.716 112.005 101.625C117.953 76.5711 122.693 51.2305 126.194 25.7181C127.187 18.4767 128.078 11.2219 128.873 3.95616C128.945 3.29264 128.516 2.9121 128.011 2.82916C128.36 2.19248 128.077 1.13987 127.11 1.02034ZM115.297 124.176C115.246 124.332 115.223 124.505 115.246 124.697C115.391 125.897 114.521 127.011 113.448 127.448C112.237 127.944 110.924 127.701 109.749 127.231C109.686 127.207 109.625 127.189 109.566 127.175C107.948 121.593 106.331 116.009 104.714 110.426C104.677 110.299 104.625 110.188 104.561 110.091C104.949 109.791 105.315 109.442 105.667 109.094C105.671 109.1 105.674 109.108 105.677 109.114C108.651 114.282 111.865 119.302 115.297 124.176ZM124.653 118.915C125.581 120.488 125.118 122.571 123.638 123.655C122.08 124.797 119.905 124.613 118.288 123.71C118.064 123.586 117.845 123.543 117.638 123.559C114.078 118.56 110.769 113.39 107.71 108.071C107.577 107.84 107.402 107.687 107.208 107.595C107.28 107.526 107.351 107.454 107.423 107.383C107.782 107.554 108.132 107.5 108.409 107.32C113.693 111.119 118.977 114.92 124.261 118.719C124.391 118.813 124.52 118.871 124.647 118.903C124.651 118.908 124.652 118.912 124.653 118.915ZM127.49 111.14C127.649 111.218 127.807 111.257 127.959 111.267C128.443 112.377 128.598 113.667 128.007 114.774C127.406 115.903 126.08 116.483 124.868 116.091C124.712 116.041 124.567 116.023 124.43 116.033C119.459 112.458 114.487 108.882 109.514 105.307C110.041 104.775 110.566 104.241 111.085 103.702C111.207 103.884 111.388 104.039 111.638 104.136C117.017 106.256 122.304 108.589 127.49 111.14ZM117.866 24.4386C119.623 26.4426 121.26 28.5526 122.762 30.7554C122.868 30.9103 122.993 31.0274 123.131 31.1128C120.767 47.4836 117.896 63.7813 114.509 79.9728C113.042 86.9873 111.477 93.9798 109.822 100.952C109.78 101.127 109.777 101.292 109.805 101.443C109.786 101.449 109.768 101.458 109.75 101.465C108.381 90.4476 107.013 79.4288 105.645 68.4112C105.464 66.95 103.233 67.4489 103.412 68.8967C104.748 79.6508 106.083 90.4049 107.419 101.159C104.077 94.7897 100.735 88.4216 97.393 82.0524C96.7087 80.7497 94.6767 81.7926 95.3597 83.0952C98.9993 90.0304 102.638 96.9657 106.277 103.901C97.5723 98.1195 88.8112 92.4235 79.9891 86.8226C78.7499 86.0359 77.5326 87.9704 78.7779 88.7607C87.7354 94.4482 96.6307 100.232 105.467 106.105C105.236 106.327 105.004 106.548 104.772 106.768C94.6609 103.735 84.5495 100.703 74.4382 97.6694C73.0307 97.2474 72.3525 99.4295 73.7662 99.8527C83.2384 102.695 92.7118 105.535 102.184 108.377C102.091 108.425 102 108.486 101.912 108.566C101.864 108.61 101.824 108.655 101.786 108.7C101.65 108.752 101.528 108.828 101.423 108.925C101.331 108.917 101.235 108.92 101.135 108.935C94.0486 109.993 86.9475 110.961 79.8342 111.829C64.8965 113.654 49.9076 115.043 34.8919 116.01C34.8894 116.006 34.8882 116.004 34.8858 116C32.1805 112.316 29.474 108.631 26.7687 104.946C30.5436 100.298 34.4137 95.7289 38.3705 91.2355C38.479 91.3135 38.6095 91.3758 38.7669 91.416C47.1316 93.5188 55.4963 95.6203 63.861 97.7231C65.2807 98.0804 65.965 95.8996 64.5342 95.5398C56.4342 93.5041 48.3342 91.4685 40.2342 89.4328C40.1915 89.2864 40.1183 89.1413 40.0024 89.0034C35.6847 83.8551 31.6889 78.4518 28.0335 72.8156C33.7417 70.2518 39.5462 67.9087 45.4362 65.795C45.5142 65.9767 45.6472 66.1462 45.8472 66.2853C52.5946 70.958 59.3408 75.6319 66.0882 80.3045C67.2969 81.1413 68.508 79.2044 67.2993 78.3664C60.5519 73.6938 53.8058 69.0199 47.0584 64.3472C46.8218 64.1837 46.5851 64.1264 46.3656 64.1472C46.3863 64.0288 46.3937 63.9044 46.3766 63.7678C45.8936 60.0441 45.6057 56.3008 45.5301 52.5466C45.4911 50.6219 45.5045 48.696 45.5716 46.7725C45.6045 45.8102 45.6521 44.8491 45.7118 43.8879C45.7374 43.4757 45.7655 43.0646 45.796 42.6536C45.8167 42.3792 45.8375 42.1047 45.8606 41.8315C45.7094 41.7242 45.7338 41.6852 45.9363 41.7144C46.2461 41.5388 47.1169 41.701 47.4755 41.6998C47.9305 41.6998 48.3866 41.6986 48.8416 41.6986C49.9039 41.6973 50.9663 41.6961 52.0299 41.6961C54.079 41.6949 56.1281 41.6925 58.1772 41.6913C62.1949 41.6876 66.2284 41.7888 70.2437 41.651C70.634 41.6376 70.9255 41.4632 71.1182 41.218C71.1243 41.3644 71.1609 41.5193 71.2353 41.6778C76.7495 53.2979 82.9285 64.5924 89.7406 75.5014C90.5151 76.7418 92.5532 75.705 91.7738 74.4585C84.9618 63.5483 78.7828 52.2551 73.2685 40.635C73.2295 40.5533 73.1856 40.4813 73.138 40.4179C76.2287 35.0207 79.5719 29.776 83.1566 24.6935C87.9074 28.2928 92.8106 31.6812 97.8589 34.85C97.8113 35.0232 97.815 35.2244 97.8882 35.45C99.1554 39.3067 99.3055 43.3452 99.6372 47.3568C99.9763 51.4586 100.673 55.4836 101.825 59.4367C102.235 60.843 104.47 60.3649 104.059 58.9512C102.888 54.9335 102.179 50.8378 101.857 46.6676C101.572 42.9793 101.389 39.258 100.347 35.6952C100.572 35.6818 100.802 35.5952 101.017 35.4074C105.015 31.9044 109.013 28.4014 113.01 24.8996L114.381 23.6982C114.742 23.3811 115.735 22.8018 115.923 22.3468C115.929 22.3431 115.934 22.3407 115.94 22.3371C115.945 22.3407 115.947 22.3431 115.952 22.3468C116.013 22.5554 116.57 23.003 116.7 23.1433C117.092 23.5665 117.481 23.9995 117.866 24.4386ZM126.59 3.8586C125.71 11.9135 124.706 19.955 123.58 27.9794C122.229 26.1059 120.795 24.2935 119.26 22.5639C118.518 21.7284 117.65 20.3904 116.567 19.9855C115.385 19.5439 114.488 20.5612 113.689 21.2613L99.7458 33.4778C99.6604 33.3339 99.536 33.2021 99.3616 33.0936C93.9046 29.6821 88.6148 26.0145 83.5067 22.1004C82.9956 21.7089 82.2626 22.0004 81.9321 22.4639C77.9973 27.9696 74.3492 33.6705 70.9974 39.5495C70.8316 39.4263 70.612 39.3543 70.3376 39.3641C65.793 39.5202 61.2252 39.4019 56.6782 39.4068C54.401 39.4092 52.1238 39.4104 49.8478 39.4129C48.7855 39.4141 47.7219 39.4092 46.6595 39.4153C45.8094 39.4202 44.8617 39.3958 44.2153 40.0532C43.5627 40.7167 43.5761 41.6888 43.5115 42.5548C43.4395 43.5147 43.3822 44.4758 43.3371 45.437C43.2407 47.497 43.2066 49.5608 43.2322 51.6233C43.2834 55.7166 43.5822 59.805 44.0957 63.8666C37.9094 66.0962 31.817 68.5747 25.8319 71.2995C25.3075 71.5386 25.016 72.3338 25.3367 72.8375C28.9532 78.5079 32.905 83.9563 37.1703 89.1559C32.794 94.114 28.525 99.1648 24.3646 104.306C24.028 104.722 24.2183 105.312 24.4927 105.684L32.2 116.181C22.4656 116.775 12.7214 117.189 2.97109 117.425C2.73813 117.431 2.53932 117.493 2.37588 117.594C2.11974 110.597 2.40027 103.585 3.22479 96.6315C4.6994 84.2003 7.91454 71.9789 12.6738 60.4027C17.4343 48.8241 23.8036 37.9212 31.5426 28.0806C31.5816 28.0306 31.6133 27.9818 31.6426 27.9318C32.7208 26.8256 33.86 25.7925 35.0577 24.8204C35.0895 24.8033 35.1212 24.785 35.1529 24.7643C45.6118 17.8864 57.016 12.4624 68.9557 8.69836C80.8929 4.93558 93.3423 2.76695 105.854 2.34981C112.853 2.11685 119.862 2.43032 126.813 3.27801C126.695 3.43413 126.616 3.62686 126.59 3.8586Z" fill="#161616"/>
<path d="M21.1665 83.6725C19.4016 82.254 16.678 82.1576 14.985 83.753C14.5728 84.1421 14.2483 84.6104 14.0142 85.1203C13.7373 85.2264 13.5031 85.4532 13.3921 85.8277C12.7042 88.1622 13.7214 90.8163 16.001 91.8335C18.1233 92.78 20.7872 92.0762 22.0874 90.1259C23.4339 88.1073 23.0668 85.2008 21.1665 83.6725Z" fill="#DD3131"/>
<path d="M32.1064 50.1017C30.3415 48.6832 27.6167 48.5868 25.925 50.1822C25.5127 50.5713 25.1883 51.0396 24.9541 51.5495C24.6772 51.6556 24.443 51.8824 24.332 52.2569C23.6441 54.5914 24.6614 57.2455 26.941 58.2627C29.0633 59.2092 31.7271 58.5054 33.0261 56.5551C34.3738 54.5365 34.0067 51.63 32.1064 50.1017Z" fill="#DD3131"/>
<path d="M63.324 21.4225C61.5591 20.004 58.8355 19.9076 57.1425 21.503C56.7302 21.8921 56.4058 22.3604 56.1728 22.8703C55.896 22.9764 55.6618 23.2032 55.5508 23.5777C54.8629 25.9122 55.8801 28.5663 58.1597 29.5835C60.282 30.53 62.9458 29.8262 64.246 27.8759C65.5914 25.8573 65.2243 22.9508 63.324 21.4225Z" fill="#DD3131"/>
<path d="M100.052 11.2037C98.2868 9.78521 95.562 9.68887 93.8703 11.2842C93.458 11.6733 93.1336 12.1417 92.8994 12.6515C92.6225 12.7576 92.3884 12.9845 92.2774 13.3589C91.5894 15.6934 92.6067 18.3475 94.8863 19.3648C97.0086 20.3112 99.6724 19.6075 100.973 17.6572C102.318 15.6398 101.952 12.732 100.052 11.2037Z" fill="#DD3131"/>
</svg>
