<svg width="338" height="129" viewBox="0 0 338 129" fill="none" xmlns="http://www.w3.org/2000/svg">
<path d="M324.872 0H91.8844C84.6339 0 78.7579 5.87604 78.7579 13.1265C78.7579 20.3747 84.6351 26.2519 91.8844 26.2519H158.935C163.995 28.0754 167.635 32.8717 167.635 38.5581C167.635 43.7452 164.597 48.1885 160.229 50.3193H13.1254C5.87717 50.3193 0 56.1964 0 63.4457C0 70.6951 5.87831 76.5712 13.1254 76.5712H88.9287C93.9901 78.3958 97.6256 83.1898 97.6256 88.8773C97.6256 96.1255 91.7473 102.003 84.5003 102.003H56.3324C49.0819 102.003 43.2059 107.88 43.2059 115.128C43.2059 122.377 49.0819 128.255 56.3324 128.255H177.749C184.998 128.255 190.874 122.376 190.874 115.128C190.874 107.879 184.997 102.003 177.749 102.003H171.462C164.212 102.003 158.335 96.1244 158.335 88.8773C158.335 83.1887 161.972 78.3946 167.032 76.5712H246.117C253.366 76.5712 259.242 70.6951 259.242 63.4457C259.242 56.1964 253.365 50.3193 246.117 50.3193H235.747C231.379 48.1885 228.343 43.7452 228.343 38.5581C228.343 32.8717 231.981 28.0754 237.042 26.2519H324.873C332.124 26.2519 338 20.3736 338 13.1265C338 5.87718 332.123 0 324.872 0Z" fill="#DFDFDF"/>
</svg>
