<svg width="459" height="174" viewBox="0 0 459 174" fill="none" xmlns="http://www.w3.org/2000/svg">
<path d="M440.74 70.1195H337.903C331.038 67.6457 326.104 61.1388 326.104 53.4243C326.104 43.5895 334.076 35.6162 343.913 35.6162H382.125C391.961 35.6162 399.933 27.6429 399.933 17.8097C399.933 7.97481 391.961 0 382.125 0H217.405C207.572 0 199.598 7.97481 199.598 17.8097C199.598 27.6429 207.573 35.6162 217.405 35.6162H225.936C235.771 35.6162 243.743 43.5895 243.743 53.4243C243.743 61.1388 238.809 67.6457 231.944 70.1195H124.652C114.819 70.1195 106.847 78.0913 106.847 87.9261C106.847 97.7594 114.82 105.734 124.652 105.734H138.723C144.647 108.625 148.766 114.655 148.766 121.69C148.766 129.404 143.831 135.91 136.967 138.384H17.8081C7.9748 138.384 0 146.359 0 156.192C0 166.025 7.97635 174 17.8081 174H333.895C343.728 174 351.701 166.025 351.701 156.192C351.701 146.357 343.728 138.384 333.895 138.384H242.929C236.064 135.91 231.126 129.404 231.126 121.69C231.126 114.653 235.241 108.625 241.171 105.734H440.739C450.574 105.734 458.547 97.7594 458.547 87.9261C458.549 78.0913 450.574 70.1195 440.74 70.1195Z" fill="#DFDFDF"/>
</svg>
