<svg width="58" height="51" viewBox="0 0 58 51" fill="none" xmlns="http://www.w3.org/2000/svg">
<path d="M13.232 50.3312H1.36993V16.9613H13.232V50.3312ZM7.29382 12.4094C3.50122 12.4094 0.423828 9.66403 0.423828 6.35097C0.423828 3.0379 3.49918 0.349609 7.29382 0.349609C11.0885 0.349609 14.1638 3.03612 14.1638 6.35097C14.1638 9.66403 11.0864 12.4094 7.29382 12.4094ZM57.6274 50.3312H45.7919V34.0872C45.7919 30.2154 45.702 25.2511 39.6249 25.2511C33.4578 25.2511 32.5117 29.4567 32.5117 33.8087V50.3312H20.6619V16.9613H32.0376V21.5132H32.2032C33.7868 18.891 37.655 16.1241 43.4256 16.1241C55.4308 16.1241 57.6376 23.0305 57.6376 32.0004V50.3312H57.6274Z" fill="black"/>
</svg>
