<svg width="58" height="56" viewBox="0 0 58 56" fill="none" xmlns="http://www.w3.org/2000/svg">
<path d="M57.638 27.8996C57.638 12.5294 44.8238 0.0771484 29.0309 0.0771484C13.2273 0.0771484 0.423828 12.5294 0.423828 27.8996C0.423828 41.7829 10.8815 53.2944 24.5611 55.3794V35.9437H17.2967V27.9013H24.5611V21.7682C24.5611 14.7969 28.8253 10.947 35.362 10.947C38.4927 10.947 41.77 11.4896 41.77 11.4896V18.3356H38.1566C34.6093 18.3356 33.5008 20.4831 33.5008 22.6828V27.8996H41.4339L40.1591 35.942H33.5008V55.3777C47.1696 53.2927 57.638 41.7812 57.638 27.8978V27.8996Z" fill="black"/>
</svg>
